<svg xmlns="http://www.w3.org/2000/svg" xmlns:xlink="http://www.w3.org/1999/xlink" contentStyleType="text/css" data-diagram-type="ACTIVITY" height="244px" preserveAspectRatio="none" style="width:412px;height:244px;background:#FFFFFF;" version="1.1" viewBox="0 0 412 244" width="412px" zoomAndPan="magnify"><title>Prueba de Humo</title><defs><filter height="300%" id="fwqb703rv1hbo" width="300%" x="-1" y="-1"><feGaussianBlur result="blurOut" stdDeviation="2"/><feColorMatrix in="blurOut" result="blurOut2" type="matrix" values="0 0 0 0 0 0 0 0 0 0 0 0 0 0 0 0 0 0 .4 0"/><feOffset dx="4" dy="4" in="blurOut2" result="blurOut3"/><feBlend in="SourceGraphic" in2="blurOut3" mode="normal"/></filter></defs><g><text fill="#000000" font-family="sans-serif" font-size="14" font-weight="bold" lengthAdjust="spacing" textLength="131.25" x="138.9937" y="32.9951">Prueba de Humo</text><ellipse cx="204.8486" cy="57.2969" fill="#000000" filter="url(#fwqb703rv1hbo)" rx="10" ry="10" style="stroke:#000000;stroke-width:1;"/><polygon fill="#FEFECE" filter="url(#fwqb703rv1hbo)" points="116.333,87.2969,293.3643,87.2969,305.3643,99.2969,293.3643,111.2969,116.333,111.2969,104.333,99.2969,116.333,87.2969" style="stroke:#A80036;stroke-width:1.5;"/><text fill="#000000" font-family="sans-serif" font-size="11" lengthAdjust="spacing" textLength="177.0313" x="116.333" y="103.105">&#191;Se conecta a la base de datos?</text><text fill="#000000" font-family="sans-serif" font-size="11" lengthAdjust="spacing" textLength="8.7871" x="95.5459" y="96.7026">s&#237;</text><text fill="#000000" font-family="sans-serif" font-size="11" lengthAdjust="spacing" textLength="13.7017" x="305.3643" y="96.7026">no</text><rect fill="#FEFECE" filter="url(#fwqb703rv1hbo)" height="33.9688" rx="12.5" ry="12.5" style="stroke:#A80036;stroke-width:1.5;" width="166.666" x="11" y="121.2969"/><text fill="#000000" font-family="sans-serif" font-size="12" lengthAdjust="spacing" textLength="146.666" x="21" y="142.4355">prueba de humo exitosa</text><rect fill="#FEFECE" filter="url(#fwqb703rv1hbo)" height="33.9688" rx="12.5" ry="12.5" style="stroke:#A80036;stroke-width:1.5;" width="159.7461" x="235.4912" y="121.2969"/><text fill="#000000" font-family="sans-serif" font-size="12" lengthAdjust="spacing" textLength="139.7461" x="245.4912" y="142.4355">prueba de humo fallida</text><polygon fill="#FEFECE" filter="url(#fwqb703rv1hbo)" points="204.8486,161.2656,216.8486,173.2656,204.8486,185.2656,192.8486,173.2656,204.8486,161.2656" style="stroke:#A80036;stroke-width:1.5;"/><ellipse cx="204.8486" cy="216.2656" fill="none" filter="url(#fwqb703rv1hbo)" rx="11" ry="11" style="stroke:#000000;stroke-width:1;"/><ellipse cx="204.8486" cy="216.2656" fill="#000000" rx="6" ry="6" style="stroke:#000000;stroke-width:1;"/><line style="stroke:#A80036;stroke-width:1.5;" x1="104.333" x2="94.333" y1="99.2969" y2="99.2969"/><line style="stroke:#A80036;stroke-width:1.5;" x1="94.333" x2="94.333" y1="99.2969" y2="121.2969"/><polygon fill="#A80036" points="90.333,111.2969,94.333,121.2969,98.333,111.2969,94.333,115.2969" style="stroke:#A80036;stroke-width:1;"/><line style="stroke:#A80036;stroke-width:1.5;" x1="305.3643" x2="315.3643" y1="99.2969" y2="99.2969"/><line style="stroke:#A80036;stroke-width:1.5;" x1="315.3643" x2="315.3643" y1="99.2969" y2="121.2969"/><polygon fill="#A80036" points="311.3643,111.2969,315.3643,121.2969,319.3643,111.2969,315.3643,115.2969" style="stroke:#A80036;stroke-width:1;"/><line style="stroke:#A80036;stroke-width:1.5;" x1="94.333" x2="94.333" y1="155.2656" y2="173.2656"/><line style="stroke:#A80036;stroke-width:1.5;" x1="94.333" x2="192.8486" y1="173.2656" y2="173.2656"/><polygon fill="#A80036" points="182.8486,169.2656,192.8486,173.2656,182.8486,177.2656,186.8486,173.2656" style="stroke:#A80036;stroke-width:1;"/><line style="stroke:#A80036;stroke-width:1.5;" x1="315.3643" x2="315.3643" y1="155.2656" y2="173.2656"/><line style="stroke:#A80036;stroke-width:1.5;" x1="315.3643" x2="216.8486" y1="173.2656" y2="173.2656"/><polygon fill="#A80036" points="226.8486,169.2656,216.8486,173.2656,226.8486,177.2656,222.8486,173.2656" style="stroke:#A80036;stroke-width:1;"/><line style="stroke:#A80036;stroke-width:1.5;" x1="204.8486" x2="204.8486" y1="67.2969" y2="87.2969"/><polygon fill="#A80036" points="200.8486,77.2969,204.8486,87.2969,208.8486,77.2969,204.8486,81.2969" style="stroke:#A80036;stroke-width:1;"/><line style="stroke:#A80036;stroke-width:1.5;" x1="204.8486" x2="204.8486" y1="185.2656" y2="205.2656"/><polygon fill="#A80036" points="200.8486,195.2656,204.8486,205.2656,208.8486,195.2656,204.8486,199.2656" style="stroke:#A80036;stroke-width:1;"/><!--SRC=[RSsn3G8n38NXtbEyChS25BIKI4pWkpYwY12VOf_4Kio018kHD5Jqt_kVtN95KnCYpru4bxRBp8Y2ytvN8dDkJfGJmljr5InQPN46ep1cDXaqigkT9lWg5S4-puc0m_PBhJq5UUIk-4XI-YfK_OSIbvBZG3NcDEvr-m80]--></g></svg>