<svg xmlns="http://www.w3.org/2000/svg" xmlns:xlink="http://www.w3.org/1999/xlink" contentStyleType="text/css" data-diagram-type="CLASS" height="1161px" preserveAspectRatio="none" style="width:663px;height:1161px;background:#FFFFFF;" version="1.1" viewBox="0 0 663 1161" width="663px" zoomAndPan="magnify"><defs/><g><!--class A--><g class="entity" data-entity="A" data-source-line="7" data-uid="ent0002" id="entity_A"><rect fill="#FFFFFF" height="60.2969" rx="2.5" ry="2.5" style="stroke:#000000;stroke-width:1;" width="141.0898" x="249.27" y="12"/><ellipse cx="311.2763" cy="26" fill="#FFFFFF" rx="9" ry="9" style="stroke:#000000;stroke-width:1;"/><path d="M314.6826,27.9688 C313.9638,28.6406 312.667,29.8125 310.917,29.8125 C308.6982,29.8125 307.7295,27.875 307.7295,25.9219 C307.7295,23.5313 309.2138,22.2656 310.8545,22.2656 C312.8701,22.2656 313.0888,23.7813 313.2607,24.875 L314.6826,24.6875 C314.5888,24.1094 314.5107,23.5313 314.5107,22.5625 C314.5107,21.8906 314.5576,21.3438 314.5888,20.9219 L313.1826,20.9219 L313.0732,21.875 C312.4795,21.3438 311.8388,20.7969 310.6201,20.7969 C308.5732,20.7969 306.167,22.625 306.167,25.9375 C306.167,28.875 307.9326,31.2656 310.9326,31.2656 C313.3701,31.2656 315.0732,29.6406 315.667,29.0625 L314.6826,27.9688 Z " fill="#000000"/><text fill="#000000" font-family="Verdana" font-size="14" lengthAdjust="spacing" textLength="9.5771" x="328.7763" y="30.8467">A</text><line style="stroke:#000000;stroke-width:1;" x1="250.27" x2="389.3598" y1="40" y2="40"/><text fill="#000000" font-family="Verdana" font-size="14" lengthAdjust="spacing" textLength="129.0898" x="255.27" y="56.9951">Tareas en Backlog</text><line style="stroke:#000000;stroke-width:1;" x1="250.27" x2="389.3598" y1="64.2969" y2="64.2969"/></g><!--class B--><g class="entity" data-entity="B" data-source-line="8" data-uid="ent0003" id="entity_B"><rect fill="#FFFFFF" height="60.2969" rx="2.5" ry="2.5" style="stroke:#000000;stroke-width:1;" width="315.4268" x="162.11" y="149.29"/><ellipse cx="311.2711" cy="163.29" fill="#FFFFFF" rx="9" ry="9" style="stroke:#000000;stroke-width:1;"/><path d="M314.6774,165.2588 C313.9586,165.9306 312.6618,167.1025 310.9118,167.1025 C308.693,167.1025 307.7243,165.165 307.7243,163.2119 C307.7243,160.8213 309.2086,159.5556 310.8493,159.5556 C312.8649,159.5556 313.0836,161.0713 313.2555,162.165 L314.6774,161.9775 C314.5836,161.3994 314.5055,160.8213 314.5055,159.8525 C314.5055,159.1806 314.5524,158.6338 314.5836,158.2119 L313.1774,158.2119 L313.068,159.165 C312.4743,158.6338 311.8336,158.0869 310.6149,158.0869 C308.568,158.0869 306.1618,159.915 306.1618,163.2275 C306.1618,166.165 307.9274,168.5556 310.9274,168.5556 C313.3649,168.5556 315.068,166.9306 315.6618,166.3525 L314.6774,165.2588 Z " fill="#000000"/><text fill="#000000" font-family="Verdana" font-size="14" lengthAdjust="spacing" textLength="9.6045" x="328.7711" y="168.1367">B</text><line style="stroke:#000000;stroke-width:1;" x1="163.11" x2="476.5368" y1="177.29" y2="177.29"/><line style="stroke:#000000;stroke-width:1;" x1="163.11" x2="476.5368" y1="185.29" y2="185.29"/><text fill="#000000" font-family="Verdana" font-size="14" lengthAdjust="spacing" textLength="303.4268" x="168.11" y="202.2851">Tareas con &#201;pica (Qn) y Prioridad Asignada</text></g><!--class C--><g class="entity" data-entity="C" data-source-line="9" data-uid="ent0004" id="entity_C"><rect fill="#FFFFFF" height="60.2969" rx="2.5" ry="2.5" style="stroke:#000000;stroke-width:1;" width="553.7754" x="42.93" y="286.59"/><ellipse cx="311.18" cy="300.59" fill="#FFFFFF" rx="9" ry="9" style="stroke:#000000;stroke-width:1;"/><path d="M314.5863,302.5588 C313.8675,303.2306 312.5706,304.4025 310.8206,304.4025 C308.6019,304.4025 307.6331,302.465 307.6331,300.5119 C307.6331,298.1213 309.1175,296.8556 310.7581,296.8556 C312.7738,296.8556 312.9925,298.3713 313.1644,299.465 L314.5863,299.2775 C314.4925,298.6994 314.4144,298.1213 314.4144,297.1525 C314.4144,296.4806 314.4613,295.9338 314.4925,295.5119 L313.0863,295.5119 L312.9769,296.465 C312.3831,295.9338 311.7425,295.3869 310.5238,295.3869 C308.4769,295.3869 306.0706,297.215 306.0706,300.5275 C306.0706,303.465 307.8363,305.8556 310.8363,305.8556 C313.2738,305.8556 314.9769,304.2306 315.5706,303.6525 L314.5863,302.5588 Z " fill="#000000"/><text fill="#000000" font-family="Verdana" font-size="14" lengthAdjust="spacing" textLength="9.7754" x="328.68" y="305.4367">C</text><line style="stroke:#000000;stroke-width:1;" x1="43.93" x2="595.7054" y1="314.59" y2="314.59"/><text fill="#000000" font-family="Verdana" font-size="14" lengthAdjust="spacing" textLength="541.7754" x="48.93" y="331.5851">Tareas de la &#201;pica Actual con un Mes Asignado y Mayor Cantidad de Detalles</text><line style="stroke:#000000;stroke-width:1;" x1="43.93" x2="595.7054" y1="338.8869" y2="338.8869"/></g><!--class D--><g class="entity" data-entity="D" data-source-line="10" data-uid="ent0005" id="entity_D"><rect fill="#FFFFFF" height="60.2969" rx="2.5" ry="2.5" style="stroke:#000000;stroke-width:1;" width="188.2852" x="225.68" y="407.89"/><ellipse cx="310.6824" cy="421.89" fill="#FFFFFF" rx="9" ry="9" style="stroke:#000000;stroke-width:1;"/><path d="M314.0887,423.8588 C313.3699,424.5306 312.0731,425.7025 310.3231,425.7025 C308.1043,425.7025 307.1356,423.765 307.1356,421.8119 C307.1356,419.4213 308.6199,418.1556 310.2606,418.1556 C312.2762,418.1556 312.4949,419.6713 312.6668,420.765 L314.0887,420.5775 C313.9949,419.9994 313.9168,419.4213 313.9168,418.4525 C313.9168,417.7806 313.9637,417.2338 313.9949,416.8119 L312.5887,416.8119 L312.4793,417.765 C311.8856,417.2338 311.2449,416.6869 310.0262,416.6869 C307.9793,416.6869 305.5731,418.515 305.5731,421.8275 C305.5731,424.765 307.3387,427.1556 310.3387,427.1556 C312.7762,427.1556 314.4793,425.5306 315.0731,424.9525 L314.0887,423.8588 Z " fill="#000000"/><text fill="#000000" font-family="Verdana" font-size="14" lengthAdjust="spacing" textLength="10.7803" x="328.1824" y="426.7367">D</text><line style="stroke:#000000;stroke-width:1;" x1="226.68" x2="412.9652" y1="435.89" y2="435.89"/><text fill="#000000" font-family="Verdana" font-size="14" lengthAdjust="spacing" textLength="176.2852" x="231.68" y="452.8851">Tareas en Estado To - Do</text><line style="stroke:#000000;stroke-width:1;" x1="226.68" x2="412.9652" y1="460.1869" y2="460.1869"/></g><!--class E--><g class="entity" data-entity="E" data-source-line="11" data-uid="ent0006" id="entity_E"><rect fill="#FFFFFF" height="60.2969" rx="2.5" ry="2.5" style="stroke:#000000;stroke-width:1;" width="415.1699" x="112.23" y="545.19"/><ellipse cx="311.6421" cy="559.19" fill="#FFFFFF" rx="9" ry="9" style="stroke:#000000;stroke-width:1;"/><path d="M315.0484,561.1588 C314.3296,561.8306 313.0327,563.0025 311.2827,563.0025 C309.064,563.0025 308.0952,561.065 308.0952,559.1119 C308.0952,556.7213 309.5796,555.4556 311.2202,555.4556 C313.2359,555.4556 313.4546,556.9713 313.6265,558.065 L315.0484,557.8775 C314.9546,557.2994 314.8765,556.7213 314.8765,555.7525 C314.8765,555.0806 314.9234,554.5338 314.9546,554.1119 L313.5484,554.1119 L313.439,555.065 C312.8452,554.5338 312.2046,553.9869 310.9859,553.9869 C308.939,553.9869 306.5327,555.815 306.5327,559.1275 C306.5327,562.065 308.2984,564.4556 311.2984,564.4556 C313.7359,564.4556 315.439,562.8306 316.0327,562.2525 L315.0484,561.1588 Z " fill="#000000"/><text fill="#000000" font-family="Verdana" font-size="14" lengthAdjust="spacing" textLength="8.8457" x="329.1421" y="564.0367">E</text><line style="stroke:#000000;stroke-width:1;" x1="113.23" x2="526.3999" y1="573.19" y2="573.19"/><text fill="#000000" font-family="Verdana" font-size="14" lengthAdjust="spacing" textLength="403.1699" x="118.23" y="590.1851">Tareas Asignadas para la Semana para cada Colaborador</text><line style="stroke:#000000;stroke-width:1;" x1="113.23" x2="526.3999" y1="597.4869" y2="597.4869"/></g><!--class F--><g class="entity" data-entity="F" data-source-line="12" data-uid="ent0007" id="entity_F"><rect fill="#FFFFFF" height="60.2969" rx="2.5" ry="2.5" style="stroke:#000000;stroke-width:1;" width="162.2266" x="238.71" y="682.48"/><ellipse cx="312.0469" cy="696.48" fill="#FFFFFF" rx="9" ry="9" style="stroke:#000000;stroke-width:1;"/><path d="M315.4532,698.4488 C314.7344,699.1206 313.4375,700.2925 311.6875,700.2925 C309.4688,700.2925 308.5,698.355 308.5,696.4019 C308.5,694.0113 309.9844,692.7456 311.625,692.7456 C313.6407,692.7456 313.8594,694.2613 314.0313,695.355 L315.4532,695.1675 C315.3594,694.5894 315.2813,694.0113 315.2813,693.0425 C315.2813,692.3706 315.3282,691.8238 315.3594,691.4019 L313.9532,691.4019 L313.8438,692.355 C313.25,691.8238 312.6094,691.2769 311.3907,691.2769 C309.3438,691.2769 306.9375,693.105 306.9375,696.4175 C306.9375,699.355 308.7032,701.7456 311.7032,701.7456 C314.1407,701.7456 315.8438,700.1206 316.4375,699.5425 L315.4532,698.4488 Z " fill="#000000"/><text fill="#000000" font-family="Verdana" font-size="14" lengthAdjust="spacing" textLength="8.0527" x="329.5469" y="701.3267">F</text><line style="stroke:#000000;stroke-width:1;" x1="239.71" x2="399.9366" y1="710.48" y2="710.48"/><line style="stroke:#000000;stroke-width:1;" x1="239.71" x2="399.9366" y1="718.48" y2="718.48"/><text fill="#000000" font-family="Verdana" font-size="14" lengthAdjust="spacing" textLength="150.2266" x="244.71" y="735.4751">En Desarrollo (Doing)</text></g><!--class G--><g class="entity" data-entity="G" data-source-line="13" data-uid="ent0008" id="entity_G"><rect fill="#FFFFFF" height="60.2969" rx="2.5" ry="2.5" style="stroke:#000000;stroke-width:1;" width="136.3457" x="143.65" y="819.78"/><ellipse cx="202.6485" cy="833.78" fill="#FFFFFF" rx="9" ry="9" style="stroke:#000000;stroke-width:1;"/><path d="M206.0548,835.7488 C205.336,836.4206 204.0392,837.5925 202.2892,837.5925 C200.0704,837.5925 199.1017,835.655 199.1017,833.7019 C199.1017,831.3113 200.586,830.0456 202.2267,830.0456 C204.2423,830.0456 204.461,831.5613 204.6329,832.655 L206.0548,832.4675 C205.961,831.8894 205.8829,831.3113 205.8829,830.3425 C205.8829,829.6706 205.9298,829.1238 205.961,828.7019 L204.5548,828.7019 L204.4454,829.655 C203.8517,829.1238 203.211,828.5769 201.9923,828.5769 C199.9454,828.5769 197.5392,830.405 197.5392,833.7175 C197.5392,836.655 199.3048,839.0456 202.3048,839.0456 C204.7423,839.0456 206.4454,837.4206 207.0392,836.8425 L206.0548,835.7488 Z " fill="#000000"/><text fill="#000000" font-family="Verdana" font-size="14" lengthAdjust="spacing" textLength="10.8486" x="220.1485" y="838.6267">G</text><line style="stroke:#000000;stroke-width:1;" x1="144.65" x2="278.9957" y1="847.78" y2="847.78"/><text fill="#000000" font-family="Verdana" font-size="14" lengthAdjust="spacing" textLength="124.3457" x="149.65" y="864.7751">Testing/In Review</text><line style="stroke:#000000;stroke-width:1;" x1="144.65" x2="278.9957" y1="872.0769" y2="872.0769"/></g><!--class H--><g class="entity" data-entity="H" data-source-line="14" data-uid="ent0009" id="entity_H"><rect fill="#FFFFFF" height="60.2969" rx="2.5" ry="2.5" style="stroke:#000000;stroke-width:1;" width="129.6396" x="12" y="957.08"/><ellipse cx="67.8062" cy="971.08" fill="#FFFFFF" rx="9" ry="9" style="stroke:#000000;stroke-width:1;"/><path d="M71.2124,973.0488 C70.4937,973.7206 69.1968,974.8925 67.4468,974.8925 C65.228,974.8925 64.2593,972.955 64.2593,971.0019 C64.2593,968.6113 65.7437,967.3456 67.3843,967.3456 C69.3999,967.3456 69.6187,968.8613 69.7905,969.955 L71.2124,969.7675 C71.1187,969.1894 71.0405,968.6113 71.0405,967.6425 C71.0405,966.9706 71.0874,966.4238 71.1187,966.0019 L69.7124,966.0019 L69.603,966.955 C69.0093,966.4238 68.3687,965.8769 67.1499,965.8769 C65.103,965.8769 62.6968,967.705 62.6968,971.0175 C62.6968,973.955 64.4624,976.3456 67.4624,976.3456 C69.8999,976.3456 71.603,974.7206 72.1968,974.1425 L71.2124,973.0488 Z " fill="#000000"/><text fill="#000000" font-family="Verdana" font-size="14" lengthAdjust="spacing" textLength="10.5273" x="85.3062" y="975.9267">H</text><line style="stroke:#000000;stroke-width:1;" x1="13" x2="140.6396" y1="985.08" y2="985.08"/><text fill="#000000" font-family="Verdana" font-size="14" lengthAdjust="spacing" textLength="117.6396" x="18" y="1002.0751">Done Completed</text><line style="stroke:#000000;stroke-width:1;" x1="13" x2="140.6396" y1="1009.3769" y2="1009.3769"/></g><!--class I--><g class="entity" data-entity="I" data-source-line="15" data-uid="ent0010" id="entity_I"><rect fill="#FFFFFF" height="60.2969" rx="2.5" ry="2.5" style="stroke:#000000;stroke-width:1;" width="107.5049" x="187.07" y="1094.37"/><ellipse cx="235.008" cy="1108.37" fill="#FFFFFF" rx="9" ry="9" style="stroke:#000000;stroke-width:1;"/><path d="M238.4142,1110.3388 C237.6955,1111.0106 236.3986,1112.1825 234.6486,1112.1825 C232.4299,1112.1825 231.4611,1110.245 231.4611,1108.2919 C231.4611,1105.9013 232.9455,1104.6356 234.5861,1104.6356 C236.6017,1104.6356 236.8205,1106.1513 236.9924,1107.245 L238.4142,1107.0575 C238.3205,1106.4794 238.2424,1105.9013 238.2424,1104.9325 C238.2424,1104.2606 238.2892,1103.7138 238.3205,1103.2919 L236.9142,1103.2919 L236.8049,1104.245 C236.2111,1103.7138 235.5705,1103.1669 234.3517,1103.1669 C232.3049,1103.1669 229.8986,1104.995 229.8986,1108.3075 C229.8986,1111.245 231.6642,1113.6356 234.6642,1113.6356 C237.1017,1113.6356 238.8049,1112.0106 239.3986,1111.4325 L238.4142,1110.3388 Z " fill="#000000"/><text fill="#000000" font-family="Verdana" font-size="14" lengthAdjust="spacing" textLength="4.1289" x="252.508" y="1113.2167">I</text><line style="stroke:#000000;stroke-width:1;" x1="188.07" x2="293.5749" y1="1122.37" y2="1122.37"/><text fill="#000000" font-family="Verdana" font-size="14" lengthAdjust="spacing" textLength="95.5049" x="193.07" y="1139.3651">Done Wontdo</text><line style="stroke:#000000;stroke-width:1;" x1="188.07" x2="293.5749" y1="1146.6669" y2="1146.6669"/></g><!--class J--><g class="entity" data-entity="J" data-source-line="16" data-uid="ent0011" id="entity_J"><rect fill="#FFFFFF" height="60.2969" rx="2.5" ry="2.5" style="stroke:#000000;stroke-width:1;" width="161.6182" x="322.01" y="957.08"/><ellipse cx="397.0046" cy="971.08" fill="#FFFFFF" rx="9" ry="9" style="stroke:#000000;stroke-width:1;"/><path d="M400.4109,973.0488 C399.6921,973.7206 398.3953,974.8925 396.6453,974.8925 C394.4265,974.8925 393.4578,972.955 393.4578,971.0019 C393.4578,968.6113 394.9421,967.3456 396.5828,967.3456 C398.5984,967.3456 398.8171,968.8613 398.989,969.955 L400.4109,969.7675 C400.3171,969.1894 400.239,968.6113 400.239,967.6425 C400.239,966.9706 400.2859,966.4238 400.3171,966.0019 L398.9109,966.0019 L398.8015,966.955 C398.2078,966.4238 397.5671,965.8769 396.3484,965.8769 C394.3015,965.8769 391.8953,967.705 391.8953,971.0175 C391.8953,973.955 393.6609,976.3456 396.6609,976.3456 C399.0984,976.3456 400.8015,974.7206 401.3953,974.1425 L400.4109,973.0488 Z " fill="#000000"/><text fill="#000000" font-family="Verdana" font-size="14" lengthAdjust="spacing" textLength="4.1289" x="414.5046" y="975.9267">J</text><line style="stroke:#000000;stroke-width:1;" x1="323.01" x2="482.6282" y1="985.08" y2="985.08"/><text fill="#000000" font-family="Verdana" font-size="14" lengthAdjust="spacing" textLength="149.6182" x="328.01" y="1002.0751">Esperando un Evento</text><line style="stroke:#000000;stroke-width:1;" x1="323.01" x2="482.6282" y1="1009.3769" y2="1009.3769"/></g><!--link A to B--><g class="link" data-entity-1="A" data-entity-2="B" data-source-line="19" data-uid="lnk12" id="link_A_B"><path codeLine="19" d="M319.82,72.5 C319.82,95.2 319.82,120.46 319.82,143.14" fill="none" id="A-to-B" style="stroke:#000000;stroke-width:1;"/><polygon fill="#000000" points="319.82,149.14,323.82,140.14,319.82,144.14,315.82,140.14,319.82,149.14" style="stroke:#000000;stroke-width:1;"/><text fill="#000000" font-family="Verdana" font-size="13" lengthAdjust="spacing" textLength="334.3057" x="320.82" y="115.3569">Aseo de Backlog (Reuni&#243;n mensual Epic Grooming)</text></g><!--link B to C--><g class="link" data-entity-1="B" data-entity-2="C" data-source-line="20" data-uid="lnk13" id="link_B_C"><path codeLine="20" d="M319.82,209.8 C319.82,232.49 319.82,257.76 319.82,280.44" fill="none" id="B-to-C" style="stroke:#000000;stroke-width:1;"/><polygon fill="#000000" points="319.82,286.44,323.82,277.44,319.82,281.44,315.82,277.44,319.82,286.44" style="stroke:#000000;stroke-width:1;"/><text fill="#000000" font-family="Verdana" font-size="13" lengthAdjust="spacing" textLength="315.377" x="320.82" y="252.6569">Refinamiento (Reuni&#243;n Semanal de Refinement)</text></g><!--link C to D--><g class="link" data-entity-1="C" data-entity-2="D" data-source-line="21" data-uid="lnk14" id="link_C_D"><path codeLine="21" d="M319.82,347.23 C319.82,365.58 319.82,383.11 319.82,401.47" fill="none" id="C-to-D" style="stroke:#000000;stroke-width:1;"/><polygon fill="#000000" points="319.82,407.47,323.82,398.47,319.82,402.47,315.82,398.47,319.82,407.47" style="stroke:#000000;stroke-width:1;"/></g><!--link D to E--><g class="link" data-entity-1="D" data-entity-2="E" data-source-line="22" data-uid="lnk15" id="link_D_E"><path codeLine="22" d="M319.82,468.39 C319.82,491.09 319.82,516.35 319.82,539.03" fill="none" id="D-to-E" style="stroke:#000000;stroke-width:1;"/><polygon fill="#000000" points="319.82,545.03,323.82,536.03,319.82,540.03,315.82,536.03,319.82,545.03" style="stroke:#000000;stroke-width:1;"/><text fill="#000000" font-family="Verdana" font-size="13" lengthAdjust="spacing" textLength="164.7534" x="320.82" y="511.2569">Reuni&#243;n Team Alignment</text></g><!--link E to F--><g class="link" data-entity-1="E" data-entity-2="F" data-source-line="23" data-uid="lnk16" id="link_E_F"><path codeLine="23" d="M319.82,605.69 C319.82,628.39 319.82,653.65 319.82,676.33" fill="none" id="E-to-F" style="stroke:#000000;stroke-width:1;"/><polygon fill="#000000" points="319.82,682.33,323.82,673.33,319.82,677.33,315.82,673.33,319.82,682.33" style="stroke:#000000;stroke-width:1;"/><text fill="#000000" font-family="Verdana" font-size="13" lengthAdjust="spacing" textLength="187.7764" x="320.82" y="648.5469">Selecci&#243;n de Tarea Asignada</text></g><!--link F to G--><g class="link" data-entity-1="F" data-entity-2="G" data-source-line="24" data-uid="lnk17" id="link_F_G"><path codeLine="24" d="M238.38,721.77 C172.76,730.21 88.05,746.01 66.82,772.78 C40.49,805.97 88.0798,824.9878 137.3498,836.2078" fill="none" id="F-to-G" style="stroke:#000000;stroke-width:1;"/><polygon fill="#000000" points="143.2,837.54,135.3128,831.6415,138.3248,836.4298,133.5365,839.4418,143.2,837.54" style="stroke:#000000;stroke-width:1;"/><text fill="#000000" font-family="Verdana" font-size="13" lengthAdjust="spacing" textLength="123.3984" x="67.82" y="785.8469">Lista para Revisi&#243;n</text></g><!--link G to F--><g class="link" data-entity-1="G" data-entity-2="F" data-source-line="27" data-uid="lnk20" id="link_G_F"><path codeLine="27" d="M214.58,819.35 C217.16,804.3 222.16,786.37 231.82,772.78 C240.03,761.23 246.3604,754.7332 258.0604,746.4632" fill="none" id="G-to-F" style="stroke:#000000;stroke-width:1;"/><polygon fill="#000000" points="262.96,743,253.3018,744.9284,258.877,745.886,257.9194,751.4612,262.96,743" style="stroke:#000000;stroke-width:1;"/><text fill="#000000" font-family="Verdana" font-size="13" lengthAdjust="spacing" textLength="145.0376" x="232.82" y="785.8469">Necesita Correcciones</text></g><!--link G to H--><g class="link" data-entity-1="G" data-entity-2="H" data-source-line="25" data-uid="lnk18" id="link_G_H"><path codeLine="25" d="M158.95,880.53 C146.26,889.07 133.34,899.09 122.82,910.08 C109.79,923.68 101.5504,936.3242 93.5404,951.3642" fill="none" id="G-to-H" style="stroke:#000000;stroke-width:1;"/><polygon fill="#000000" points="90.72,956.66,98.4811,950.5966,93.0704,952.2469,91.4201,946.8361,90.72,956.66" style="stroke:#000000;stroke-width:1;"/><text fill="#000000" font-family="Verdana" font-size="13" lengthAdjust="spacing" textLength="61.5723" x="123.82" y="923.1469">Aceptada</text></g><!--link G to I--><g class="link" data-entity-1="G" data-entity-2="I" data-source-line="26" data-uid="lnk19" id="link_G_I"><path codeLine="26" d="M214.95,880.36 C220.53,932.81 231.4953,1035.8837 237.0653,1088.2437" fill="none" id="G-to-I" style="stroke:#000000;stroke-width:1;"/><polygon fill="#000000" points="237.7,1094.21,240.7255,1084.8374,237.1711,1089.2381,232.7704,1085.6836,237.7,1094.21" style="stroke:#000000;stroke-width:1;"/><text fill="#000000" font-family="Verdana" font-size="13" lengthAdjust="spacing" textLength="71.3921" x="230.82" y="991.7869">Rechazada</text></g><!--link F to J--><g class="link" data-entity-1="F" data-entity-2="J" data-source-line="28" data-uid="lnk21" id="link_F_J"><path codeLine="28" d="M360.07,743.15 C369,751.69 377.41,761.73 382.82,772.78 C412.27,832.95 410.7229,908.0537 406.9029,950.8937" fill="none" id="F-to-J" style="stroke:#000000;stroke-width:1;"/><polygon fill="#000000" points="406.37,956.87,411.1535,948.2608,406.8141,951.8898,403.1852,947.5503,406.37,956.87" style="stroke:#000000;stroke-width:1;"/><text fill="#000000" font-family="Verdana" font-size="13" lengthAdjust="spacing" textLength="110.665" x="408.82" y="854.4969">Tarea Congelada</text></g><!--link J to F--><g class="link" data-entity-1="J" data-entity-2="F" data-source-line="29" data-uid="lnk22" id="link_J_F"><path codeLine="29" d="M451.64,956.77 C498.77,924.42 558.77,870.32 527.82,819.78 C500.3,774.83 452.7775,750.0712 407.0675,734.7112" fill="none" id="J-to-F" style="stroke:#000000;stroke-width:1;"/><polygon fill="#000000" points="401.38,732.8,408.6371,739.4584,406.1196,734.3926,411.1853,731.8751,401.38,732.8" style="stroke:#000000;stroke-width:1;"/><text fill="#000000" font-family="Verdana" font-size="13" lengthAdjust="spacing" textLength="97.2017" x="536.82" y="854.4969">Evento Ocurri&#243;</text></g><!--link J to I--><g class="link" data-entity-1="J" data-entity-2="I" data-source-line="30" data-uid="lnk23" id="link_J_I"><path codeLine="30" d="M367.67,1017.58 C340.59,1040.2 307.915,1067.4837 280.785,1090.1437" fill="none" id="J-to-I" style="stroke:#000000;stroke-width:1;"/><polygon fill="#000000" points="276.18,1093.99,285.6517,1091.2906,280.0175,1090.7848,280.5233,1085.1506,276.18,1093.99" style="stroke:#000000;stroke-width:1;"/><text fill="#000000" font-family="Verdana" font-size="13" lengthAdjust="spacing" textLength="197.4375" x="332.82" y="1060.4369">10 d&#237;as congelada sin eventos</text></g><!--link G to J--><g class="link" data-entity-1="G" data-entity-2="J" data-source-line="31" data-uid="lnk24" id="link_G_J"><path codeLine="31" d="M227.81,880.3 C237.46,895.84 250.94,914.29 266.82,927.08 C283.07,940.15 297.1698,948.4371 316.3498,956.9871" fill="none" id="G-to-J" style="stroke:#000000;stroke-width:1;"/><polygon fill="#000000" points="321.83,959.43,315.2384,952.1122,317.2632,957.3942,311.9811,959.419,321.83,959.43" style="stroke:#000000;stroke-width:1;"/><text fill="#000000" font-family="Verdana" font-size="13" lengthAdjust="spacing" textLength="110.665" x="267.82" y="923.1469">Tarea Congelada</text></g><!--SRC=[RPB1SjD038Rl-nJYH7B805SEp3YnMvAX1TBEzAoirMJBUcLsruNo1ZmCfpv2NWnfdM2OuUInfF-NzfDUv0Dr1Br75unv2RMBPAqxFWTeoSEz7nuOPYq1nkXs20Uq3W5t-C1paxc7pB3ZdBc3LgNPSV6vvfQJgU0jt68aJ401bcY_UDwRvHIr7E3uitSMOVOvpE49FaN7qRNOGfNSFc2BPZNLoo0UpuhAvW5zyHW2N54wIrXyhl298wmmv68cmfeoUa_9rFzCrQIiYbk61THicYbv7Y11Zn6ryGrr673yjPA15NlSSHI3Q2v4sGHfauGLUo_SQdPXFpUNwaafoy-hTO0jFJhwPjvBjEP0OjBrdZArPdqEtN78BPkDMgQU8WOPKHxPF5B8h81NKlPTODC8aRBxEiW3bVbYyGwKSPM8zU4dxZ3RqX3AQZiAIT4rmX4k8tDNvbmMgUBUqhqBs3djzfTkVBzNqr8XfnFoN1Qakbh0whSf-fFYbh23oWj8BHMwMg6aRiXFXpOIdpP-KSeKsmSdwnc1AxQa0k6fQULNMUgpAiRGkhIs1_mnnRJPDLbABkk-OhblvNRgiZalN97koQjoyqSv0eUFTf3xFpwVCjhdpMjeZx_66nvba9mieWZIgVb_p7y3]--></g></svg>