<?xml version="1.0" encoding="us-ascii" standalone="no"?><svg xmlns="http://www.w3.org/2000/svg" xmlns:xlink="http://www.w3.org/1999/xlink" contentStyleType="text/css" height="244px" preserveAspectRatio="none" style="width:427px;height:244px;background:#FFFFFF;" version="1.1" viewBox="0 0 427 244" width="427px" zoomAndPan="magnify"><defs><filter height="300%" id="fwqb703rv1hbo" width="300%" x="-1" y="-1"><feGaussianBlur result="blurOut" stdDeviation="2.0"/><feColorMatrix in="blurOut" result="blurOut2" type="matrix" values="0 0 0 0 0 0 0 0 0 0 0 0 0 0 0 0 0 0 .4 0"/><feOffset dx="4.0" dy="4.0" in="blurOut2" result="blurOut3"/><feBlend in="SourceGraphic" in2="blurOut3" mode="normal"/></filter></defs><g><text fill="#000000" font-family="sans-serif" font-size="14" font-weight="bold" lengthAdjust="spacing" textLength="131" x="146.5" y="32.9951">Prueba de Humo</text><ellipse cx="212.5" cy="57.2969" fill="#000000" filter="url(#fwqb703rv1hbo)" rx="10" ry="10" style="stroke:#000000;stroke-width:1.0;"/><polygon fill="#FEFECE" filter="url(#fwqb703rv1hbo)" points="119.5,87.2969,305.5,87.2969,317.5,99.2969,305.5,111.2969,119.5,111.2969,107.5,99.2969,119.5,87.2969" style="stroke:#A80036;stroke-width:1.5;"/><text fill="#000000" font-family="sans-serif" font-size="11" lengthAdjust="spacing" textLength="186" x="119.5" y="103.105">&#191;Se conecta a la base de datos?</text><text fill="#000000" font-family="sans-serif" font-size="11" lengthAdjust="spacing" textLength="10" x="97.5" y="96.7026">s&#237;</text><text fill="#000000" font-family="sans-serif" font-size="11" lengthAdjust="spacing" textLength="14" x="317.5" y="96.7026">no</text><rect fill="#FEFECE" filter="url(#fwqb703rv1hbo)" height="33.9688" rx="12.5" ry="12.5" style="stroke:#A80036;stroke-width:1.5;" width="173" x="11" y="121.2969"/><text fill="#000000" font-family="sans-serif" font-size="12" lengthAdjust="spacing" textLength="153" x="21" y="142.4355">prueba de humo exitosa</text><rect fill="#FEFECE" filter="url(#fwqb703rv1hbo)" height="33.9688" rx="12.5" ry="12.5" style="stroke:#A80036;stroke-width:1.5;" width="165" x="245" y="121.2969"/><text fill="#000000" font-family="sans-serif" font-size="12" lengthAdjust="spacing" textLength="145" x="255" y="142.4355">prueba de humo fallida</text><polygon fill="#FEFECE" filter="url(#fwqb703rv1hbo)" points="212.5,161.2656,224.5,173.2656,212.5,185.2656,200.5,173.2656,212.5,161.2656" style="stroke:#A80036;stroke-width:1.5;"/><ellipse cx="212.5" cy="216.2656" fill="none" filter="url(#fwqb703rv1hbo)" rx="11" ry="11" style="stroke:#000000;stroke-width:1.0;"/><ellipse cx="212.5" cy="216.2656" fill="#000000" rx="6" ry="6" style="stroke:#000000;stroke-width:1.0;"/><line style="stroke:#A80036;stroke-width:1.5;" x1="107.5" x2="97.5" y1="99.2969" y2="99.2969"/><line style="stroke:#A80036;stroke-width:1.5;" x1="97.5" x2="97.5" y1="99.2969" y2="121.2969"/><polygon fill="#A80036" points="93.5,111.2969,97.5,121.2969,101.5,111.2969,97.5,115.2969" style="stroke:#A80036;stroke-width:1.0;"/><line style="stroke:#A80036;stroke-width:1.5;" x1="317.5" x2="327.5" y1="99.2969" y2="99.2969"/><line style="stroke:#A80036;stroke-width:1.5;" x1="327.5" x2="327.5" y1="99.2969" y2="121.2969"/><polygon fill="#A80036" points="323.5,111.2969,327.5,121.2969,331.5,111.2969,327.5,115.2969" style="stroke:#A80036;stroke-width:1.0;"/><line style="stroke:#A80036;stroke-width:1.5;" x1="97.5" x2="97.5" y1="155.2656" y2="173.2656"/><line style="stroke:#A80036;stroke-width:1.5;" x1="97.5" x2="200.5" y1="173.2656" y2="173.2656"/><polygon fill="#A80036" points="190.5,169.2656,200.5,173.2656,190.5,177.2656,194.5,173.2656" style="stroke:#A80036;stroke-width:1.0;"/><line style="stroke:#A80036;stroke-width:1.5;" x1="327.5" x2="327.5" y1="155.2656" y2="173.2656"/><line style="stroke:#A80036;stroke-width:1.5;" x1="327.5" x2="224.5" y1="173.2656" y2="173.2656"/><polygon fill="#A80036" points="234.5,169.2656,224.5,173.2656,234.5,177.2656,230.5,173.2656" style="stroke:#A80036;stroke-width:1.0;"/><line style="stroke:#A80036;stroke-width:1.5;" x1="212.5" x2="212.5" y1="67.2969" y2="87.2969"/><polygon fill="#A80036" points="208.5,77.2969,212.5,87.2969,216.5,77.2969,212.5,81.2969" style="stroke:#A80036;stroke-width:1.0;"/><line style="stroke:#A80036;stroke-width:1.5;" x1="212.5" x2="212.5" y1="185.2656" y2="205.2656"/><polygon fill="#A80036" points="208.5,195.2656,212.5,205.2656,216.5,195.2656,212.5,199.2656" style="stroke:#A80036;stroke-width:1.0;"/><!--SRC=[RSsn3G8n38NXtbEyChS25BIKI4pWkpYwY12VOf_4Kio018kHD5Jqt_kVtN95KnCYpru4bxRBp8Y2ytvN8dDkJfGJmljr5InQPN46ep1cDXaqigkT9lWg5S4-puc0m_PBhJq5UUIk-4XI-YfK_OSIbvBZG3NcDEvr-m80]--></g></svg>