<svg width="56" height="46" viewBox="0 0 56 46" fill="none" xmlns="http://www.w3.org/2000/svg">
<path d="M36.334 28.9165C38.4483 24.0386 42.7702 20.5721 47.8947 19.6436L53.6494 18.6009C51.5377 15.6963 48.2012 13.8438 44.1053 13.3375C39.6533 12.7873 34.8037 13.9042 30.4502 16.4827C26.0966 19.0611 22.7288 22.8109 20.9673 27.0412C19.4548 30.6734 19.2634 34.3042 20.3795 37.4781L27.2004 36.2423C31.2492 35.5087 34.6634 32.77 36.334 28.9165Z" fill="url(#paint0_linear)"/>
<path d="M55.2865 21.7223L48.4656 22.958C44.4169 23.6917 41.0027 26.4302 39.3322 30.2839C37.2179 35.1618 32.896 38.6283 27.7715 39.5568L22.0168 40.5995C24.1285 43.5041 27.465 45.3566 31.5609 45.8628C36.0129 46.4132 40.8625 45.2961 45.216 42.7177C49.5696 40.1392 52.9374 36.3894 54.6989 32.1592C56.2112 28.527 56.4026 24.8962 55.2865 21.7223Z" fill="url(#paint1_linear)"/>
<path d="M14.4392 20.5741C10.1235 17.5911 7.54602 12.6231 7.54438 7.28484L7.54274 1.29017C4.3876 2.91907 2.02969 5.96796 0.832574 10.0179C-0.468772 14.4199 -0.238537 19.5131 1.48084 24.3589C3.20022 29.2048 6.21526 33.2582 9.97054 35.7722C12.3137 37.341 14.7773 38.204 17.1926 38.3379C15.8973 34.4359 16.1431 30.0557 17.9491 25.7189C18.0649 25.441 18.1872 25.1652 18.3146 24.8912C17.3845 23.1868 16.0693 21.7009 14.4392 20.5741Z" fill="url(#paint2_linear)"/>
<path d="M28.8088 13.5678C28.8808 13.525 28.9535 13.4835 29.0258 13.4415C27.2774 8.84228 24.3518 5.00182 20.7414 2.58472C17.517 0.426017 14.0646 -0.397859 10.8237 0.178506L10.8256 7.28383C10.8269 11.5013 12.8632 15.4261 16.2726 17.7828C17.8006 18.839 19.1093 20.1448 20.1643 21.6269C22.3181 18.437 25.2837 15.6553 28.8088 13.5678Z" fill="url(#paint3_linear)"/>
<defs>
<linearGradient id="paint0_linear" x1="50" y1="-8.5" x2="24.5" y2="39" gradientUnits="userSpaceOnUse">
<stop stop-color="#FF7C7C"/>
<stop offset="1" stop-color="#4A3749"/>
</linearGradient>
<linearGradient id="paint1_linear" x1="50" y1="-8.5" x2="24.5" y2="39" gradientUnits="userSpaceOnUse">
<stop stop-color="#FF7C7C"/>
<stop offset="1" stop-color="#4A3749"/>
</linearGradient>
<linearGradient id="paint2_linear" x1="50" y1="-8.5" x2="24.5" y2="39" gradientUnits="userSpaceOnUse">
<stop stop-color="#FF7C7C"/>
<stop offset="1" stop-color="#4A3749"/>
</linearGradient>
<linearGradient id="paint3_linear" x1="50" y1="-8.5" x2="24.5" y2="39" gradientUnits="userSpaceOnUse">
<stop stop-color="#FF7C7C"/>
<stop offset="1" stop-color="#4A3749"/>
</linearGradient>
</defs>
</svg>
