<svg id="Capa_1" enable-background="new 0 0 507.983 507.983" height="512" viewBox="0 0 507.983 507.983" width="512" xmlns="http://www.w3.org/2000/svg"><g><path d="m200.75 148.678c11.79-27.061 5.828-58.58-15.03-79.466l-48.16-48.137c-15.999-16.19-38.808-23.698-61.296-20.178-22.742 3.34-42.496 17.4-53.101 37.794-23.286 43.823-29.276 94.79-16.784 142.817 30.775 121.9 198.319 289.559 320.196 320.104 16.452 4.172 33.357 6.297 50.33 6.326 32.253-.021 64.009-7.948 92.487-23.087 35.138-18.325 48.768-61.665 30.443-96.803-3.364-6.451-7.689-12.352-12.828-17.502l-48.137-48.16c-20.894-20.862-52.421-26.823-79.489-15.03-12.631 5.444-24.152 13.169-33.984 22.787-11.774 11.844-55.201-5.31-98.675-48.76s-60.581-86.877-48.876-98.698c9.658-9.834 17.422-21.361 22.904-34.007zm-6.741 165.397c52.939 52.893 124.14 88.562 163.919 48.76 5.859-5.609 12.688-10.108 20.155-13.275 9.59-4.087 20.703-1.9 28.028 5.518l48.137 48.137c5.736 5.672 8.398 13.754 7.157 21.725-1.207 8.191-6.286 15.298-13.645 19.093-33.711 18.115-73.058 22.705-110.033 12.836-104.724-26.412-260.078-181.765-286.489-286.627-9.858-37.009-5.26-76.383 12.86-110.126 3.823-7.318 10.924-12.358 19.093-13.552 1.275-.203 2.564-.304 3.856-.3 6.714-.002 13.149 2.683 17.869 7.457l48.137 48.137c7.407 7.321 9.595 18.421 5.518 28.005-3.153 7.516-7.652 14.394-13.275 20.294-39.804 39.686-4.18 110.817 48.713 163.918z"/></g></svg>