<svg width="24" height="24" viewBox="0 0 24 24" fill="none" xmlns="http://www.w3.org/2000/svg">
<path d="M21.733 21.68C21.8274 21.5791 21.8999 21.4598 21.9458 21.3295C21.9918 21.1992 22.0102 21.0608 22 20.923L21 7.923C20.9806 7.67135 20.8667 7.43636 20.6813 7.26517C20.4958 7.09397 20.2524 6.99925 20 7H17C17 5.67392 16.4733 4.40215 15.5356 3.46447C14.5979 2.52678 13.3261 2 12 2C10.674 2 9.40219 2.52678 8.46451 3.46447C7.52682 4.40215 7.00004 5.67392 7.00004 7H4.00004C3.74764 6.99925 3.50429 7.09397 3.31882 7.26517C3.13335 7.43636 3.01947 7.67135 3.00004 7.923L2.00004 20.923C1.98941 21.0607 2.0074 21.199 2.05287 21.3294C2.09834 21.4597 2.17031 21.5793 2.26425 21.6804C2.35819 21.7816 2.47206 21.8622 2.5987 21.9172C2.72533 21.9722 2.86198 22.0004 3.00004 22H21C21.1377 22 21.2738 21.9715 21.3999 21.9165C21.5261 21.8614 21.6395 21.7809 21.733 21.68ZM12 4C12.7957 4 13.5588 4.31607 14.1214 4.87868C14.684 5.44129 15 6.20435 15 7H9.00004C9.00004 6.20435 9.31611 5.44129 9.87872 4.87868C10.4413 4.31607 11.2044 4 12 4ZM4.08004 20L4.92604 9H7.00004V11C7.00004 11.2652 7.1054 11.5196 7.29293 11.7071C7.48047 11.8946 7.73482 12 8.00004 12C8.26526 12 8.51961 11.8946 8.70715 11.7071C8.89468 11.5196 9.00004 11.2652 9.00004 11V9H15V11C15 11.2652 15.1054 11.5196 15.2929 11.7071C15.4805 11.8946 15.7348 12 16 12C16.2653 12 16.5196 11.8946 16.7071 11.7071C16.8947 11.5196 17 11.2652 17 11V9H19.074L19.92 20H4.08004Z" fill="#4A3749"/>
</svg>
