<?xml version="1.0"?>
<svg xmlns="http://www.w3.org/2000/svg" xmlns:xlink="http://www.w3.org/1999/xlink" xmlns:svgjs="http://svgjs.com/svgjs" version="1.1" width="512" height="512" x="0" y="0" viewBox="0 0 510 510" style="enable-background:new 0 0 512 512" xml:space="preserve" class=""><g><g xmlns="http://www.w3.org/2000/svg"><path d="m510 30v-30h-116.079l-27.692 90h-217.427l16.154 210h-164.956v45c0 90.981 74.019 165 165 165h283.891l32.308-420h-83.581l18.462-60zm-153.002 90-23.077 75h-146.954l-5.769-75zm-167.723 105h251.449l-15 195h-113.776c11.537-22.515 18.052-48.011 18.052-75v-45h-134.956zm-93.278 149.373c-3.856-9.025-5.997-18.953-5.997-29.373v-15h42.975zm54.003-17.942v62.06c-13.795-2.811-26.215-9.432-36.136-18.696zm30 0 36.136 43.363c-9.921 9.265-22.34 15.886-36.136 18.696zm60-11.431c0 10.42-2.141 20.348-5.997 29.373l-36.978-44.373h42.975zm-210 0v-15h30v15c0 57.897 47.103 105 105 105s105-47.103 105-105v-15h30v15c0 74.439-60.561 135-135 135s-135-60.561-135-135zm229.758 135c12.102-8.52 23.015-18.617 32.429-30h131.23l-2.308 30zm189.044-360-5.77 75h-77.722l23.077-75z" fill="#ffffff" data-original="#000000" style="" class=""/><path d="m375 270h30v30h-30z" fill="#ffffff" data-original="#000000" style="" class=""/><path d="m360 345h30v30h-30z" fill="#ffffff" data-original="#000000" style="" class=""/></g></g></svg>
