<svg enable-background="new 0 0 507.918 507.918" height="24" viewBox="0 0 507.918 507.918" width="24" xmlns="http://www.w3.org/2000/svg">
	<g><path d="m184.697 215.473v269.358c0 12.751 10.336 23.087 23.087 23.087h92.349c12.751 0 23.087-10.336 23.087-23.087v-269.358l133.905-178.534c7.65-10.201 5.583-24.672-4.617-32.322-3.996-2.997-8.857-4.617-13.852-4.617h-369.395c-12.751 0-23.087 10.336-23.087 23.087 0 4.995 1.62 9.856 4.617 13.852zm207.784-169.299-110.818 147.758c-2.997 3.996-4.617 8.857-4.617 13.852v253.959h-46.174v-253.958c0-4.995-1.62-9.856-4.617-13.852l-110.82-147.759z"/></g>
</svg>