<svg width="167" height="187" viewBox="0 0 167 187" fill="none" xmlns="http://www.w3.org/2000/svg">
<path d="M32.1424 22.6611H41.226V26.8535H32.1424V22.6611Z" fill="#786877"/>
<path d="M17.4688 22.6611H27.2512V26.8535H17.4688V22.6611Z" fill="#786877"/>
<path d="M27.2512 26.8535H32.1424V36.6359H27.2512V26.8535Z" fill="#786877"/>
<path d="M27.2512 12.8787H32.1424V22.6611H27.2512V12.8787Z" fill="#786877"/>
<path d="M156.519 120.033L160.835 115.717L162.993 117.875L158.677 122.191L156.519 120.033Z" fill="#FFCFA7"/>
<path d="M150.353 126.198L154.361 122.191L156.519 124.349L152.511 128.356L150.353 126.198Z" fill="#FFCFA7"/>
<path d="M156.519 124.349L158.677 122.191L162.684 126.198L160.526 128.356L156.519 124.349Z" fill="#FFCFA7"/>
<path d="M150.045 117.875L152.203 115.717L156.519 120.033L154.361 122.191L150.045 117.875Z" fill="#FFCFA7"/>
<path d="M100.575 10.2798L104.287 13.9912L102.431 15.8469L98.7195 12.1355L100.575 10.2798Z" fill="#EB9BA0"/>
<path d="M95.0073 4.71191L98.719 8.42356L96.8631 10.2794L93.1515 6.56774L95.0073 4.71191Z" fill="#EB9BA0"/>
<path d="M96.8633 10.2798L98.719 12.1355L95.0076 15.8469L93.1519 13.9912L96.8633 10.2798Z" fill="#EB9BA0"/>
<path d="M102.431 4.71188L104.287 6.5677L100.575 10.2793L98.7195 8.42352L102.431 4.71188Z" fill="#EB9BA0"/>
<path d="M17.1195 140.749C15.6684 140.749 14.2499 140.318 13.0434 139.512C11.8369 138.706 10.8965 137.56 10.3412 136.22C9.78589 134.879 9.6406 133.404 9.92369 131.981C10.2068 130.557 10.9055 129.25 11.9316 128.224C12.9577 127.198 14.265 126.499 15.6882 126.216C17.1114 125.933 18.5866 126.078 19.9272 126.634C21.2678 127.189 22.4137 128.129 23.2199 129.336C24.026 130.542 24.4563 131.961 24.4563 133.412C24.4563 135.358 23.6833 137.224 22.3074 138.6C20.9315 139.976 19.0654 140.749 17.1195 140.749ZM17.1195 130.966C16.6358 130.966 16.163 131.11 15.7608 131.378C15.3586 131.647 15.0452 132.029 14.8601 132.476C14.675 132.923 14.6265 133.415 14.7209 133.889C14.8153 134.363 15.0482 134.799 15.3902 135.141C15.7322 135.483 16.168 135.716 16.6424 135.81C17.1168 135.905 17.6085 135.856 18.0554 135.671C18.5023 135.486 18.8842 135.173 19.153 134.771C19.4217 134.368 19.5651 133.896 19.5651 133.412C19.5651 132.763 19.3075 132.141 18.8488 131.683C18.3902 131.224 17.7681 130.966 17.1195 130.966Z" fill="#FFED69"/>
<path d="M132.761 34.5397C131.379 34.5397 130.028 34.1094 128.879 33.3032C127.73 32.497 126.835 31.3512 126.306 30.0105C125.777 28.6699 125.639 27.1947 125.908 25.7715C126.178 24.3483 126.843 23.041 127.821 22.015C128.798 20.9889 130.043 20.2901 131.398 20.007C132.754 19.7239 134.159 19.8692 135.435 20.4245C136.712 20.9798 137.803 21.9202 138.571 23.1268C139.339 24.3333 139.749 25.7518 139.749 27.2029C139.749 29.1487 139.013 31.0149 137.702 32.3908C136.392 33.7667 134.615 34.5397 132.761 34.5397ZM132.761 24.7573C132.301 24.7573 131.85 24.9007 131.467 25.1694C131.084 25.4381 130.786 25.8201 130.61 26.267C130.433 26.7138 130.387 27.2056 130.477 27.68C130.567 28.1544 130.789 28.5901 131.114 28.9322C131.44 29.2742 131.855 29.5071 132.307 29.6015C132.759 29.6958 133.227 29.6474 133.653 29.4623C134.078 29.2772 134.442 28.9637 134.698 28.5616C134.954 28.1594 135.091 27.6866 135.091 27.2029C135.091 26.5543 134.845 25.9322 134.408 25.4736C133.972 25.0149 133.379 24.7573 132.761 24.7573Z" fill="#C8A7FF"/>
<path d="M0.000244141 52.0083C0.000244141 49.3069 2.19011 47.1171 4.89145 47.1171C7.59279 47.1171 9.78265 49.3069 9.78265 52.0083C9.78265 54.7096 7.59279 56.8995 4.89145 56.8995C2.19011 56.8995 0.000244141 54.7096 0.000244141 52.0083Z" fill="#FF61B6"/>
<path d="M139.749 104.414H144.64V108.606H139.749V104.414Z" fill="#FF416E"/>
<path d="M72.6694 29.6485H77.5606V34.5397H72.6694V29.6485Z" fill="#FFED69"/>
<g clip-path="url(#clip0)">
<path opacity="0.15" d="M84.199 186.866C118.184 186.866 145.734 184.504 145.734 181.591C145.734 178.678 118.184 176.317 84.199 176.317C50.2139 176.317 22.6636 178.678 22.6636 181.591C22.6636 184.504 50.2139 186.866 84.199 186.866Z" fill="#4A3749"/>
<path d="M79.5573 119.282L17.3889 97.5163V156.555C17.3959 158.046 18.3383 159.368 19.7448 159.86L79.5221 180.958C82.5321 181.978 85.7952 181.978 88.8052 180.958L148.582 159.86C149.989 159.368 150.931 158.046 150.938 156.555V97.5163L88.8403 119.282C85.8339 120.334 82.5637 120.334 79.5573 119.282Z" fill="#FF866E"/>
<path d="M88.8403 119.282C85.8339 120.334 82.5637 120.334 79.5573 119.282L17.3889 97.5163V115.098L79.5573 136.864C82.5637 137.915 85.8339 137.915 88.8403 136.864L151.009 115.098V97.5163L88.8403 119.282Z" fill="#FF6242"/>
<path d="M84.1569 183.48C82.3953 183.48 80.6336 183.195 78.9563 182.625L19.158 161.517C17.0587 160.782 15.6381 158.792 15.6311 156.562V97.5163C15.6311 96.9467 15.9089 96.4122 16.373 96.0816C16.8372 95.7546 17.435 95.6702 17.9694 95.8566L80.1378 117.623C82.761 118.537 85.6443 118.54 88.2605 117.623L150.358 95.8566C150.896 95.6702 151.487 95.7546 151.955 96.0816C152.423 96.4122 152.697 96.9467 152.697 97.5163V156.559C152.686 158.799 151.266 160.789 149.159 161.52L89.3857 182.618C87.6979 183.191 85.9292 183.48 84.1569 183.48ZM19.1474 99.9918V156.555C19.1474 157.29 19.6221 157.951 20.3254 158.201L80.1062 179.299C82.7117 180.185 85.6057 180.188 88.2359 179.292L147.996 158.201C148.702 157.955 149.177 157.29 149.181 156.548V99.9953L89.4209 120.942C86.0557 122.123 82.339 122.12 78.9774 120.942L19.1474 99.9918Z" fill="#4A3749"/>
<path d="M84.1988 177.161C83.2283 177.161 82.4407 176.373 82.4407 175.403V127.932C82.4407 126.962 83.2283 126.174 84.1988 126.174C85.1693 126.174 85.957 126.962 85.957 127.932V175.403C85.957 176.373 85.1693 177.161 84.1988 177.161Z" fill="#E04122"/>
<path d="M79.557 94.6681L13.8723 71.6714V93.789C13.8793 95.2799 14.8217 96.6021 16.2282 97.0944L79.5218 119.282C82.5283 120.334 85.7984 120.334 88.8049 119.282L152.098 97.0944C153.505 96.6021 154.447 95.2799 154.454 93.789V71.6714L88.84 94.6681C85.8336 95.7195 82.5634 95.7195 79.557 94.6681Z" fill="#FF866E"/>
<path d="M88.84 94.6681C85.8336 95.7195 82.5634 95.7195 79.557 94.6681L13.8723 71.6714V82.2204L79.557 105.217C82.5634 106.268 85.8336 106.268 88.84 105.217L154.525 82.2204V71.6714L88.84 94.6681Z" fill="#FFA694"/>
<path d="M84.1638 121.825C82.3951 121.825 80.6264 121.529 78.9421 120.938L15.6485 98.7505C13.5423 98.0156 12.1252 96.0218 12.1182 93.7925V71.6714C12.1182 71.1018 12.396 70.5673 12.8601 70.2368C13.3207 69.9097 13.9185 69.8253 14.453 70.0152L80.1377 93.0119C82.7573 93.9226 85.6442 93.9226 88.2603 93.0119L153.875 70.0152C154.416 69.8289 155.007 69.9097 155.471 70.2403C155.939 70.5708 156.213 71.1053 156.213 71.6749V93.7925C156.202 96.0289 154.782 98.0191 152.676 98.7575L89.382 120.942C87.7012 121.529 85.9325 121.825 84.1638 121.825ZM15.631 74.1504V93.789C15.631 94.5239 16.1057 95.1885 16.8089 95.4346L80.1025 117.623C82.7186 118.537 85.6055 118.537 88.2217 117.623L151.515 95.4346C152.219 95.1885 152.693 94.5239 152.697 93.7784V74.1504L89.4207 96.3278C86.0556 97.5057 82.3459 97.5022 78.9773 96.3278L15.631 74.1504Z" fill="#4A3749"/>
<path d="M13.8723 71.6714L79.557 48.6748C82.5634 47.6234 85.8336 47.6234 88.84 48.6748L154.525 71.6714L88.84 94.6681C85.8336 95.7195 82.5634 95.7195 79.557 94.6681L13.8723 71.6714Z" fill="#FF866E"/>
<path d="M84.1989 97.2104C82.4301 97.2104 80.6614 96.9185 78.9771 96.3313L13.2925 73.3311C12.5857 73.085 12.1145 72.4204 12.1145 71.6714C12.1145 70.9225 12.5857 70.2579 13.2925 70.0117L78.9771 47.0151C82.3422 45.8371 86.0484 45.8406 89.4206 47.0151L155.105 70.0153C155.812 70.2614 156.283 70.926 156.283 71.675C156.283 72.4239 155.812 73.0885 155.105 73.3347L89.4206 96.3313C87.7398 96.915 85.9676 97.2104 84.1989 97.2104ZM19.1928 71.6714L80.1375 93.0084C82.7572 93.9226 85.6441 93.9226 88.2602 93.0084L149.205 71.6714L88.2602 50.3345C85.6441 49.4202 82.7607 49.4202 80.1375 50.3345L19.1928 71.6714Z" fill="#4A3749"/>
<path d="M98.8263 52.1911L27.9375 76.5943V101.208L59.5843 112.285V87.6706L130.473 63.2675L98.8263 52.1911Z" fill="#EDDBFF"/>
<path d="M59.5846 114.043C59.3877 114.043 59.1943 114.011 59.0044 113.945L27.3577 102.868C26.6509 102.622 26.1797 101.954 26.1797 101.208V76.5943C26.1797 75.8453 26.6544 75.1772 27.3647 74.9311L98.2535 50.5279C98.6262 50.3978 99.0341 50.4013 99.4068 50.5279L131.054 61.6042C131.76 61.8539 132.235 62.522 132.232 63.271C132.228 64.02 131.753 64.6845 131.047 64.9272L61.3428 88.9225V112.285C61.3428 112.854 61.065 113.389 60.6044 113.719C60.302 113.934 59.9468 114.043 59.5846 114.043ZM29.696 99.9602L57.8265 109.806V87.6707C57.8265 86.9217 58.3012 86.2536 59.0115 86.0074L125.115 63.2534L98.8231 54.0512L29.696 77.8496V99.9602Z" fill="#4A3749"/>
<path d="M53.3254 87.2487C53.132 87.2487 52.9386 87.217 52.7452 87.1502L36.746 81.5593C35.8283 81.2393 35.3466 80.2372 35.6665 79.3194C35.9865 78.4052 36.9887 77.9269 37.9064 78.2399L53.9056 83.8308C54.8234 84.1508 55.3051 85.153 54.9851 86.0707C54.732 86.7951 54.0533 87.2487 53.3254 87.2487Z" fill="#BF8DF2"/>
<path d="M31.4541 102.439V163.975L63.1009 175.051V113.516L31.4541 102.439Z" fill="#EDDBFF"/>
<path d="M31.4541 102.439V120.021L63.1009 131.097V113.516L31.4541 102.439Z" fill="#DABFF5"/>
<path d="M63.1012 176.809C62.9043 176.809 62.7109 176.777 62.521 176.711L30.8743 165.634C30.1675 165.388 29.6963 164.724 29.6963 163.975V102.439C29.6963 101.869 29.9741 101.335 30.4347 101.004C30.9024 100.674 31.5002 100.597 32.0346 100.779L63.6814 111.856C64.3882 112.102 64.8594 112.77 64.8594 113.516V175.051C64.8594 175.621 64.5816 176.155 64.1209 176.486C63.8185 176.7 63.4634 176.809 63.1012 176.809ZM33.2126 162.726L61.3431 172.572V114.764L33.2126 104.918V162.726Z" fill="#4A3749"/>
<path d="M69.5704 52.1911L140.459 76.5943V101.208L108.812 112.285V87.6706L37.9236 63.2675L69.5704 52.1911Z" fill="#EDDBFF"/>
<path d="M108.813 114.043C108.451 114.043 108.095 113.934 107.797 113.719C107.329 113.389 107.055 112.854 107.055 112.285V88.9224L37.3508 64.9307C36.644 64.6845 36.1658 64.0199 36.1658 63.2745C36.1658 62.529 36.637 61.8574 37.3437 61.6077L68.9905 50.5314C69.3633 50.4013 69.7711 50.4013 70.1439 50.5314L141.036 74.9346C141.743 75.1772 142.221 75.8453 142.221 76.5978V101.212C142.221 101.957 141.747 102.625 141.043 102.872L109.396 113.948C109.203 114.011 109.01 114.043 108.813 114.043ZM43.2863 63.2534L109.386 86.0074C110.093 86.25 110.571 86.9181 110.571 87.6706V109.806L138.701 99.9601V77.8461L69.5742 54.0512L43.2863 63.2534Z" fill="#4A3749"/>
<path d="M115.072 87.2487C114.344 87.2487 113.665 86.7951 113.412 86.0707C113.089 85.153 113.574 84.1508 114.492 83.8308L130.491 78.2399C131.412 77.9164 132.414 78.4017 132.731 79.3194C133.054 80.2372 132.569 81.2393 131.651 81.5593L115.652 87.1502C115.462 87.217 115.265 87.2487 115.072 87.2487Z" fill="#BF8DF2"/>
<path d="M136.943 102.439V163.975L105.296 175.051V113.516L136.943 102.439Z" fill="#EDDBFF"/>
<path d="M136.943 102.439V120.021L105.296 131.097V113.516L136.943 102.439Z" fill="#DABFF5"/>
<path d="M105.297 176.809C104.935 176.809 104.579 176.7 104.281 176.486C103.813 176.155 103.539 175.621 103.539 175.051V113.515C103.539 112.77 104.013 112.102 104.717 111.856L136.363 100.779C136.905 100.6 137.499 100.674 137.96 101.004C138.427 101.335 138.702 101.869 138.702 102.439V163.975C138.702 164.724 138.23 165.385 137.524 165.634L105.877 176.711C105.687 176.777 105.494 176.809 105.297 176.809ZM107.055 114.764V172.572L135.185 162.726V104.918L107.055 114.764Z" fill="#4A3749"/>
<path d="M73.6501 75.3636L78.9246 66.5728C78.9246 66.5728 57.1586 38.161 33.2126 45.0881C28.4761 46.4595 25.3255 50.9287 25.6173 55.848L26.3206 67.3112L73.6501 75.3636Z" fill="#DABFF5"/>
<path d="M73.65 77.1216C73.5516 77.1216 73.4531 77.1145 73.3547 77.097L26.0251 69.0446C25.2199 68.9075 24.6151 68.2359 24.5659 67.4201L23.8626 55.9569C23.518 50.1726 27.1609 45.0106 32.7237 43.4002C57.5559 36.2339 79.4027 64.3046 80.3205 65.5037C80.76 66.0768 80.8022 66.861 80.433 67.4798L75.1585 76.2706C74.835 76.8051 74.2619 77.1216 73.65 77.1216ZM27.9907 65.8131L72.7604 73.4294L76.7831 66.7274C72.8307 62.012 53.811 40.9493 33.7012 46.7793C29.7313 47.9292 27.1257 51.6143 27.3719 55.7459L27.9907 65.8131Z" fill="#4A3749"/>
<path d="M73.6503 75.3635C73.6503 75.3635 54.0293 83.4159 28.2899 70.3704C26.5317 69.5476 25.7722 67.4518 26.5986 65.6937C27.0346 64.7619 27.8609 64.0656 28.8525 63.7949C44.7744 59.0936 61.9937 63.5417 73.6503 75.3635Z" fill="#BF8DF2"/>
<path d="M57.9673 79.6148C49.8938 79.6148 39.3449 77.9445 27.4949 71.9387C24.9105 70.7291 23.7712 67.582 25.0054 64.9482C25.6629 63.5487 26.8937 62.5114 28.3846 62.1C44.9394 57.2159 62.7671 61.8222 74.9018 74.1293C75.3133 74.5478 75.4891 75.142 75.373 75.7152C75.257 76.2884 74.8596 76.7666 74.3181 76.9881C73.8645 77.178 67.718 79.6148 57.9673 79.6148ZM41.6235 63.7035C37.527 63.7035 33.3988 64.2872 29.348 65.4792C28.8171 65.6269 28.4057 65.9715 28.1877 66.4392C27.7798 67.3182 28.1595 68.3661 29.0386 68.7775C48.3713 78.574 64.1665 76.1512 70.2673 74.5759C62.2783 67.4976 52.0704 63.7035 41.6235 63.7035Z" fill="#4A3749"/>
<path d="M94.9241 75.3636L89.6497 66.5728C89.6497 66.5728 111.416 38.161 135.362 45.0881C140.042 46.5122 143.126 50.9674 142.816 55.848L142.078 67.3112L94.9241 75.3636Z" fill="#DABFF5"/>
<path d="M94.9241 77.1217C94.3123 77.1217 93.7391 76.8052 93.4156 76.2672L88.1412 67.4765C87.7719 66.8576 87.8141 66.077 88.2537 65.5003C89.1714 64.3012 111.06 36.213 135.847 43.3968C141.353 45.0741 144.93 50.236 144.567 55.957L143.829 67.4202C143.776 68.2325 143.171 68.9041 142.37 69.0377L95.216 77.0901C95.1175 77.1147 95.0191 77.1217 94.9241 77.1217ZM91.7911 66.724L95.8137 73.4296L140.415 65.8133L141.065 55.7355C141.322 51.6496 138.769 47.9645 134.852 46.7724C114.71 40.9283 95.7329 62.0016 91.7911 66.724Z" fill="#4A3749"/>
<path d="M94.9238 75.3636C94.9238 75.3636 114.369 83.4159 140.108 70.3704C141.867 69.5476 142.626 67.4519 141.8 65.6937C141.364 64.7619 140.537 64.0657 139.546 63.7949C123.677 59.1639 106.545 63.605 94.9238 75.3636Z" fill="#BF8DF2"/>
<path d="M110.519 79.6183C100.8 79.6183 94.7025 77.1745 94.2489 76.9881C93.7109 76.7666 93.3136 76.2848 93.1975 75.7117C93.0815 75.1385 93.2608 74.5443 93.6722 74.1258C105.761 61.8961 123.54 57.2897 140.038 62.1071C141.505 62.5115 142.739 63.5488 143.393 64.9483C144.627 67.582 143.488 70.7291 140.854 71.9633C129.043 77.9481 118.55 79.6183 110.519 79.6183ZM98.3138 74.5759C104.404 76.1372 120.118 78.5318 139.317 68.8021C140.242 68.3661 140.618 67.3183 140.207 66.4392C139.989 65.9715 139.578 65.6269 139.082 65.4898C124.732 61.3018 109.39 64.79 98.3138 74.5759Z" fill="#4A3749"/>
<path d="M92.5676 72.2692C92.5676 72.2692 118.166 80.1457 123.722 98.9931L111.098 96.813L107.16 109.507C107.16 109.507 95.2399 80.8138 84.1987 76.6997L92.5676 72.2692Z" fill="#BF8DF2"/>
<path d="M107.16 111.265C106.453 111.265 105.81 110.84 105.536 110.182C102.301 102.397 92.0471 81.4995 83.5833 78.3489C82.9328 78.1063 82.4862 77.505 82.444 76.8158C82.3983 76.1231 82.764 75.4726 83.3758 75.1455L91.7411 70.715C92.1561 70.497 92.6308 70.4513 93.0844 70.5884C94.1674 70.9225 119.654 78.9678 125.406 98.4974C125.579 99.0811 125.438 99.7105 125.034 100.164C124.633 100.618 124.021 100.829 123.423 100.727L112.322 98.8103L108.841 110.027C108.619 110.734 107.983 111.23 107.245 111.265C107.216 111.265 107.188 111.265 107.16 111.265ZM87.8978 76.7314C95.8517 82.3434 103.426 97.119 106.872 104.521L109.425 96.2961C109.685 95.4522 110.543 94.9353 111.404 95.083L121.05 96.7497C114.952 82.5439 96.4987 75.4901 92.7292 74.1786L87.8978 76.7314Z" fill="#4A3749"/>
<path d="M75.8303 72.2692C75.8303 72.2692 50.2316 80.1457 44.6758 98.9931L57.2993 96.813L61.2376 109.507C61.2376 109.507 73.1579 80.7083 84.1991 76.5943L75.8303 72.2692Z" fill="#BF8DF2"/>
<path d="M61.2376 111.265C61.213 111.265 61.1849 111.265 61.1567 111.265C60.4183 111.23 59.7783 110.738 59.5568 110.027L56.0757 98.8103L44.9712 100.727C44.3734 100.832 43.7651 100.618 43.3607 100.164C42.9563 99.7105 42.8157 99.081 42.988 98.4973C48.7442 78.9678 74.2304 70.9224 75.3134 70.5884C75.7494 70.4548 76.2276 70.497 76.639 70.7079L85.0079 75.033C85.6267 75.353 85.9959 76.007 85.9572 76.7033C85.9151 77.396 85.4685 78.0008 84.818 78.2434C76.3472 81.3975 66.1007 102.365 62.8657 110.182C62.5914 110.84 61.9479 111.265 61.2376 111.265ZM57.3029 95.0549C58.0589 95.0549 58.7481 95.5472 58.9801 96.2926L61.5295 104.51C64.9649 97.0943 72.525 82.2872 80.4718 76.647L75.6826 74.1715C71.9377 75.4761 53.456 82.5263 47.3517 96.7462L57.0005 95.0795C57.0989 95.0654 57.2009 95.0549 57.3029 95.0549Z" fill="#4A3749"/>
<path d="M84.1989 80.2161C92.9379 80.2161 100.022 74.706 100.022 67.909C100.022 61.112 92.9379 55.6019 84.1989 55.6019C75.4599 55.6019 68.3755 61.112 68.3755 67.909C68.3755 74.706 75.4599 80.2161 84.1989 80.2161Z" fill="#BF8DF2"/>
<path d="M84.1989 62.6345C90.5423 62.2442 96.4954 65.7148 99.2839 71.4253C99.741 70.3071 99.9907 69.1151 100.022 67.909C100.022 61.0873 92.9897 55.6019 84.1989 55.6019C75.4081 55.6019 68.3755 61.0873 68.3755 67.909C68.4071 69.1151 68.6568 70.3071 69.1139 71.4253C71.9024 65.7148 77.8555 62.2442 84.1989 62.6345Z" fill="#DABFF5"/>
<path d="M84.199 81.9742C74.5045 81.9742 66.6174 75.666 66.6174 67.909C66.6174 60.152 74.5045 53.8437 84.199 53.8437C93.8934 53.8437 101.781 60.152 101.781 67.909C101.781 75.666 93.8934 81.9742 84.199 81.9742ZM84.199 57.36C76.442 57.36 70.1337 62.093 70.1337 67.909C70.1337 73.7249 76.442 78.4579 84.199 78.4579C91.956 78.4579 98.2642 73.7249 98.2642 67.909C98.2642 62.093 91.956 57.36 84.199 57.36Z" fill="#4A3749"/>
</g>
<defs>
<clipPath id="clip0">
<rect width="144.64" height="144.64" fill="white" transform="translate(11.8787 42.2259)"/>
</clipPath>
</defs>
</svg>
