<svg enable-background="new 0 0 48 48" height="38" viewBox="0 0 48 48" width="38" xmlns="http://www.w3.org/2000/svg">
	<g>
		<g>
			<g><path d="m43 47.5h-38c-2.5 0-4.5-1.9-4.5-4.1v-9.8c0-1.1.9-2 2-2h43.1c1.1 0 2 .9 2 2v9.8c-.1 2.2-2.1 4.1-4.6 4.1zm-38.6-12v7.8s.2.2.6.2h38c.4 0 .6-.2.6-.3v-7.8h-39.2z" fill="#fff"/></g>
			<g><path d="m45.5 23.8h-43c-1.1 0-2-.9-2-2v-3.8c0-9.6 7.9-17.5 17.5-17.5h12c9.7 0 17.5 7.9 17.5 17.5v3.8c0 1.1-.9 2-2 2zm-41.1-4h39.2v-1.8c0-7.5-6.1-13.6-13.6-13.6h-12c-7.5 0-13.6 6.1-13.6 13.6z" fill="#fff"/></g>
		</g>
		<g><path d="m45.5 30h-43c-1.1 0-2-.9-2-2s.9-2 2-2h43.1c1.1 0 2 .9 2 2s-1 2-2.1 2z" fill="#fff"/></g>
	</g>
</svg>