<svg width="24" height="24" viewBox="0 0 24 24" fill="none" xmlns="http://www.w3.org/2000/svg">
<path d="M3 8.40002V21C3 21.2652 3.10536 21.5196 3.29289 21.7071C3.48043 21.8947 3.73478 22 4 22H20C20.2652 22 20.5196 21.8947 20.7071 21.7071C20.8946 21.5196 21 21.2652 21 21V8.40002C21.0001 8.23638 20.96 8.07523 20.8833 7.93069C20.8066 7.78616 20.6956 7.66265 20.56 7.57102L12.56 2.17102C12.3946 2.05924 12.1996 1.99951 12 1.99951C11.8004 1.99951 11.6054 2.05924 11.44 2.17102L3.44 7.57102C3.30443 7.66265 3.19342 7.78616 3.11671 7.93069C3.03999 8.07523 2.99992 8.23638 3 8.40002ZM14 20H10V14H14V20ZM5 8.93202L12 4.20702L19 8.93202V20H16V13C16 12.7348 15.8946 12.4804 15.7071 12.2929C15.5196 12.1054 15.2652 12 15 12H9C8.73478 12 8.48043 12.1054 8.29289 12.2929C8.10536 12.4804 8 12.7348 8 13V20H5V8.93202Z" fill="#4A3749"/>
</svg>
