<svg width="24" height="24" viewBox="0 0 24 24" fill="none" xmlns="http://www.w3.org/2000/svg">
<path d="M18 1H6C5.20435 1 4.44129 1.31607 3.87868 1.87868C3.31607 2.44129 3 3.20435 3 4V22C3.00004 22.1978 3.05871 22.391 3.1686 22.5555C3.27848 22.7199 3.43465 22.848 3.61735 22.9237C3.80005 22.9993 4.00108 23.0192 4.19503 22.9806C4.38898 22.942 4.56715 22.8468 4.707 22.707L6.845 20.57L8.168 22.554C8.24932 22.678 8.35719 22.7823 8.48379 22.8594C8.61039 22.9365 8.75256 22.9846 8.9 23C9.04735 23.0156 9.19634 22.9979 9.33588 22.948C9.47542 22.8982 9.60193 22.8175 9.706 22.712L12 20.414L14.293 22.707C14.3977 22.8116 14.5242 22.8916 14.6635 22.9413C14.8029 22.9911 14.9515 23.0093 15.0987 22.9947C15.2459 22.98 15.388 22.9329 15.5149 22.8567C15.6417 22.7805 15.75 22.6771 15.832 22.554L17.155 20.57L19.293 22.707C19.4329 22.8468 19.611 22.942 19.805 22.9806C19.9989 23.0192 20.2 22.9993 20.3827 22.9237C20.5654 22.848 20.7215 22.7199 20.8314 22.5555C20.9413 22.391 21 22.1978 21 22V4C21 3.20435 20.6839 2.44129 20.1213 1.87868C19.5587 1.31607 18.7956 1 18 1ZM19 19.586L17.707 18.293C17.603 18.1874 17.4765 18.1066 17.337 18.0568C17.1974 18.0069 17.0484 17.9892 16.901 18.005C16.7539 18.0196 16.6119 18.0666 16.4851 18.1427C16.3584 18.2188 16.2501 18.322 16.168 18.445L14.845 20.43L12.707 18.293C12.5195 18.1055 12.2652 18.0002 12 18.0002C11.7348 18.0002 11.4805 18.1055 11.293 18.293L9.155 20.43L7.832 18.445C7.7499 18.322 7.64151 18.2187 7.51467 18.1425C7.38782 18.0664 7.24567 18.0194 7.09846 18.0049C6.95125 17.9903 6.80265 18.0086 6.66337 18.0585C6.52408 18.1083 6.39759 18.1884 6.293 18.293L5 19.586V4C5 3.73478 5.10536 3.48043 5.29289 3.29289C5.48043 3.10536 5.73478 3 6 3H18C18.2652 3 18.5196 3.10536 18.7071 3.29289C18.8946 3.48043 19 3.73478 19 4V19.586Z" fill="#BDBDBD"/>
<path d="M12 10H8C7.73478 10 7.48043 10.1054 7.29289 10.2929C7.10536 10.4804 7 10.7348 7 11C7 11.2652 7.10536 11.5196 7.29289 11.7071C7.48043 11.8946 7.73478 12 8 12H12C12.2652 12 12.5196 11.8946 12.7071 11.7071C12.8946 11.5196 13 11.2652 13 11C13 10.7348 12.8946 10.4804 12.7071 10.2929C12.5196 10.1054 12.2652 10 12 10Z" fill="#BDBDBD"/>
<path d="M12 14H8C7.73478 14 7.48043 14.1054 7.29289 14.2929C7.10536 14.4804 7 14.7348 7 15C7 15.2652 7.10536 15.5196 7.29289 15.7071C7.48043 15.8947 7.73478 16 8 16H12C12.2652 16 12.5196 15.8947 12.7071 15.7071C12.8946 15.5196 13 15.2652 13 15C13 14.7348 12.8946 14.4804 12.7071 14.2929C12.5196 14.1054 12.2652 14 12 14Z" fill="#BDBDBD"/>
<path d="M16 10H15C14.7348 10 14.4804 10.1054 14.2929 10.2929C14.1054 10.4804 14 10.7348 14 11C14 11.2652 14.1054 11.5196 14.2929 11.7071C14.4804 11.8946 14.7348 12 15 12H16C16.2652 12 16.5196 11.8946 16.7071 11.7071C16.8946 11.5196 17 11.2652 17 11C17 10.7348 16.8946 10.4804 16.7071 10.2929C16.5196 10.1054 16.2652 10 16 10Z" fill="#BDBDBD"/>
<path d="M16 14H15C14.7348 14 14.4804 14.1054 14.2929 14.2929C14.1054 14.4804 14 14.7348 14 15C14 15.2652 14.1054 15.5196 14.2929 15.7071C14.4804 15.8947 14.7348 16 15 16H16C16.2652 16 16.5196 15.8947 16.7071 15.7071C16.8946 15.5196 17 15.2652 17 15C17 14.7348 16.8946 14.4804 16.7071 14.2929C16.5196 14.1054 16.2652 14 16 14Z" fill="#BDBDBD"/>
<path d="M16 5H8C7.73478 5 7.48043 5.10536 7.29289 5.29289C7.10536 5.48043 7 5.73478 7 6C7 6.26521 7.10536 6.51957 7.29289 6.7071C7.48043 6.89464 7.73478 7 8 7H16C16.2652 7 16.5196 6.89464 16.7071 6.7071C16.8946 6.51957 17 6.26521 17 6C17 5.73478 16.8946 5.48043 16.7071 5.29289C16.5196 5.10536 16.2652 5 16 5Z" fill="#BDBDBD"/>
</svg>
