<svg width="24" height="24" viewBox="0 0 24 24" fill="none" xmlns="http://www.w3.org/2000/svg">
<path d="M11.9993 5.48404C9.59314 5.48404 7.64258 7.4346 7.64258 9.84075C7.64258 12.2469 9.59314 14.1975 11.9993 14.1975C14.4054 14.1975 16.356 12.2469 16.356 9.84075C16.356 7.4346 14.4054 5.48404 11.9993 5.48404ZM11.9993 12.0191C10.7962 12.0191 9.82096 11.0438 9.82096 9.84075C9.82096 8.6377 10.7962 7.66242 11.9993 7.66242C13.2023 7.66242 14.1776 8.6377 14.1776 9.84075C14.1776 11.0438 13.2023 12.0191 11.9993 12.0191Z" fill="#4A3749"/>
<path d="M21.793 9.81896C21.8074 4.41054 17.4348 0.0144869 12.0264 5.09008e-05C6.61797 -0.0143851 2.22191 4.35827 2.20748 9.76664C2.16044 15.938 5.85106 21.5248 11.546 23.903C11.6884 23.9674 11.8429 24.0005 11.9991 24C12.1565 24.0002 12.3121 23.9668 12.4555 23.9019C18.1324 21.5313 21.8191 15.9709 21.793 9.81896ZM11.9992 21.7127C7.30495 19.646 4.30485 14.9691 4.38364 9.84071C4.38364 5.63477 7.79323 2.22518 11.9992 2.22518C16.2051 2.22518 19.6147 5.63477 19.6147 9.84071V9.91152C19.6686 15.0154 16.672 19.6591 11.9992 21.7127Z" fill="#4A3749"/>
</svg>
