<?xml version="1.0"?>
<svg xmlns="http://www.w3.org/2000/svg" xmlns:xlink="http://www.w3.org/1999/xlink" xmlns:svgjs="http://svgjs.com/svgjs" version="1.1" width="512" height="512" x="0" y="0" viewBox="0 0 512 512" style="enable-background:new 0 0 512 512" xml:space="preserve" class=""><g><g xmlns="http://www.w3.org/2000/svg"><path d="m433.609 152.564c1.742.696 2.484 2.064 2.77 2.818.286.753.642 2.268-.198 3.947l-16.12 35.271 27.396 12.512 15.796-34.587c4.245-8.679 4.712-18.809 1.276-27.847-3.472-9.132-10.666-16.45-19.736-20.078-2.257-.902-3.494-3.312-2.974-5.638l8.689-19.358-27.475-12.334-9.412 20.969-.239.717c-5.857 17.572 3.027 36.728 20.227 43.608z" fill="#ffffff" data-original="#000000" style=""/><path d="m323.205 65.725c1.743.697 2.485 2.065 2.771 2.818s.642 2.268-.198 3.947l-16.121 35.272 27.396 12.512 15.796-34.585c4.245-8.679 4.713-18.81 1.277-27.849-3.473-9.133-10.666-16.45-19.736-20.077-2.258-.903-3.496-3.313-2.974-5.638l8.688-19.359-27.476-12.335-9.411 20.968-.239.716c-5.857 17.573 3.026 36.728 20.227 43.61z" fill="#ffffff" data-original="#000000" style=""/><path d="m177.609 65.725c1.742.696 2.484 2.064 2.77 2.818.286.753.642 2.268-.198 3.947l-16.12 35.271 27.396 12.512 15.796-34.587c4.245-8.679 4.712-18.809 1.276-27.847-3.472-9.132-10.666-16.45-19.736-20.078-2.257-.902-3.494-3.312-2.974-5.638l8.689-19.358-27.476-12.334-9.411 20.969-.239.717c-5.857 17.572 3.027 36.728 20.227 43.608z" fill="#ffffff" data-original="#000000" style=""/><path d="m67.205 147.042c1.743.697 2.485 2.065 2.771 2.818s.642 2.268-.198 3.947l-16.121 35.271 27.396 12.512 15.796-34.585c4.245-8.679 4.713-18.81 1.277-27.849-3.473-9.133-10.666-16.45-19.736-20.077-2.258-.903-3.496-3.313-2.974-5.638l8.688-19.359-27.476-12.334-9.411 20.968-.239.716c-5.857 17.574 3.026 36.729 20.227 43.61z" fill="#ffffff" data-original="#000000" style=""/><path d="m481.376 421.216c-3.575-54.667-26.56-105.569-65.654-144.664-31.809-31.809-71.436-52.956-114.546-61.66v-19.558c0-24.91-20.266-45.176-45.176-45.176-24.911 0-45.176 20.266-45.176 45.176v19.558c-43.109 8.704-82.737 29.851-114.546 61.66-39.094 39.094-62.08 89.998-65.653 144.664h-30.625v90.353h512v-90.353zm-240.435-210.319v-15.563c0-8.303 6.754-15.059 15.059-15.059 8.303 0 15.059 6.755 15.059 15.059v15.563c-9.609-.687-19.674-.647-30.118 0zm41.502 31.406c90.595 12.288 161.706 86.776 168.748 178.914h-390.382c7.043-92.138 78.153-166.625 168.748-178.914 17.615-2.088 35.243-2.17 52.886 0zm199.439 239.149h-451.764v-30.118h451.765v30.118z" fill="#ffffff" data-original="#000000" style=""/></g></g></svg>
