<?xml version="1.0"?>
<svg xmlns="http://www.w3.org/2000/svg" id="Icons" viewBox="0 0 24 24" width="512" height="512"><path d="M22.029,5.994,20.97,1.758A1,1,0,0,0,20,1H4a1,1,0,0,0-.97.758L1.971,5.994A4,4,0,0,0,2.7,9.45a4.033,4.033,0,0,0,.3.3V22a1,1,0,0,0,1,1H20a1,1,0,0,0,1-1V9.753a4.033,4.033,0,0,0,.3-.3A4,4,0,0,0,22.029,5.994ZM10,6l.251-3h3.492L14,6l.066.8A2.027,2.027,0,0,1,12.042,9h-.084A2.027,2.027,0,0,1,9.937,6.8ZM4.28,8.22a2.016,2.016,0,0,1-.369-1.741L4.781,3H8.247L7.9,7.14A2.041,2.041,0,0,1,5.879,9,2.015,2.015,0,0,1,4.28,8.22ZM13,21H11V16h2Zm6,0H15V15a1,1,0,0,0-1-1H10a1,1,0,0,0-1,1v6H5V10.9A3.953,3.953,0,0,0,8.911,9.589c.03.035.051.076.083.11A4.04,4.04,0,0,0,11.958,11h.084a4.04,4.04,0,0,0,2.964-1.3c.032-.034.053-.075.083-.11A3.953,3.953,0,0,0,19,10.9Zm.72-12.78a2.015,2.015,0,0,1-1.6.78A2.041,2.041,0,0,1,16.1,7.14L15.753,3h3.466l.87,3.479A2.016,2.016,0,0,1,19.72,8.22Z"/></svg>
