<svg id="Capa_1" enable-background="new 0 0 512 512" height="512" viewBox="0 0 512 512" width="512" xmlns="http://www.w3.org/2000/svg"><g><g><g><circle cx="131.34" cy="235.952" fill="#ee596b" r="66.909"/><path d="m141.925 302.029c-3.45.548-6.981.835-10.582.835-36.954 0-66.912-29.958-66.912-66.912s29.958-66.905 66.912-66.905c3.6 0 7.132.287 10.582.835-31.923 5.072-56.324 32.717-56.324 66.07s24.401 61.005 56.324 66.077z" fill="#ed3a4f"/></g><path d="m467.556 499.665c-.021.362-.043.724-.085 1.085h-143.627c-.043-.362-.064-.723-.085-1.085-3.319-68.143-3.319-136.275 0-204.417.745-15.267 12.458-27.693 27.629-29.587 29.513-3.692 59.025-3.692 88.548 0 15.171 1.894 26.874 14.32 27.619 29.587 3.32 68.142 3.32 136.274.001 204.417z" fill="#f9da41"/><path d="m363.485 264.352c-6.756 5.82-11.16 14.49-11.607 24.278-3.245 70.696-3.33 141.403-.234 212.12h-27.8c-.043-.362-.064-.723-.085-1.085-3.319-68.143-3.319-136.275 0-204.417.745-15.267 12.458-27.683 27.619-29.587 4.043-.511 8.064-.947 12.107-1.309z" fill="#edc932"/><path d="m203.752 500.75h-144.829c-2.628-43.545-2.628-87.101 0-130.647.936-15.49 13.129-27.949 28.587-29.321 29.215-2.596 58.44-2.596 87.665 0 15.458 1.372 27.64 13.831 28.576 29.321 2.639 43.546 2.639 87.102.001 130.647z" fill="#ee596b"/><path d="m101.66 339.74c-8.33 5.564-13.99 15.161-14.618 26.182-2.564 44.939-2.639 89.889-.224 134.828h-27.895c-2.628-43.545-2.628-87.091 0-130.647.947-15.49 13.129-27.949 28.587-29.321 4.713-.425 9.426-.766 14.15-1.042z" fill="#ed3a4f"/><path d="m331.036 498.261c-.032.84-.096 1.67-.202 2.489h-142.626c-.106-.819-.17-1.649-.202-2.489-3.83-99.698-3.83-199.396 0-299.083.564-14.777 11.341-27.214 25.906-29.768 30.406-5.33 60.802-5.33 91.208 0 14.565 2.553 25.342 14.99 25.917 29.768 3.829 99.687 3.829 199.385-.001 299.083z" fill="#78d0b1"/><path d="m235.424 166.526c-11.118 4.745-18.831 15.82-19.299 28.587-3.809 101.879-3.83 203.747-.053 305.637h-27.863c-.106-.83-.17-1.66-.202-2.5-3.83-99.698-3.83-199.385 0-299.073.575-14.788 11.352-27.225 25.927-29.768 7.159-1.255 14.33-2.223 21.49-2.883z" fill="#66b49d"/><g><circle cx="395.66" cy="164.998" fill="#f9da41" r="66.909"/><path d="m406.246 231.075c-3.45.548-6.981.835-10.582.835-36.954 0-66.912-29.958-66.912-66.912s29.958-66.905 66.912-66.905c3.6 0 7.132.287 10.582.835-31.923 5.072-56.324 32.717-56.324 66.07s24.401 61.005 56.324 66.077z" fill="#edc932"/></g></g><g><circle cx="261.599" cy="70.659" fill="#78d0b1" r="66.909"/><path d="m272.185 136.736c-3.45.548-6.981.835-10.582.835-36.954 0-66.912-29.958-66.912-66.912s29.958-66.905 66.912-66.905c3.6 0 7.132.287 10.582.835-31.923 5.072-56.324 32.717-56.324 66.07s24.401 61.005 56.324 66.077z" fill="#66b49d"/><g fill="#21386b"><ellipse cx="161.602" cy="220.53" rx="9.658" ry="16.013"/><path d="m101.078 236.542c5.325 0 9.657-7.183 9.657-16.013s-4.332-16.013-9.657-16.013-9.658 7.184-9.658 16.014 4.333 16.012 9.658 16.012z"/><path d="m131.338 239.383c-13.518 0-26.239 6.616-34.031 17.698-2.382 3.388-1.567 8.066 1.822 10.449 1.312.922 2.816 1.365 4.307 1.365 2.359 0 4.682-1.11 6.142-3.187 4.986-7.091 13.121-11.325 21.76-11.325 8.648 0 16.782 4.232 21.757 11.32 2.38 3.391 7.058 4.21 10.447 1.83 3.391-2.379 4.21-7.057 1.83-10.447-7.78-11.086-20.503-17.703-34.034-17.703z"/><path d="m424.317 176.714h-57.314c-4.143 0-7.5 3.358-7.5 7.5s3.357 7.5 7.5 7.5h57.314c4.143 0 7.5-3.358 7.5-7.5s-3.357-7.5-7.5-7.5z"/><path d="m425.922 165.588c5.325 0 9.658-7.183 9.658-16.013s-4.333-16.013-9.658-16.013-9.657 7.183-9.657 16.013 4.332 16.013 9.657 16.013z"/><ellipse cx="365.398" cy="149.576" rx="9.657" ry="16.013"/><ellipse cx="291.861" cy="55.236" rx="9.657" ry="16.013"/><path d="m231.337 71.249c5.325 0 9.658-7.183 9.658-16.013 0-8.829-4.333-16.013-9.658-16.013s-9.657 7.183-9.657 16.013 4.332 16.013 9.657 16.013z"/><path d="m295.918 79.994c-3.817-1.609-8.216.18-9.825 3.997-4.165 9.879-13.779 16.263-24.493 16.263s-20.328-6.383-24.494-16.262c-1.609-3.816-6.006-5.607-9.824-3.997-3.817 1.609-5.606 6.008-3.997 9.825 6.514 15.451 21.554 25.435 38.315 25.435s31.8-9.984 38.315-25.435c1.609-3.818-.181-8.216-3.997-9.826z"/></g></g><path d="m504.5 508.25h-497c-4.142 0-7.5-3.358-7.5-7.5s3.358-7.5 7.5-7.5h497c4.143 0 7.5 3.358 7.5 7.5s-3.357 7.5-7.5 7.5z" fill="#21386b"/></g></svg>