<svg width="28" height="28" viewBox="0 0 28 28" fill="none" xmlns="http://www.w3.org/2000/svg">
<path d="M27.4875 15.2374L21.2871 21.4378C20.9454 21.7795 20.4975 21.9504 20.0496 21.9504C19.6018 21.9504 19.1539 21.7795 18.8122 21.4378C18.1288 20.7543 18.1288 19.6463 18.8122 18.9629L22.0251 15.75H1.75C0.783508 15.75 0 14.9665 0 14C0 13.0335 0.783508 12.25 1.75 12.25H22.0251L18.8122 9.03711C18.1288 8.35368 18.1288 7.24565 18.8122 6.56222C19.4957 5.87879 20.6036 5.87879 21.2871 6.56222L27.4875 12.7626C28.1708 13.446 28.1708 14.554 27.4875 15.2374Z" fill="#4A3749"/>
</svg>
