<svg width="24" height="24" viewBox="0 0 24 24" fill="none" xmlns="http://www.w3.org/2000/svg">
<path d="M12 8C11.2089 8 10.4355 8.2346 9.77772 8.67412C9.11993 9.11365 8.60723 9.73836 8.30448 10.4693C8.00173 11.2002 7.92252 12.0044 8.07686 12.7804C8.2312 13.5563 8.61216 14.269 9.17157 14.8284C9.73098 15.3878 10.4437 15.7688 11.2196 15.9231C11.9956 16.0775 12.7998 15.9983 13.5307 15.6955C14.2616 15.3928 14.8864 14.8801 15.3259 14.2223C15.7654 13.5645 16 12.7911 16 12C16 10.9391 15.5786 9.92172 14.8284 9.17157C14.0783 8.42143 13.0609 8 12 8ZM12 14C11.6044 14 11.2178 13.8827 10.8889 13.6629C10.56 13.4432 10.3036 13.1308 10.1522 12.7654C10.0009 12.3999 9.96126 11.9978 10.0384 11.6098C10.1156 11.2219 10.3061 10.8655 10.5858 10.5858C10.8655 10.3061 11.2219 10.1156 11.6098 10.0384C11.9978 9.96126 12.3999 10.0009 12.7654 10.1522C13.1308 10.3036 13.4432 10.56 13.6629 10.8889C13.8827 11.2178 14 11.6044 14 12C14 12.5304 13.7893 13.0391 13.4142 13.4142C13.0391 13.7893 12.5304 14 12 14Z" fill="#BDBDBD"/>
<path d="M20.991 9H19.434L19.369 8.871L20.479 7.761C20.855 7.38369 21.0662 6.8727 21.0662 6.34C21.0662 5.8073 20.855 5.29631 20.479 4.919L19.079 3.519C18.6963 3.15334 18.1873 2.94928 17.658 2.94928C17.1287 2.94928 16.6197 3.15334 16.237 3.519L15.137 4.619L15 4.58V3.009C14.9995 2.47634 14.7876 1.96565 14.411 1.58901C14.0343 1.21236 13.5237 1.00053 12.991 1H11.009C10.4763 1.00053 9.96565 1.21236 9.58901 1.58901C9.21236 1.96565 9.00053 2.47634 9 3.009V4.587C8.978 4.595 8.9 4.622 8.877 4.631L7.764 3.522C7.38128 3.15634 6.87233 2.95228 6.343 2.95228C5.81367 2.95228 5.30472 3.15634 4.922 3.522L3.522 4.922C3.14596 5.29931 2.93481 5.8103 2.93481 6.343C2.93481 6.8757 3.14596 7.38669 3.522 7.764L4.622 8.907C4.622 8.916 4.582 8.991 4.579 9H3.009C2.47634 9.00053 1.96565 9.21236 1.58901 9.58901C1.21236 9.96565 1.00053 10.4763 1 11.009V12.991C1.00053 13.5237 1.21236 14.0343 1.58901 14.411C1.96565 14.7876 2.47634 14.9995 3.009 15H4.566L4.631 15.129L3.521 16.239C3.14496 16.6163 2.93381 17.1273 2.93381 17.66C2.93381 18.1927 3.14496 18.7037 3.521 19.081L4.921 20.481C5.29844 20.8568 5.80938 21.0678 6.342 21.0678C6.87462 21.0678 7.38556 20.8568 7.763 20.481L8.906 19.381C8.915 19.381 8.99 19.421 8.999 19.424V20.995C9.00059 21.5271 9.21302 22.037 9.58977 22.4128C9.96652 22.7886 10.4769 22.9997 11.009 23H12.991C13.5237 22.9995 14.0343 22.7876 14.411 22.411C14.7876 22.0343 14.9995 21.5237 15 20.991V19.434L15.129 19.369L16.239 20.479C16.6164 20.8548 17.1274 21.0658 17.66 21.0658C18.1926 21.0658 18.7036 20.8548 19.081 20.479L20.481 19.079C20.857 18.7017 21.0682 18.1907 21.0682 17.658C21.0682 17.1253 20.857 16.6143 20.481 16.237L19.381 15.094C19.381 15.085 19.421 15.01 19.424 15.001H20.995C21.5271 14.9994 22.037 14.787 22.4128 14.4102C22.7886 14.0335 22.9997 13.5231 23 12.991V11.009C22.9995 10.4763 22.7876 9.96565 22.411 9.58901C22.0343 9.21236 21.5237 9.00053 20.991 9ZM20.991 13H19.42C19.0154 13.0121 18.6229 13.1408 18.2898 13.3708C17.9566 13.6007 17.697 13.922 17.5422 14.296C17.3875 14.6701 17.3441 15.0809 17.4173 15.479C17.4905 15.8771 17.6773 16.2455 17.955 16.54L19.064 17.664L17.65 19.064L16.54 17.955C16.2455 17.6773 15.8771 17.4905 15.479 17.4173C15.0809 17.3441 14.6701 17.3875 14.296 17.5422C13.922 17.697 13.6007 17.9566 13.3708 18.2898C13.1408 18.6229 13.0121 19.0154 13 19.42L12.991 21L11 20.991V19.42C10.995 19.0119 10.8679 18.6147 10.6351 18.2794C10.4024 17.9442 10.0746 17.6863 9.694 17.539C9.43502 17.4314 9.15744 17.3757 8.877 17.375C8.61429 17.3739 8.35393 17.4245 8.1108 17.524C7.86767 17.6236 7.64652 17.77 7.46 17.955L6.336 19.064L4.936 17.65L6.045 16.54C6.32275 16.2455 6.50947 15.8771 6.5827 15.479C6.65593 15.0809 6.61254 14.6701 6.45775 14.296C6.30297 13.922 6.04338 13.6007 5.71024 13.3708C5.3771 13.1408 4.98461 13.0121 4.58 13L3 12.991L3.009 11H4.58C4.98461 10.9879 5.3771 10.8592 5.71024 10.6292C6.04338 10.3993 6.30297 10.078 6.45775 9.70395C6.61254 9.32993 6.65593 8.91914 6.5827 8.52103C6.50947 8.12292 6.32275 7.75446 6.045 7.46L4.936 6.336L6.35 4.936L7.46 6.045C7.75446 6.32275 8.12292 6.50947 8.52103 6.5827C8.91914 6.65593 9.32993 6.61254 9.70395 6.45775C10.078 6.30297 10.3993 6.04338 10.6292 5.71024C10.8592 5.3771 10.9879 4.98461 11 4.58L11.009 3L13 3.009V4.58C13.0121 4.98461 13.1408 5.3771 13.3708 5.71024C13.6007 6.04338 13.922 6.30297 14.296 6.45775C14.6701 6.61254 15.0809 6.65593 15.479 6.5827C15.8771 6.50947 16.2455 6.32275 16.54 6.045L17.664 4.936L19.064 6.35L17.955 7.46C17.6773 7.75446 17.4905 8.12292 17.4173 8.52103C17.3441 8.91914 17.3875 9.32993 17.5422 9.70395C17.697 10.078 17.9566 10.3993 18.2898 10.6292C18.6229 10.8592 19.0154 10.9879 19.42 11H20.991L21 11.009L20.991 13Z" fill="#BDBDBD"/>
</svg>
