<svg width="16" height="16" viewBox="0 0 16 16" fill="none" xmlns="http://www.w3.org/2000/svg">
<path d="M14.43 5.84598L10.552 5.27932L8.60004 1.36865C8.53844 1.26533 8.45107 1.17978 8.34648 1.12037C8.24189 1.06096 8.12366 1.02972 8.00338 1.02972C7.88309 1.02972 7.76486 1.06096 7.66027 1.12037C7.55568 1.17978 7.46831 1.26533 7.40671 1.36865L5.44804 5.27932L1.57004 5.84598C1.44247 5.86472 1.32308 5.92005 1.22631 6.00526C1.12955 6.09047 1.05957 6.20192 1.02486 6.32609C0.990146 6.45027 0.992187 6.58185 1.03073 6.70489C1.06928 6.82793 1.14268 6.93715 1.24204 7.01932L4.44538 9.66132L3.43538 14.188C3.40586 14.3199 3.41715 14.4577 3.46773 14.583C3.51832 14.7084 3.60582 14.8154 3.71863 14.8899C3.83144 14.9644 3.96422 15.0028 4.09937 15.0001C4.23452 14.9974 4.36566 14.9536 4.47537 14.8747L8.00004 12.3393L11.5247 14.8727C11.6344 14.9516 11.7656 14.9954 11.9007 14.9981C12.0359 15.0008 12.1686 14.9624 12.2815 14.8879C12.3943 14.8134 12.4818 14.7064 12.5324 14.581C12.5829 14.4557 12.5942 14.3179 12.5647 14.186L11.5547 9.65932L14.758 7.01732C14.8574 6.93515 14.9308 6.82593 14.9693 6.70289C15.0079 6.57985 15.0099 6.44827 14.9752 6.32409C14.9405 6.19992 14.8705 6.08847 14.7738 6.00326C14.677 5.91805 14.5576 5.86272 14.43 5.84398V5.84598ZM10.3907 8.89332C10.2959 8.97167 10.2246 9.07473 10.1847 9.1911C10.1448 9.30747 10.1379 9.4326 10.1647 9.55265L10.882 12.77L8.38938 10.9773C8.27596 10.8957 8.13976 10.8518 8.00004 10.8518C7.86032 10.8518 7.72413 10.8957 7.61071 10.9773L5.11804 12.77L5.83538 9.55265C5.8622 9.4326 5.85529 9.30747 5.8154 9.1911C5.77551 9.07473 5.70421 8.97167 5.60938 8.89332L3.25071 6.94798L5.98404 6.54798C6.09033 6.53249 6.1913 6.49154 6.27835 6.42863C6.36541 6.36572 6.43597 6.2827 6.48404 6.18665L8.00004 3.15665L9.51471 6.18665C9.56278 6.2827 9.63334 6.36572 9.7204 6.42863C9.80746 6.49154 9.90842 6.53249 10.0147 6.54798L12.748 6.94798L10.3907 8.89332Z" fill="#464646"/>
</svg>
