<svg width="16" height="16" viewBox="0 0 16 16" fill="none" xmlns="http://www.w3.org/2000/svg">
<path d="M7.98806 15.7658C8.30048 16.0781 8.80688 16.0781 9.11926 15.7658L15.7657 9.1201C16.078 8.80768 16.078 8.30128 15.7657 7.98889L8.01208 0.234418C7.86207 0.0843767 7.65863 6.93032e-05 7.44646 0H0.800002C0.358159 0 0 0.358159 0 0.800002V7.44646C3.46516e-05 7.65863 0.0843767 7.86207 0.234418 8.01208L7.98806 15.7658ZM1.6 1.6H7.11526L14.0689 8.55368L8.55368 14.0689L1.6 7.11526V1.6Z" fill="#4A3749"/>
<path d="M4.12324 4.12324C3.5115 4.73494 3.5115 5.72674 4.1232 6.33848C4.73491 6.95022 5.72671 6.95022 6.33845 6.33851C6.95019 5.72681 6.95019 4.73501 6.33848 4.12327C6.33848 4.12327 6.33848 4.12327 6.33845 4.12324C5.72733 3.51153 4.73605 3.51101 4.12435 4.12213C4.124 4.12251 4.12362 4.12289 4.12324 4.12324Z" fill="#4A3749"/>
</svg>
