<svg enable-background="new 0 0 48 48" height="38" viewBox="0 0 48 48" width="38" xmlns="http://www.w3.org/2000/svg">
	<g>
		<g>
			<g><path d="m30.1 47.5h-21.8c-.9 0-1.7-.7-1.9-1.6l-5.9-30.5c-.1-.6 0-1.2.4-1.6.4-.5.9-.7 1.5-.7h33.5c.6 0 1.1.3 1.5.7s.5 1 .4 1.6l-5.8 30.5c-.2.9-1 1.6-1.9 1.6zm-20.2-3.9h18.6l5.1-26.6h-28.8z" fill="#fff"/></g>
			<g><path d="m31.3 42.3c-.5 0-1.1-.2-1.5-.7-.7-.8-.6-2.1.2-2.8 3.9-3.4 6.1-5.5 9-8.2 1-.9 2-1.9 3.2-3 1.8-1.7 1.4-3.4.9-4.2-.9-1.7-3.3-3.1-6.5-2.4-1.1.2-2.1-.4-2.3-1.5s.4-2.1 1.5-2.3c4.5-1 8.9.9 10.8 4.5 1.6 3 .9 6.4-1.8 8.9-1.2 1.1-2.2 2.1-3.2 3-2.8 2.6-5.2 4.9-9.1 8.3-.3.2-.7.4-1.2.4z" fill="#fff"/></g>
		</g>
		<g><path d="m9.3 10.1c-1.1 0-2-.9-2-2v-5.6c0-1.1.9-2 2-2s2 .9 2 2v5.7c-.1 1-.9 1.9-2 1.9z" fill="#fff"/></g>
		<g><path d="m18.1 10.1c-1.1 0-2-.9-2-2v-5.6c0-1.1.9-2 2-2s2 .9 2 2v5.7c-.1 1-.9 1.9-2 1.9z" fill="#fff"/></g>
		<g><path d="m26.9 10.1c-1.1 0-2-.9-2-2v-5.6c0-1.1.9-2 2-2s2 .9 2 2v5.7c-.1 1-.9 1.9-2 1.9z" fill="#fff"/></g>
	</g>
</svg>