<?xml version="1.0" encoding="UTF-8" standalone="no"?>
<!DOCTYPE svg PUBLIC "-//W3C//DTD SVG 1.1//EN"
 "http://www.w3.org/Graphics/SVG/1.1/DTD/svg11.dtd">
<!-- Generated by graphviz version 2.47.0 (20210316.0004)
 -->
<!-- Title: dbml Pages: 1 -->
<svg width="528pt" height="608pt"
 viewBox="0.00 0.00 528.43 607.63" xmlns="http://www.w3.org/2000/svg" xmlns:xlink="http://www.w3.org/1999/xlink">
<g id="graph0" class="graph" transform="scale(1 1) rotate(0) translate(4 603.63)">
<title>dbml</title>
<!-- quotes -->
<g id="quotes" class="node">
<title>quotes</title>
<ellipse fill="none" stroke="black" stroke-width="0" cx="260.22" cy="-299.81" rx="260.43" ry="299.63"/>
<polygon fill="#1d71b8" stroke="transparent" points="78.22,-449.81 78.22,-509.81 442.22,-509.81 442.22,-449.81 78.22,-449.81"/>
<polygon fill="none" stroke="#29235c" points="78.22,-449.81 78.22,-509.81 442.22,-509.81 442.22,-449.81 78.22,-449.81"/>
<text text-anchor="start" x="149.94" y="-471.01" font-family="Helvetica,sans-Serif" font-weight="bold" font-size="32.00" fill="#ffffff"> &#160;&#160;&#160;&#160;&#160;&#160;quotes &#160;&#160;&#160;&#160;&#160;&#160;</text>
<polygon fill="#e7e2dd" stroke="transparent" points="78.22,-389.81 78.22,-449.81 442.22,-449.81 442.22,-389.81 78.22,-389.81"/>
<polygon fill="none" stroke="#29235c" points="78.22,-389.81 78.22,-449.81 442.22,-449.81 442.22,-389.81 78.22,-389.81"/>
<text text-anchor="start" x="89.22" y="-411.01" font-family="Helvetica,sans-Serif" font-weight="bold" font-size="32.00" fill="#29235c">id</text>
<text text-anchor="start" x="114.1" y="-411.01" font-family="Helvetica,sans-Serif" font-size="32.00" fill="#29235c"> &#160;&#160;&#160;</text>
<text text-anchor="start" x="333.41" y="-411.01" font-family="Helvetica,sans-Serif" font-style="italic" font-size="32.00" fill="#29235c">integer</text>
<polygon fill="#e7e2dd" stroke="transparent" points="78.22,-329.81 78.22,-389.81 442.22,-389.81 442.22,-329.81 78.22,-329.81"/>
<polygon fill="none" stroke="#29235c" points="78.22,-329.81 78.22,-389.81 442.22,-389.81 442.22,-329.81 78.22,-329.81"/>
<text text-anchor="start" x="89.22" y="-350.01" font-family="Helvetica,sans-Serif" font-size="32.00" fill="#29235c">quote &#160;&#160;&#160;</text>
<text text-anchor="start" x="379.64" y="-351.01" font-family="Helvetica,sans-Serif" font-style="italic" font-size="32.00" fill="#29235c">text</text>
<polygon fill="#e7e2dd" stroke="transparent" points="78.22,-269.81 78.22,-329.81 442.22,-329.81 442.22,-269.81 78.22,-269.81"/>
<polygon fill="none" stroke="#29235c" points="78.22,-269.81 78.22,-329.81 442.22,-329.81 442.22,-269.81 78.22,-269.81"/>
<text text-anchor="start" x="89.22" y="-290.01" font-family="Helvetica,sans-Serif" font-size="32.00" fill="#29235c">author &#160;&#160;&#160;</text>
<text text-anchor="start" x="352.99" y="-291.01" font-family="Helvetica,sans-Serif" font-style="italic" font-size="32.00" fill="#29235c">string</text>
<polygon fill="#e7e2dd" stroke="transparent" points="78.22,-209.81 78.22,-269.81 442.22,-269.81 442.22,-209.81 78.22,-209.81"/>
<polygon fill="none" stroke="#29235c" points="78.22,-209.81 78.22,-269.81 442.22,-269.81 442.22,-209.81 78.22,-209.81"/>
<text text-anchor="start" x="89.22" y="-230.01" font-family="Helvetica,sans-Serif" font-size="32.00" fill="#29235c">source &#160;&#160;&#160;</text>
<text text-anchor="start" x="352.99" y="-231.01" font-family="Helvetica,sans-Serif" font-style="italic" font-size="32.00" fill="#29235c">string</text>
<polygon fill="#e7e2dd" stroke="transparent" points="78.22,-149.81 78.22,-209.81 442.22,-209.81 442.22,-149.81 78.22,-149.81"/>
<polygon fill="none" stroke="#29235c" points="78.22,-149.81 78.22,-209.81 442.22,-209.81 442.22,-149.81 78.22,-149.81"/>
<text text-anchor="start" x="89.22" y="-170.01" font-family="Helvetica,sans-Serif" font-size="32.00" fill="#29235c">inserted_at &#160;&#160;&#160;</text>
<text text-anchor="start" x="283.66" y="-171.01" font-family="Helvetica,sans-Serif" font-style="italic" font-size="32.00" fill="#29235c">timestamp</text>
<polygon fill="#e7e2dd" stroke="transparent" points="78.22,-89.81 78.22,-149.81 442.22,-149.81 442.22,-89.81 78.22,-89.81"/>
<polygon fill="none" stroke="#29235c" points="78.22,-89.81 78.22,-149.81 442.22,-149.81 442.22,-89.81 78.22,-89.81"/>
<text text-anchor="start" x="88.88" y="-110.01" font-family="Helvetica,sans-Serif" font-size="32.00" fill="#29235c">updated_at &#160;&#160;&#160;</text>
<text text-anchor="start" x="283.94" y="-111.01" font-family="Helvetica,sans-Serif" font-style="italic" font-size="32.00" fill="#29235c">timestamp</text>
<polygon fill="none" stroke="#29235c" stroke-width="2" points="77.22,-88.81 77.22,-510.81 443.22,-510.81 443.22,-88.81 77.22,-88.81"/>
</g>
</g>
</svg>

