<?xml version="1.0" encoding="us-ascii" standalone="no"?><svg xmlns="http://www.w3.org/2000/svg" xmlns:xlink="http://www.w3.org/1999/xlink" contentStyleType="text/css" height="315px" preserveAspectRatio="none" style="width:527px;height:315px;background:#FFFFFF;" version="1.1" viewBox="0 0 527 315" width="527px" zoomAndPan="magnify"><defs/><g><rect fill="#FFA07A" height="235.2656" style="stroke:none;stroke-width:1.0;" width="16" x="0" y="39"/><rect fill="#F1E5E5" height="235.2656" style="stroke:none;stroke-width:1.0;" width="32" x="16" y="39"/><rect fill="#FFA07A" height="235.2656" style="stroke:none;stroke-width:1.0;" width="16" x="112" y="39"/><rect fill="#F1E5E5" height="235.2656" style="stroke:none;stroke-width:1.0;" width="32" x="128" y="39"/><rect fill="#FFA07A" height="235.2656" style="stroke:none;stroke-width:1.0;" width="16" x="224" y="39"/><rect fill="#F1E5E5" height="235.2656" style="stroke:none;stroke-width:1.0;" width="32" x="240" y="39"/><rect fill="#FFA07A" height="235.2656" style="stroke:none;stroke-width:1.0;" width="16" x="336" y="39"/><rect fill="#F1E5E5" height="235.2656" style="stroke:none;stroke-width:1.0;" width="32" x="352" y="39"/><rect fill="#FFA07A" height="235.2656" style="stroke:none;stroke-width:1.0;" width="16" x="448" y="39"/><text fill="#000000" font-family="sans-serif" font-size="10" lengthAdjust="spacing" textLength="10" x="3" y="23.2822">Fr</text><text fill="#989898" font-family="sans-serif" font-size="10" lengthAdjust="spacing" textLength="13" x="17.5" y="23.2822">Sa</text><text fill="#989898" font-family="sans-serif" font-size="10" lengthAdjust="spacing" textLength="13" x="33.5" y="23.2822">Su</text><text fill="#000000" font-family="sans-serif" font-size="10" lengthAdjust="spacing" textLength="15" x="48.5" y="23.2822">Mo</text><text fill="#000000" font-family="sans-serif" font-size="10" lengthAdjust="spacing" textLength="11" x="66.5" y="23.2822">Tu</text><text fill="#000000" font-family="sans-serif" font-size="10" lengthAdjust="spacing" textLength="15" x="80.5" y="23.2822">We</text><text fill="#000000" font-family="sans-serif" font-size="10" lengthAdjust="spacing" textLength="11" x="98.5" y="23.2822">Th</text><text fill="#000000" font-family="sans-serif" font-size="10" lengthAdjust="spacing" textLength="10" x="115" y="23.2822">Fr</text><text fill="#989898" font-family="sans-serif" font-size="10" lengthAdjust="spacing" textLength="13" x="129.5" y="23.2822">Sa</text><text fill="#989898" font-family="sans-serif" font-size="10" lengthAdjust="spacing" textLength="13" x="145.5" y="23.2822">Su</text><text fill="#000000" font-family="sans-serif" font-size="10" lengthAdjust="spacing" textLength="15" x="160.5" y="23.2822">Mo</text><text fill="#000000" font-family="sans-serif" font-size="10" lengthAdjust="spacing" textLength="11" x="178.5" y="23.2822">Tu</text><text fill="#000000" font-family="sans-serif" font-size="10" lengthAdjust="spacing" textLength="15" x="192.5" y="23.2822">We</text><text fill="#000000" font-family="sans-serif" font-size="10" lengthAdjust="spacing" textLength="11" x="210.5" y="23.2822">Th</text><text fill="#000000" font-family="sans-serif" font-size="10" lengthAdjust="spacing" textLength="10" x="227" y="23.2822">Fr</text><text fill="#989898" font-family="sans-serif" font-size="10" lengthAdjust="spacing" textLength="13" x="241.5" y="23.2822">Sa</text><text fill="#989898" font-family="sans-serif" font-size="10" lengthAdjust="spacing" textLength="13" x="257.5" y="23.2822">Su</text><text fill="#000000" font-family="sans-serif" font-size="10" lengthAdjust="spacing" textLength="15" x="272.5" y="23.2822">Mo</text><text fill="#000000" font-family="sans-serif" font-size="10" lengthAdjust="spacing" textLength="11" x="290.5" y="23.2822">Tu</text><text fill="#000000" font-family="sans-serif" font-size="10" lengthAdjust="spacing" textLength="15" x="304.5" y="23.2822">We</text><text fill="#000000" font-family="sans-serif" font-size="10" lengthAdjust="spacing" textLength="11" x="322.5" y="23.2822">Th</text><text fill="#000000" font-family="sans-serif" font-size="10" lengthAdjust="spacing" textLength="10" x="339" y="23.2822">Fr</text><text fill="#989898" font-family="sans-serif" font-size="10" lengthAdjust="spacing" textLength="13" x="353.5" y="23.2822">Sa</text><text fill="#989898" font-family="sans-serif" font-size="10" lengthAdjust="spacing" textLength="13" x="369.5" y="23.2822">Su</text><text fill="#000000" font-family="sans-serif" font-size="10" lengthAdjust="spacing" textLength="15" x="384.5" y="23.2822">Mo</text><text fill="#000000" font-family="sans-serif" font-size="10" lengthAdjust="spacing" textLength="11" x="402.5" y="23.2822">Tu</text><text fill="#000000" font-family="sans-serif" font-size="10" lengthAdjust="spacing" textLength="15" x="416.5" y="23.2822">We</text><text fill="#000000" font-family="sans-serif" font-size="10" lengthAdjust="spacing" textLength="11" x="434.5" y="23.2822">Th</text><text fill="#000000" font-family="sans-serif" font-size="10" lengthAdjust="spacing" textLength="10" x="451" y="23.2822">Fr</text><text fill="#000000" font-family="sans-serif" font-size="10" lengthAdjust="spacing" textLength="6" x="5" y="35.2822">1</text><text fill="#989898" font-family="sans-serif" font-size="10" lengthAdjust="spacing" textLength="6" x="21" y="35.2822">2</text><text fill="#989898" font-family="sans-serif" font-size="10" lengthAdjust="spacing" textLength="6" x="37" y="35.2822">3</text><text fill="#000000" font-family="sans-serif" font-size="10" lengthAdjust="spacing" textLength="6" x="53" y="35.2822">4</text><text fill="#000000" font-family="sans-serif" font-size="10" lengthAdjust="spacing" textLength="6" x="69" y="35.2822">5</text><text fill="#000000" font-family="sans-serif" font-size="10" lengthAdjust="spacing" textLength="6" x="85" y="35.2822">6</text><text fill="#000000" font-family="sans-serif" font-size="10" lengthAdjust="spacing" textLength="6" x="101" y="35.2822">7</text><text fill="#000000" font-family="sans-serif" font-size="10" lengthAdjust="spacing" textLength="6" x="117" y="35.2822">8</text><text fill="#989898" font-family="sans-serif" font-size="10" lengthAdjust="spacing" textLength="6" x="133" y="35.2822">9</text><text fill="#989898" font-family="sans-serif" font-size="10" lengthAdjust="spacing" textLength="12" x="146" y="35.2822">10</text><text fill="#000000" font-family="sans-serif" font-size="10" lengthAdjust="spacing" textLength="12" x="162" y="35.2822">11</text><text fill="#000000" font-family="sans-serif" font-size="10" lengthAdjust="spacing" textLength="12" x="178" y="35.2822">12</text><text fill="#000000" font-family="sans-serif" font-size="10" lengthAdjust="spacing" textLength="12" x="194" y="35.2822">13</text><text fill="#000000" font-family="sans-serif" font-size="10" lengthAdjust="spacing" textLength="12" x="210" y="35.2822">14</text><text fill="#000000" font-family="sans-serif" font-size="10" lengthAdjust="spacing" textLength="12" x="226" y="35.2822">15</text><text fill="#989898" font-family="sans-serif" font-size="10" lengthAdjust="spacing" textLength="12" x="242" y="35.2822">16</text><text fill="#989898" font-family="sans-serif" font-size="10" lengthAdjust="spacing" textLength="12" x="258" y="35.2822">17</text><text fill="#000000" font-family="sans-serif" font-size="10" lengthAdjust="spacing" textLength="12" x="274" y="35.2822">18</text><text fill="#000000" font-family="sans-serif" font-size="10" lengthAdjust="spacing" textLength="12" x="290" y="35.2822">19</text><text fill="#000000" font-family="sans-serif" font-size="10" lengthAdjust="spacing" textLength="12" x="306" y="35.2822">20</text><text fill="#000000" font-family="sans-serif" font-size="10" lengthAdjust="spacing" textLength="12" x="322" y="35.2822">21</text><text fill="#000000" font-family="sans-serif" font-size="10" lengthAdjust="spacing" textLength="12" x="338" y="35.2822">22</text><text fill="#989898" font-family="sans-serif" font-size="10" lengthAdjust="spacing" textLength="12" x="354" y="35.2822">23</text><text fill="#989898" font-family="sans-serif" font-size="10" lengthAdjust="spacing" textLength="12" x="370" y="35.2822">24</text><text fill="#000000" font-family="sans-serif" font-size="10" lengthAdjust="spacing" textLength="12" x="386" y="35.2822">25</text><text fill="#000000" font-family="sans-serif" font-size="10" lengthAdjust="spacing" textLength="12" x="402" y="35.2822">26</text><text fill="#000000" font-family="sans-serif" font-size="10" lengthAdjust="spacing" textLength="12" x="418" y="35.2822">27</text><text fill="#000000" font-family="sans-serif" font-size="10" lengthAdjust="spacing" textLength="12" x="434" y="35.2822">28</text><text fill="#000000" font-family="sans-serif" font-size="10" lengthAdjust="spacing" textLength="12" x="450" y="35.2822">29</text><text fill="#000000" font-family="sans-serif" font-size="12" font-weight="bold" lengthAdjust="spacing" textLength="107" x="178.5" y="11.1387">November 2024</text><line style="stroke:#C0C0C0;stroke-width:1.0;" x1="0" x2="0" y1="39" y2="274.2656"/><line style="stroke:#C0C0C0;stroke-width:1.0;" x1="16" x2="16" y1="39" y2="274.2656"/><line style="stroke:#C0C0C0;stroke-width:1.0;" x1="32" x2="32" y1="39" y2="274.2656"/><line style="stroke:#C0C0C0;stroke-width:1.0;" x1="48" x2="48" y1="39" y2="274.2656"/><line style="stroke:#C0C0C0;stroke-width:1.0;" x1="64" x2="64" y1="39" y2="274.2656"/><line style="stroke:#C0C0C0;stroke-width:1.0;" x1="80" x2="80" y1="39" y2="274.2656"/><line style="stroke:#C0C0C0;stroke-width:1.0;" x1="96" x2="96" y1="39" y2="274.2656"/><line style="stroke:#C0C0C0;stroke-width:1.0;" x1="112" x2="112" y1="39" y2="274.2656"/><line style="stroke:#C0C0C0;stroke-width:1.0;" x1="128" x2="128" y1="39" y2="274.2656"/><line style="stroke:#C0C0C0;stroke-width:1.0;" x1="144" x2="144" y1="39" y2="274.2656"/><line style="stroke:#C0C0C0;stroke-width:1.0;" x1="160" x2="160" y1="39" y2="274.2656"/><line style="stroke:#C0C0C0;stroke-width:1.0;" x1="176" x2="176" y1="39" y2="274.2656"/><line style="stroke:#C0C0C0;stroke-width:1.0;" x1="192" x2="192" y1="39" y2="274.2656"/><line style="stroke:#C0C0C0;stroke-width:1.0;" x1="208" x2="208" y1="39" y2="274.2656"/><line style="stroke:#C0C0C0;stroke-width:1.0;" x1="224" x2="224" y1="39" y2="274.2656"/><line style="stroke:#C0C0C0;stroke-width:1.0;" x1="240" x2="240" y1="39" y2="274.2656"/><line style="stroke:#C0C0C0;stroke-width:1.0;" x1="256" x2="256" y1="39" y2="274.2656"/><line style="stroke:#C0C0C0;stroke-width:1.0;" x1="272" x2="272" y1="39" y2="274.2656"/><line style="stroke:#C0C0C0;stroke-width:1.0;" x1="288" x2="288" y1="39" y2="274.2656"/><line style="stroke:#C0C0C0;stroke-width:1.0;" x1="304" x2="304" y1="39" y2="274.2656"/><line style="stroke:#C0C0C0;stroke-width:1.0;" x1="320" x2="320" y1="39" y2="274.2656"/><line style="stroke:#C0C0C0;stroke-width:1.0;" x1="336" x2="336" y1="39" y2="274.2656"/><line style="stroke:#C0C0C0;stroke-width:1.0;" x1="352" x2="352" y1="39" y2="274.2656"/><line style="stroke:#C0C0C0;stroke-width:1.0;" x1="368" x2="368" y1="39" y2="274.2656"/><line style="stroke:#C0C0C0;stroke-width:1.0;" x1="384" x2="384" y1="39" y2="274.2656"/><line style="stroke:#C0C0C0;stroke-width:1.0;" x1="400" x2="400" y1="39" y2="274.2656"/><line style="stroke:#C0C0C0;stroke-width:1.0;" x1="416" x2="416" y1="39" y2="274.2656"/><line style="stroke:#C0C0C0;stroke-width:1.0;" x1="432" x2="432" y1="39" y2="274.2656"/><line style="stroke:#C0C0C0;stroke-width:1.0;" x1="448" x2="448" y1="39" y2="274.2656"/><line style="stroke:#C0C0C0;stroke-width:1.0;" x1="464" x2="464" y1="39" y2="274.2656"/><line style="stroke:#C0C0C0;stroke-width:1.0;" x1="0" x2="464" y1="39" y2="39"/><line style="stroke:#C0C0C0;stroke-width:1.0;" x1="0" x2="464" y1="274.2656" y2="274.2656"/><rect fill="#E2E2F0" height="12.8047" style="stroke:none;stroke-width:1.0;" width="15" x="2" y="41"/><line style="stroke:#181818;stroke-width:1.0;" x1="2" x2="15" y1="41" y2="41"/><line style="stroke:#181818;stroke-width:1.0;" x1="2" x2="15" y1="53.8047" y2="53.8047"/><line style="stroke:#181818;stroke-width:1.0;" x1="2" x2="2" y1="41" y2="53.8047"/><rect fill="#E2E2F0" height="12.8047" style="stroke:none;stroke-width:1.0;" width="81" x="48" y="41"/><line style="stroke:#181818;stroke-width:1.0;" x1="49" x2="128" y1="41" y2="41"/><line style="stroke:#181818;stroke-width:1.0;" x1="49" x2="128" y1="53.8047" y2="53.8047"/><rect fill="#E2E2F0" height="12.8047" style="stroke:none;stroke-width:1.0;" width="81" x="160" y="41"/><line style="stroke:#181818;stroke-width:1.0;" x1="161" x2="240" y1="41" y2="41"/><line style="stroke:#181818;stroke-width:1.0;" x1="161" x2="240" y1="53.8047" y2="53.8047"/><rect fill="#E2E2F0" height="12.8047" style="stroke:none;stroke-width:1.0;" width="81" x="272" y="41"/><line style="stroke:#181818;stroke-width:1.0;" x1="273" x2="352" y1="41" y2="41"/><line style="stroke:#181818;stroke-width:1.0;" x1="273" x2="352" y1="53.8047" y2="53.8047"/><rect fill="#E2E2F0" height="12.8047" style="stroke:none;stroke-width:1.0;" width="78" x="384" y="41"/><line style="stroke:#181818;stroke-width:1.0;" x1="385" x2="462" y1="41" y2="41"/><line style="stroke:#181818;stroke-width:1.0;" x1="385" x2="462" y1="53.8047" y2="53.8047"/><line style="stroke:#181818;stroke-width:1.0;" x1="462" x2="462" y1="41" y2="53.8047"/><line style="stroke:#181818;stroke-width:1.0;stroke-dasharray:2.0,3.0;" x1="19" x2="45" y1="41" y2="41"/><line style="stroke:#181818;stroke-width:1.0;stroke-dasharray:2.0,3.0;" x1="19" x2="45" y1="53.8047" y2="53.8047"/><line style="stroke:#181818;stroke-width:1.0;stroke-dasharray:2.0,3.0;" x1="131" x2="157" y1="41" y2="41"/><line style="stroke:#181818;stroke-width:1.0;stroke-dasharray:2.0,3.0;" x1="131" x2="157" y1="53.8047" y2="53.8047"/><line style="stroke:#181818;stroke-width:1.0;stroke-dasharray:2.0,3.0;" x1="243" x2="269" y1="41" y2="41"/><line style="stroke:#181818;stroke-width:1.0;stroke-dasharray:2.0,3.0;" x1="243" x2="269" y1="53.8047" y2="53.8047"/><line style="stroke:#181818;stroke-width:1.0;stroke-dasharray:2.0,3.0;" x1="355" x2="381" y1="41" y2="41"/><line style="stroke:#181818;stroke-width:1.0;stroke-dasharray:2.0,3.0;" x1="355" x2="381" y1="53.8047" y2="53.8047"/><polygon fill="#808080" points="56,57.8047,61,62.8047,56,67.8047,51,62.8047" style="stroke:#808080;stroke-width:1.0;"/><polygon fill="#000000" points="456,74.6094,461,79.6094,456,84.6094,451,79.6094" style="stroke:#000000;stroke-width:1.0;"/><polygon fill="#0000FF" points="408,91.4141,413,96.4141,408,101.4141,403,96.4141" style="stroke:#0000FF;stroke-width:1.0;"/><rect fill="#0000FF" height="12.8047" style="stroke:none;stroke-width:1.0;" width="12" x="2" y="108.2188"/><line style="stroke:#0000FF;stroke-width:1.0;" x1="2" x2="14" y1="108.2188" y2="108.2188"/><line style="stroke:#0000FF;stroke-width:1.0;" x1="2" x2="14" y1="121.0234" y2="121.0234"/><line style="stroke:#0000FF;stroke-width:1.0;" x1="2" x2="2" y1="108.2188" y2="121.0234"/><line style="stroke:#0000FF;stroke-width:1.0;" x1="14" x2="14" y1="108.2188" y2="121.0234"/><rect fill="#0000FF" height="12.8047" style="stroke:none;stroke-width:1.0;" width="12" x="2" y="125.0234"/><line style="stroke:#0000FF;stroke-width:1.0;" x1="2" x2="14" y1="125.0234" y2="125.0234"/><line style="stroke:#0000FF;stroke-width:1.0;" x1="2" x2="14" y1="137.8281" y2="137.8281"/><line style="stroke:#0000FF;stroke-width:1.0;" x1="2" x2="2" y1="125.0234" y2="137.8281"/><line style="stroke:#0000FF;stroke-width:1.0;" x1="14" x2="14" y1="125.0234" y2="137.8281"/><rect fill="#0000FF" height="12.8047" style="stroke:none;stroke-width:1.0;" width="12" x="2" y="141.8281"/><line style="stroke:#0000FF;stroke-width:1.0;" x1="2" x2="14" y1="141.8281" y2="141.8281"/><line style="stroke:#0000FF;stroke-width:1.0;" x1="2" x2="14" y1="154.6328" y2="154.6328"/><line style="stroke:#0000FF;stroke-width:1.0;" x1="2" x2="2" y1="141.8281" y2="154.6328"/><line style="stroke:#0000FF;stroke-width:1.0;" x1="14" x2="14" y1="141.8281" y2="154.6328"/><polygon fill="#90EE90" points="392,158.6328,397,163.6328,392,168.6328,387,163.6328" style="stroke:#90EE90;stroke-width:1.0;"/><rect fill="#90EE90" height="12.8047" style="stroke:none;stroke-width:1.0;" width="12" x="2" y="175.4375"/><line style="stroke:#90EE90;stroke-width:1.0;" x1="2" x2="14" y1="175.4375" y2="175.4375"/><line style="stroke:#90EE90;stroke-width:1.0;" x1="2" x2="14" y1="188.2422" y2="188.2422"/><line style="stroke:#90EE90;stroke-width:1.0;" x1="2" x2="2" y1="175.4375" y2="188.2422"/><line style="stroke:#90EE90;stroke-width:1.0;" x1="14" x2="14" y1="175.4375" y2="188.2422"/><rect fill="#90EE90" height="12.8047" style="stroke:none;stroke-width:1.0;" width="12" x="2" y="192.2422"/><line style="stroke:#90EE90;stroke-width:1.0;" x1="2" x2="14" y1="192.2422" y2="192.2422"/><line style="stroke:#90EE90;stroke-width:1.0;" x1="2" x2="14" y1="205.0469" y2="205.0469"/><line style="stroke:#90EE90;stroke-width:1.0;" x1="2" x2="2" y1="192.2422" y2="205.0469"/><line style="stroke:#90EE90;stroke-width:1.0;" x1="14" x2="14" y1="192.2422" y2="205.0469"/><rect fill="#90EE90" height="12.8047" style="stroke:none;stroke-width:1.0;" width="12" x="2" y="209.0469"/><line style="stroke:#90EE90;stroke-width:1.0;" x1="2" x2="14" y1="209.0469" y2="209.0469"/><line style="stroke:#90EE90;stroke-width:1.0;" x1="2" x2="14" y1="221.8516" y2="221.8516"/><line style="stroke:#90EE90;stroke-width:1.0;" x1="2" x2="2" y1="209.0469" y2="221.8516"/><line style="stroke:#90EE90;stroke-width:1.0;" x1="14" x2="14" y1="209.0469" y2="221.8516"/><polygon fill="#FFA500" points="424,225.8516,429,230.8516,424,235.8516,419,230.8516" style="stroke:#FFA500;stroke-width:1.0;"/><rect fill="#FFA500" height="12.8047" style="stroke:none;stroke-width:1.0;" width="12" x="2" y="242.6563"/><line style="stroke:#FFA500;stroke-width:1.0;" x1="2" x2="14" y1="242.6563" y2="242.6563"/><line style="stroke:#FFA500;stroke-width:1.0;" x1="2" x2="14" y1="255.4609" y2="255.4609"/><line style="stroke:#FFA500;stroke-width:1.0;" x1="2" x2="2" y1="242.6563" y2="255.4609"/><line style="stroke:#FFA500;stroke-width:1.0;" x1="14" x2="14" y1="242.6563" y2="255.4609"/><polygon fill="#800080" points="440,259.4609,445,264.4609,440,269.4609,435,264.4609" style="stroke:#800080;stroke-width:1.0;"/><text fill="#000000" font-family="sans-serif" font-size="11" lengthAdjust="spacing" textLength="27" x="6" y="51.2104">Daily</text><text fill="#000000" font-family="sans-serif" font-size="11" lengthAdjust="spacing" textLength="83" x="64" y="68.0151">Epic Grooming</text><text fill="#000000" font-family="sans-serif" font-size="11" lengthAdjust="spacing" textLength="31" x="464" y="84.8198">News</text><text fill="#000000" font-family="sans-serif" font-size="11" lengthAdjust="spacing" textLength="64" x="416" y="101.6245">Refinement</text><text fill="#000000" font-family="sans-serif" font-size="11" lengthAdjust="spacing" textLength="14" x="18" y="118.4292">R2</text><text fill="#000000" font-family="sans-serif" font-size="11" lengthAdjust="spacing" textLength="14" x="18" y="135.2339">R3</text><text fill="#000000" font-family="sans-serif" font-size="11" lengthAdjust="spacing" textLength="14" x="18" y="152.0386">R4</text><text fill="#000000" font-family="sans-serif" font-size="11" lengthAdjust="spacing" textLength="92" x="400" y="168.8433">Team Alignment</text><text fill="#000000" font-family="sans-serif" font-size="11" lengthAdjust="spacing" textLength="14" x="18" y="185.6479">T2</text><text fill="#000000" font-family="sans-serif" font-size="11" lengthAdjust="spacing" textLength="14" x="18" y="202.4526">T3</text><text fill="#000000" font-family="sans-serif" font-size="11" lengthAdjust="spacing" textLength="14" x="18" y="219.2573">T4</text><text fill="#000000" font-family="sans-serif" font-size="11" lengthAdjust="spacing" textLength="84" x="432" y="236.062">Metrics Review</text><text fill="#000000" font-family="sans-serif" font-size="11" lengthAdjust="spacing" textLength="16" x="18" y="252.8667">M2</text><text fill="#000000" font-family="sans-serif" font-size="11" lengthAdjust="spacing" textLength="77" x="448" y="269.6714">Retrospective</text><text fill="#000000" font-family="sans-serif" font-size="10" lengthAdjust="spacing" textLength="10" x="3" y="283.5479">Fr</text><text fill="#989898" font-family="sans-serif" font-size="10" lengthAdjust="spacing" textLength="13" x="17.5" y="283.5479">Sa</text><text fill="#989898" font-family="sans-serif" font-size="10" lengthAdjust="spacing" textLength="13" x="33.5" y="283.5479">Su</text><text fill="#000000" font-family="sans-serif" font-size="10" lengthAdjust="spacing" textLength="15" x="48.5" y="283.5479">Mo</text><text fill="#000000" font-family="sans-serif" font-size="10" lengthAdjust="spacing" textLength="11" x="66.5" y="283.5479">Tu</text><text fill="#000000" font-family="sans-serif" font-size="10" lengthAdjust="spacing" textLength="15" x="80.5" y="283.5479">We</text><text fill="#000000" font-family="sans-serif" font-size="10" lengthAdjust="spacing" textLength="11" x="98.5" y="283.5479">Th</text><text fill="#000000" font-family="sans-serif" font-size="10" lengthAdjust="spacing" textLength="10" x="115" y="283.5479">Fr</text><text fill="#989898" font-family="sans-serif" font-size="10" lengthAdjust="spacing" textLength="13" x="129.5" y="283.5479">Sa</text><text fill="#989898" font-family="sans-serif" font-size="10" lengthAdjust="spacing" textLength="13" x="145.5" y="283.5479">Su</text><text fill="#000000" font-family="sans-serif" font-size="10" lengthAdjust="spacing" textLength="15" x="160.5" y="283.5479">Mo</text><text fill="#000000" font-family="sans-serif" font-size="10" lengthAdjust="spacing" textLength="11" x="178.5" y="283.5479">Tu</text><text fill="#000000" font-family="sans-serif" font-size="10" lengthAdjust="spacing" textLength="15" x="192.5" y="283.5479">We</text><text fill="#000000" font-family="sans-serif" font-size="10" lengthAdjust="spacing" textLength="11" x="210.5" y="283.5479">Th</text><text fill="#000000" font-family="sans-serif" font-size="10" lengthAdjust="spacing" textLength="10" x="227" y="283.5479">Fr</text><text fill="#989898" font-family="sans-serif" font-size="10" lengthAdjust="spacing" textLength="13" x="241.5" y="283.5479">Sa</text><text fill="#989898" font-family="sans-serif" font-size="10" lengthAdjust="spacing" textLength="13" x="257.5" y="283.5479">Su</text><text fill="#000000" font-family="sans-serif" font-size="10" lengthAdjust="spacing" textLength="15" x="272.5" y="283.5479">Mo</text><text fill="#000000" font-family="sans-serif" font-size="10" lengthAdjust="spacing" textLength="11" x="290.5" y="283.5479">Tu</text><text fill="#000000" font-family="sans-serif" font-size="10" lengthAdjust="spacing" textLength="15" x="304.5" y="283.5479">We</text><text fill="#000000" font-family="sans-serif" font-size="10" lengthAdjust="spacing" textLength="11" x="322.5" y="283.5479">Th</text><text fill="#000000" font-family="sans-serif" font-size="10" lengthAdjust="spacing" textLength="10" x="339" y="283.5479">Fr</text><text fill="#989898" font-family="sans-serif" font-size="10" lengthAdjust="spacing" textLength="13" x="353.5" y="283.5479">Sa</text><text fill="#989898" font-family="sans-serif" font-size="10" lengthAdjust="spacing" textLength="13" x="369.5" y="283.5479">Su</text><text fill="#000000" font-family="sans-serif" font-size="10" lengthAdjust="spacing" textLength="15" x="384.5" y="283.5479">Mo</text><text fill="#000000" font-family="sans-serif" font-size="10" lengthAdjust="spacing" textLength="11" x="402.5" y="283.5479">Tu</text><text fill="#000000" font-family="sans-serif" font-size="10" lengthAdjust="spacing" textLength="15" x="416.5" y="283.5479">We</text><text fill="#000000" font-family="sans-serif" font-size="10" lengthAdjust="spacing" textLength="11" x="434.5" y="283.5479">Th</text><text fill="#000000" font-family="sans-serif" font-size="10" lengthAdjust="spacing" textLength="10" x="451" y="283.5479">Fr</text><text fill="#000000" font-family="sans-serif" font-size="10" lengthAdjust="spacing" textLength="6" x="5" y="297.5479">1</text><text fill="#989898" font-family="sans-serif" font-size="10" lengthAdjust="spacing" textLength="6" x="21" y="297.5479">2</text><text fill="#989898" font-family="sans-serif" font-size="10" lengthAdjust="spacing" textLength="6" x="37" y="297.5479">3</text><text fill="#000000" font-family="sans-serif" font-size="10" lengthAdjust="spacing" textLength="6" x="53" y="297.5479">4</text><text fill="#000000" font-family="sans-serif" font-size="10" lengthAdjust="spacing" textLength="6" x="69" y="297.5479">5</text><text fill="#000000" font-family="sans-serif" font-size="10" lengthAdjust="spacing" textLength="6" x="85" y="297.5479">6</text><text fill="#000000" font-family="sans-serif" font-size="10" lengthAdjust="spacing" textLength="6" x="101" y="297.5479">7</text><text fill="#000000" font-family="sans-serif" font-size="10" lengthAdjust="spacing" textLength="6" x="117" y="297.5479">8</text><text fill="#989898" font-family="sans-serif" font-size="10" lengthAdjust="spacing" textLength="6" x="133" y="297.5479">9</text><text fill="#989898" font-family="sans-serif" font-size="10" lengthAdjust="spacing" textLength="12" x="146" y="297.5479">10</text><text fill="#000000" font-family="sans-serif" font-size="10" lengthAdjust="spacing" textLength="12" x="162" y="297.5479">11</text><text fill="#000000" font-family="sans-serif" font-size="10" lengthAdjust="spacing" textLength="12" x="178" y="297.5479">12</text><text fill="#000000" font-family="sans-serif" font-size="10" lengthAdjust="spacing" textLength="12" x="194" y="297.5479">13</text><text fill="#000000" font-family="sans-serif" font-size="10" lengthAdjust="spacing" textLength="12" x="210" y="297.5479">14</text><text fill="#000000" font-family="sans-serif" font-size="10" lengthAdjust="spacing" textLength="12" x="226" y="297.5479">15</text><text fill="#989898" font-family="sans-serif" font-size="10" lengthAdjust="spacing" textLength="12" x="242" y="297.5479">16</text><text fill="#989898" font-family="sans-serif" font-size="10" lengthAdjust="spacing" textLength="12" x="258" y="297.5479">17</text><text fill="#000000" font-family="sans-serif" font-size="10" lengthAdjust="spacing" textLength="12" x="274" y="297.5479">18</text><text fill="#000000" font-family="sans-serif" font-size="10" lengthAdjust="spacing" textLength="12" x="290" y="297.5479">19</text><text fill="#000000" font-family="sans-serif" font-size="10" lengthAdjust="spacing" textLength="12" x="306" y="297.5479">20</text><text fill="#000000" font-family="sans-serif" font-size="10" lengthAdjust="spacing" textLength="12" x="322" y="297.5479">21</text><text fill="#000000" font-family="sans-serif" font-size="10" lengthAdjust="spacing" textLength="12" x="338" y="297.5479">22</text><text fill="#989898" font-family="sans-serif" font-size="10" lengthAdjust="spacing" textLength="12" x="354" y="297.5479">23</text><text fill="#989898" font-family="sans-serif" font-size="10" lengthAdjust="spacing" textLength="12" x="370" y="297.5479">24</text><text fill="#000000" font-family="sans-serif" font-size="10" lengthAdjust="spacing" textLength="12" x="386" y="297.5479">25</text><text fill="#000000" font-family="sans-serif" font-size="10" lengthAdjust="spacing" textLength="12" x="402" y="297.5479">26</text><text fill="#000000" font-family="sans-serif" font-size="10" lengthAdjust="spacing" textLength="12" x="418" y="297.5479">27</text><text fill="#000000" font-family="sans-serif" font-size="10" lengthAdjust="spacing" textLength="12" x="434" y="297.5479">28</text><text fill="#000000" font-family="sans-serif" font-size="10" lengthAdjust="spacing" textLength="12" x="450" y="297.5479">29</text><text fill="#000000" font-family="sans-serif" font-size="12" font-weight="bold" lengthAdjust="spacing" textLength="107" x="178.5" y="312.4043">November 2024</text><!--SRC=[fLJBRjim4BppA_QO71oOijmwFYL8d021LHYkaelX0osjPHOKgVBXm7zVIchGgg8A1mO421hEpEuEHTuPoxGjcBIMhBJwWPc51Z8GZQDuHEbeJ0anp3gTinCmZP09PJ0dnib_aBtcDS8DP4eeZJbm2O8N1skOA9KaPFF8k3Xj0oK-LZJ-T5oZNwFWpOpNB2gUmRDMgkIos08pi5dGBHnOLQ7yooGc3TujNsXsyXxVyDsqqlkGTDPXH7q6dNOOapuZYZgCEC2uzOsiSSybbYXjIro7sl75rhr9Ti9XG1zgrhTIusVf0wFGMzBWP-b3WtuX3HxGdnb0V640zC80PXS6C1qEW6nIP2NS-tCX_xYa0ocalHIQyrHeH3dWD9176dtQQI2PTF9ffu6CqlW_JcIJeDKyCx368yVtrYe914KdfC6xLaepMU20Io2aw2jfyA1BlUzMArFv2v8VyVVMXtOjgl-T_hPLJbV2-zoXpDlhbgo4VxycIpYYDbn9e3UroGszIWyEdd07OmfqDlVFD8RNzA6fSKskdbTBCChf327dna-tSzRhhyaBEp9OEsbvYNEGJWZoyfRCuRlRUHgp26y9USGzSyB2GcOgzpVgt5i_ZMPawGTrhFWGFYZleq_jroy0]--></g></svg>