<svg xmlns="http://www.w3.org/2000/svg" xmlns:xlink="http://www.w3.org/1999/xlink" contentStyleType="text/css" data-diagram-type="ACTIVITY" height="752px" preserveAspectRatio="none" style="width:409px;height:752px;background:#FFFFFF;" version="1.1" viewBox="0 0 409 752" width="409px" zoomAndPan="magnify"><title>Ambiente Local</title><defs><filter height="300%" id="f1thad2lfjg06d" width="300%" x="-1" y="-1"><feGaussianBlur result="blurOut" stdDeviation="2"/><feColorMatrix in="blurOut" result="blurOut2" type="matrix" values="0 0 0 0 0 0 0 0 0 0 0 0 0 0 0 0 0 0 .4 0"/><feOffset dx="4" dy="4" in="blurOut2" result="blurOut3"/><feBlend in="SourceGraphic" in2="blurOut3" mode="normal"/></filter></defs><g><text fill="#000000" font-family="sans-serif" font-size="14" font-weight="bold" lengthAdjust="spacing" textLength="121.8506" x="142.4819" y="32.9951">Ambiente Local</text><ellipse cx="203.9072" cy="57.2969" fill="#000000" filter="url(#f1thad2lfjg06d)" rx="10" ry="10" style="stroke:#000000;stroke-width:1;"/><rect fill="#FEFECE" filter="url(#f1thad2lfjg06d)" height="33.9688" rx="12.5" ry="12.5" style="stroke:#A80036;stroke-width:1.5;" width="268.1504" x="69.832" y="87.2969"/><text fill="#000000" font-family="sans-serif" font-size="12" lengthAdjust="spacing" textLength="248.1504" x="79.832" y="108.4355">Historia y definici&#243;n de la tarea a realizar</text><rect fill="#FEFECE" filter="url(#f1thad2lfjg06d)" height="33.9688" rx="12.5" ry="12.5" style="stroke:#A80036;stroke-width:1.5;" width="311.2578" x="48.2783" y="141.2656"/><text fill="#000000" font-family="sans-serif" font-size="12" lengthAdjust="spacing" textLength="291.2578" x="58.2783" y="162.4043">Clonar o actualizar desde el repositorio principal</text><rect fill="#FEFECE" filter="url(#f1thad2lfjg06d)" height="33.9688" rx="12.5" ry="12.5" style="stroke:#A80036;stroke-width:1.5;" width="249.5703" x="79.1221" y="195.2344"/><text fill="#000000" font-family="sans-serif" font-size="12" lengthAdjust="spacing" textLength="229.5703" x="89.1221" y="216.373">Crear y utilizar rama para los cambios</text><rect fill="#FEFECE" filter="url(#f1thad2lfjg06d)" height="33.9688" rx="12.5" ry="12.5" style="stroke:#A80036;stroke-width:1.5;" width="246.2129" x="80.8008" y="304.9136"/><text fill="#000000" font-family="sans-serif" font-size="12" lengthAdjust="spacing" textLength="226.2129" x="90.8008" y="326.0522">Crear o refactorizar pruebas unitarias</text><rect fill="#FEFECE" filter="url(#f1thad2lfjg06d)" height="33.9688" rx="12.5" ry="12.5" style="stroke:#A80036;stroke-width:1.5;" width="335.8145" x="36" y="358.8823"/><text fill="#000000" font-family="sans-serif" font-size="12" lengthAdjust="spacing" textLength="315.8145" x="46" y="380.021">Crear o refactorizar pruebas funcionales/de contrato</text><rect fill="#FEFECE" filter="url(#f1thad2lfjg06d)" height="33.9688" rx="12.5" ry="12.5" style="stroke:#A80036;stroke-width:1.5;" width="280.3613" x="63.7266" y="412.8511"/><text fill="#000000" font-family="sans-serif" font-size="12" lengthAdjust="spacing" textLength="260.3613" x="73.7266" y="433.9897">Crear o refactorizar pruebas de integraci&#243;n</text><rect fill="#FEFECE" filter="url(#f1thad2lfjg06d)" height="33.9688" rx="12.5" ry="12.5" style="stroke:#A80036;stroke-width:1.5;" width="278.6387" x="64.5879" y="475.9175"/><text fill="#000000" font-family="sans-serif" font-size="12" lengthAdjust="spacing" textLength="258.6387" x="74.5879" y="497.0562">Crear o refactorizar el c&#243;digo de aplicaci&#243;n</text><rect fill="#FEFECE" filter="url(#f1thad2lfjg06d)" height="33.9688" rx="12.5" ry="12.5" style="stroke:#A80036;stroke-width:1.5;" width="308.2227" x="49.7959" y="529.8862"/><text fill="#000000" font-family="sans-serif" font-size="12" lengthAdjust="spacing" textLength="288.2227" x="59.7959" y="551.0249">Evaluar y cambiar c&#243;digo con pruebas est&#225;ticas</text><rect fill="#FEFECE" filter="url(#f1thad2lfjg06d)" height="33.9688" rx="12.5" ry="12.5" style="stroke:#A80036;stroke-width:1.5;" width="257.3691" x="75.2227" y="583.855"/><text fill="#000000" font-family="sans-serif" font-size="12" lengthAdjust="spacing" textLength="237.3691" x="85.2227" y="604.9937">Almacenar cambios en repositorio local</text><polygon fill="#FEFECE" filter="url(#f1thad2lfjg06d)" points="96.9634,249.2031,310.8511,249.2031,322.8511,261.2031,310.8511,273.2031,96.9634,273.2031,84.9634,261.2031,96.9634,249.2031" style="stroke:#A80036;stroke-width:1.5;"/><text fill="#000000" font-family="sans-serif" font-size="11" lengthAdjust="spacing" textLength="14.9585" x="207.9072" y="283.4136">No</text><text fill="#000000" font-family="sans-serif" font-size="11" lengthAdjust="spacing" textLength="213.8877" x="96.9634" y="265.0112">&#191;Pasan las pruebas en ambiente local?</text><text fill="#000000" font-family="sans-serif" font-size="11" lengthAdjust="spacing" textLength="10.0386" x="74.9248" y="258.6089">S&#237;</text><rect fill="#FEFECE" filter="url(#f1thad2lfjg06d)" height="33.9688" rx="12.5" ry="12.5" style="stroke:#A80036;stroke-width:1.5;" width="363.9102" x="21.9521" y="659.8237"/><text fill="#000000" font-family="sans-serif" font-size="12" lengthAdjust="spacing" textLength="343.9102" x="31.9521" y="680.9624">Enviar cambios al repositorio principal en rama separada</text><ellipse cx="203.9072" cy="724.7925" fill="none" filter="url(#f1thad2lfjg06d)" rx="11" ry="11" style="stroke:#000000;stroke-width:1;"/><ellipse cx="203.9072" cy="724.7925" fill="#000000" rx="6" ry="6" style="stroke:#000000;stroke-width:1;"/><line style="stroke:#A80036;stroke-width:1.5;" x1="203.9072" x2="203.9072" y1="67.2969" y2="87.2969"/><polygon fill="#A80036" points="199.9072,77.2969,203.9072,87.2969,207.9072,77.2969,203.9072,81.2969" style="stroke:#A80036;stroke-width:1;"/><line style="stroke:#A80036;stroke-width:1.5;" x1="203.9072" x2="203.9072" y1="121.2656" y2="141.2656"/><polygon fill="#A80036" points="199.9072,131.2656,203.9072,141.2656,207.9072,131.2656,203.9072,135.2656" style="stroke:#A80036;stroke-width:1;"/><line style="stroke:#A80036;stroke-width:1.5;" x1="203.9072" x2="203.9072" y1="175.2344" y2="195.2344"/><polygon fill="#A80036" points="199.9072,185.2344,203.9072,195.2344,207.9072,185.2344,203.9072,189.2344" style="stroke:#A80036;stroke-width:1;"/><line style="stroke:#A80036;stroke-width:1.5;" x1="203.9072" x2="203.9072" y1="338.8823" y2="358.8823"/><polygon fill="#A80036" points="199.9072,348.8823,203.9072,358.8823,207.9072,348.8823,203.9072,352.8823" style="stroke:#A80036;stroke-width:1;"/><line style="stroke:#A80036;stroke-width:1.5;" x1="203.9072" x2="203.9072" y1="392.8511" y2="412.8511"/><polygon fill="#A80036" points="199.9072,402.8511,203.9072,412.8511,207.9072,402.8511,203.9072,406.8511" style="stroke:#A80036;stroke-width:1;"/><line style="stroke:#A80036;stroke-width:1.5;" x1="203.9072" x2="203.9072" y1="446.8198" y2="475.9175"/><polygon fill="#A80036" points="199.9072,465.9175,203.9072,475.9175,207.9072,465.9175,203.9072,469.9175" style="stroke:#A80036;stroke-width:1;"/><line style="stroke:#A80036;stroke-width:1.5;" x1="203.9072" x2="203.9072" y1="509.8862" y2="529.8862"/><polygon fill="#A80036" points="199.9072,519.8862,203.9072,529.8862,207.9072,519.8862,203.9072,523.8862" style="stroke:#A80036;stroke-width:1;"/><line style="stroke:#A80036;stroke-width:1.5;" x1="203.9072" x2="203.9072" y1="563.855" y2="583.855"/><polygon fill="#A80036" points="199.9072,573.855,203.9072,583.855,207.9072,573.855,203.9072,577.855" style="stroke:#A80036;stroke-width:1;"/><line style="stroke:#A80036;stroke-width:1.5;" x1="203.9072" x2="203.9072" y1="273.2031" y2="304.9136"/><polygon fill="#A80036" points="199.9072,294.9136,203.9072,304.9136,207.9072,294.9136,203.9072,298.9136" style="stroke:#A80036;stroke-width:1;"/><line style="stroke:#A80036;stroke-width:1.5;" x1="203.9072" x2="203.9072" y1="617.8237" y2="627.8237"/><line style="stroke:#A80036;stroke-width:1.5;" x1="203.9072" x2="383.8145" y1="627.8237" y2="627.8237"/><polygon fill="#A80036" points="379.8145,455.9175,383.8145,445.9175,387.8145,455.9175,383.8145,451.9175" style="stroke:#A80036;stroke-width:1.5;"/><line style="stroke:#A80036;stroke-width:1.5;" x1="383.8145" x2="383.8145" y1="261.2031" y2="627.8237"/><line style="stroke:#A80036;stroke-width:1.5;" x1="383.8145" x2="322.8511" y1="261.2031" y2="261.2031"/><polygon fill="#A80036" points="332.8511,257.2031,322.8511,261.2031,332.8511,265.2031,328.8511,261.2031" style="stroke:#A80036;stroke-width:1;"/><line style="stroke:#A80036;stroke-width:1.5;" x1="84.9634" x2="24" y1="261.2031" y2="261.2031"/><polygon fill="#A80036" points="20,441.9175,24,451.9175,28,441.9175,24,445.9175" style="stroke:#A80036;stroke-width:1.5;"/><line style="stroke:#A80036;stroke-width:1.5;" x1="24" x2="24" y1="261.2031" y2="639.8237"/><line style="stroke:#A80036;stroke-width:1.5;" x1="24" x2="203.9072" y1="639.8237" y2="639.8237"/><line style="stroke:#A80036;stroke-width:1.5;" x1="203.9072" x2="203.9072" y1="639.8237" y2="659.8237"/><polygon fill="#A80036" points="199.9072,649.8237,203.9072,659.8237,207.9072,649.8237,203.9072,653.8237" style="stroke:#A80036;stroke-width:1;"/><line style="stroke:#A80036;stroke-width:1.5;" x1="203.9072" x2="203.9072" y1="229.2031" y2="249.2031"/><polygon fill="#A80036" points="199.9072,239.2031,203.9072,249.2031,207.9072,239.2031,203.9072,243.2031" style="stroke:#A80036;stroke-width:1;"/><line style="stroke:#A80036;stroke-width:1.5;" x1="203.9072" x2="203.9072" y1="693.7925" y2="713.7925"/><polygon fill="#A80036" points="199.9072,703.7925,203.9072,713.7925,207.9072,703.7925,203.9072,707.7925" style="stroke:#A80036;stroke-width:1;"/><!--SRC=[XL8xJWCn4ErzYYcJYZvRe0X5ea08YHDCl4uOuNXM7cyGt8O3KEK0IEp5UDva8KsKnckjtfjv7zkh9CfgmRaY9GPQxjOIKWdqe9wZSrOu5xUu5okQXUcTsh2H95w6GyAT8XCWWOa9PvGFperpYxkeYJCfiI_zyJVG1aA807PgKWSgTLcIbuvZ0n8cPApeYnmPcNTC7MUcg4QU8KwjSMyl0gcpd-ydDawGO1ZJXpM-8H5F5cArS3id4gFPeywd1Ge16-Z2_hfaelP9u4JOcYl0JG_5i1U3tS2GrrGo5xr60rGWQvjv3EyI7FduuT3ALYk3koZ-Zx3QS-p7YCOiS9kW4F6VWPNXiu1MdIpZZdseNPpYgn6T5p2crBYGsbEipyFN70skqbxEM7oXjd5ShSb2BQhbfZuQxNu1]--></g></svg>