<?xml version="1.0" encoding="us-ascii" standalone="no"?><svg xmlns="http://www.w3.org/2000/svg" xmlns:xlink="http://www.w3.org/1999/xlink" contentStyleType="text/css" height="1235px" preserveAspectRatio="none" style="width:549px;height:1235px;background:#FFFFFF;" version="1.1" viewBox="0 0 549 1235" width="549px" zoomAndPan="magnify"><defs><filter height="300%" id="f14g9ub7q795gm" width="300%" x="-1" y="-1"><feGaussianBlur result="blurOut" stdDeviation="2.0"/><feColorMatrix in="blurOut" result="blurOut2" type="matrix" values="0 0 0 0 0 0 0 0 0 0 0 0 0 0 0 0 0 0 .4 0"/><feOffset dx="4.0" dy="4.0" in="blurOut2" result="blurOut3"/><feBlend in="SourceGraphic" in2="blurOut3" mode="normal"/></filter></defs><g><text fill="#000000" font-family="sans-serif" font-size="14" font-weight="bold" lengthAdjust="spacing" textLength="161" x="192.5" y="32.9951">Ambiente Desarrollo</text><ellipse cx="235" cy="57.2969" fill="#000000" filter="url(#f14g9ub7q795gm)" rx="10" ry="10" style="stroke:#000000;stroke-width:1.0;"/><rect fill="#FEFECE" filter="url(#f14g9ub7q795gm)" height="33.9688" rx="12.5" ry="12.5" style="stroke:#A80036;stroke-width:1.5;" width="387" x="41.5" y="87.2969"/><text fill="#000000" font-family="sans-serif" font-size="12" lengthAdjust="spacing" textLength="367" x="51.5" y="108.4355">Crear Pull Request con los cambios hacia la rama principal</text><rect fill="#FEFECE" filter="url(#f14g9ub7q795gm)" height="33.9688" rx="12.5" ry="12.5" style="stroke:#A80036;stroke-width:1.5;" width="282" x="94" y="189.668"/><text fill="#000000" font-family="sans-serif" font-size="12" lengthAdjust="spacing" textLength="262" x="104" y="210.8066">Inicio de revisi&#243;n de c&#243;digo (Code Review)</text><rect fill="#FEFECE" filter="url(#f14g9ub7q795gm)" height="33.9688" rx="12.5" ry="12.5" style="stroke:#A80036;stroke-width:1.5;" width="213" x="128.5" y="292.0391"/><text fill="#000000" font-family="sans-serif" font-size="12" lengthAdjust="spacing" textLength="193" x="138.5" y="313.1777">Iniciar pruebas en servidor dev</text><rect fill="#FEFECE" filter="url(#f14g9ub7q795gm)" height="33.9688" rx="12.5" ry="12.5" style="stroke:#A80036;stroke-width:1.5;" width="292" x="89" y="346.0078"/><text fill="#000000" font-family="sans-serif" font-size="12" lengthAdjust="spacing" textLength="272" x="99" y="367.1465">Registrar metadatos y enviar notificaciones</text><rect fill="#FEFECE" filter="url(#f14g9ub7q795gm)" height="33.9688" rx="12.5" ry="12.5" style="stroke:#A80036;stroke-width:1.5;" width="346" x="62" y="399.9766"/><text fill="#000000" font-family="sans-serif" font-size="12" lengthAdjust="spacing" textLength="326" x="72" y="421.1152">Ejecutar pruebas unitarias, funcionales, integraci&#243;n</text><rect fill="#FEFECE" filter="url(#f14g9ub7q795gm)" height="33.9688" rx="12.5" ry="12.5" style="stroke:#A80036;stroke-width:1.5;" width="222" x="124" y="453.9453"/><text fill="#000000" font-family="sans-serif" font-size="12" lengthAdjust="spacing" textLength="202" x="134" y="475.084">Ejecutar pruebas de aceptaci&#243;n</text><rect fill="#FEFECE" filter="url(#f14g9ub7q795gm)" height="33.9688" rx="12.5" ry="12.5" style="stroke:#A80036;stroke-width:1.5;" width="216" x="127" y="556.3164"/><text fill="#000000" font-family="sans-serif" font-size="12" lengthAdjust="spacing" textLength="196" x="137" y="577.4551">Obtener &#250;ltima versi&#243;n de main</text><rect fill="#FEFECE" filter="url(#f14g9ub7q795gm)" height="33.9688" rx="12.5" ry="12.5" style="stroke:#A80036;stroke-width:1.5;" width="89" x="190.5" y="673.6875"/><text fill="#000000" font-family="sans-serif" font-size="12" lengthAdjust="spacing" textLength="69" x="200.5" y="694.8262">Aceptar PR</text><rect fill="#FEFECE" filter="url(#f14g9ub7q795gm)" height="33.9688" rx="12.5" ry="12.5" style="stroke:#A80036;stroke-width:1.5;" width="448" x="11" y="727.6563"/><text fill="#000000" font-family="sans-serif" font-size="12" lengthAdjust="spacing" textLength="428" x="21" y="748.7949">Realizar Squash Commits en rama main (usar conventional commits)</text><rect fill="#FEFECE" filter="url(#f14g9ub7q795gm)" height="33.9688" rx="12.5" ry="12.5" style="stroke:#A80036;stroke-width:1.5;" width="148" x="161" y="784.1406"/><text fill="#000000" font-family="sans-serif" font-size="12" lengthAdjust="spacing" textLength="128" x="171" y="805.2793">Eliminar rama del PR</text><rect fill="#FEFECE" filter="url(#f14g9ub7q795gm)" height="33.9688" rx="12.5" ry="12.5" style="stroke:#A80036;stroke-width:1.5;" width="248" x="111" y="838.1094"/><text fill="#000000" font-family="sans-serif" font-size="12" lengthAdjust="spacing" textLength="228" x="121" y="859.248">Iniciar pruebas en ambiente Staging</text><ellipse cx="235" cy="903.0781" fill="none" filter="url(#f14g9ub7q795gm)" rx="11" ry="11" style="stroke:#000000;stroke-width:1.0;"/><ellipse cx="235" cy="903.0781" fill="#000000" rx="6" ry="6" style="stroke:#000000;stroke-width:1.0;"/><polygon fill="#FEFECE" filter="url(#f14g9ub7q795gm)" points="160,625.2852,310,625.2852,322,637.2852,310,649.2852,160,649.2852,148,637.2852,160,625.2852" style="stroke:#A80036;stroke-width:1.5;"/><text fill="#000000" font-family="sans-serif" font-size="11" lengthAdjust="spacing" textLength="15" x="239" y="659.4956">No</text><text fill="#000000" font-family="sans-serif" font-size="11" lengthAdjust="spacing" textLength="150" x="160" y="641.0933">&#191;Hay conflictos de merge?</text><polygon fill="#FEFECE" filter="url(#f14g9ub7q795gm)" points="132.5,507.9141,337.5,507.9141,349.5,519.9141,337.5,531.9141,132.5,531.9141,120.5,519.9141,132.5,507.9141" style="stroke:#A80036;stroke-width:1.5;"/><text fill="#000000" font-family="sans-serif" font-size="11" lengthAdjust="spacing" textLength="11" x="239" y="542.1245">S&#237;</text><text fill="#000000" font-family="sans-serif" font-size="11" lengthAdjust="spacing" textLength="205" x="132.5" y="523.7222">&#191;Pruebas exitosas en servidor Dev?</text><polygon fill="#FEFECE" filter="url(#f14g9ub7q795gm)" points="235,956.0781,247,968.0781,235,980.0781,223,968.0781,235,956.0781" style="stroke:#A80036;stroke-width:1.5;"/><polygon fill="#FEFECE" filter="url(#f14g9ub7q795gm)" points="153.5,243.6367,316.5,243.6367,328.5,255.6367,316.5,267.6367,153.5,267.6367,141.5,255.6367,153.5,243.6367" style="stroke:#A80036;stroke-width:1.5;"/><text fill="#000000" font-family="sans-serif" font-size="11" lengthAdjust="spacing" textLength="11" x="239" y="277.8472">S&#237;</text><text fill="#000000" font-family="sans-serif" font-size="11" lengthAdjust="spacing" textLength="163" x="153.5" y="259.4448">&#191;Revisi&#243;n de c&#243;digo Exitoso?</text><polygon fill="#FEFECE" filter="url(#f14g9ub7q795gm)" points="235,1000.0781,247,1012.0781,235,1024.0781,223,1012.0781,235,1000.0781" style="stroke:#A80036;stroke-width:1.5;"/><polygon fill="#FEFECE" filter="url(#f14g9ub7q795gm)" points="151.5,141.2656,318.5,141.2656,330.5,153.2656,318.5,165.2656,151.5,165.2656,139.5,153.2656,151.5,141.2656" style="stroke:#A80036;stroke-width:1.5;"/><text fill="#000000" font-family="sans-serif" font-size="11" lengthAdjust="spacing" textLength="11" x="239" y="175.4761">S&#237;</text><text fill="#000000" font-family="sans-serif" font-size="11" lengthAdjust="spacing" textLength="167" x="151.5" y="157.0737">&#191;Pruebas est&#225;ticas exitosas?</text><polygon fill="#FEFECE" filter="url(#f14g9ub7q795gm)" points="235,1044.0781,247,1056.0781,235,1068.0781,223,1056.0781,235,1044.0781" style="stroke:#A80036;stroke-width:1.5;"/><rect fill="#FEFECE" filter="url(#f14g9ub7q795gm)" height="33.9688" rx="12.5" ry="12.5" style="stroke:#A80036;stroke-width:1.5;" width="97" x="186.5" y="1088.0781"/><text fill="#000000" font-family="sans-serif" font-size="12" lengthAdjust="spacing" textLength="77" x="196.5" y="1109.2168">Rechazar PR</text><rect fill="#FEFECE" filter="url(#f14g9ub7q795gm)" height="33.9688" rx="12.5" ry="12.5" style="stroke:#A80036;stroke-width:1.5;" width="169" x="150.5" y="1142.0469"/><text fill="#000000" font-family="sans-serif" font-size="12" lengthAdjust="spacing" textLength="149" x="160.5" y="1163.1855">Volver al ambiente local</text><ellipse cx="235" cy="1207.0156" fill="none" filter="url(#f14g9ub7q795gm)" rx="11" ry="11" style="stroke:#000000;stroke-width:1.0;"/><ellipse cx="235" cy="1207.0156" fill="#000000" rx="6" ry="6" style="stroke:#000000;stroke-width:1.0;"/><line style="stroke:#A80036;stroke-width:1.5;" x1="235" x2="235" y1="67.2969" y2="87.2969"/><polygon fill="#A80036" points="231,77.2969,235,87.2969,239,77.2969,235,81.2969" style="stroke:#A80036;stroke-width:1.0;"/><line style="stroke:#A80036;stroke-width:1.5;" x1="235" x2="235" y1="326.0078" y2="346.0078"/><polygon fill="#A80036" points="231,336.0078,235,346.0078,239,336.0078,235,340.0078" style="stroke:#A80036;stroke-width:1.0;"/><line style="stroke:#A80036;stroke-width:1.5;" x1="235" x2="235" y1="379.9766" y2="399.9766"/><polygon fill="#A80036" points="231,389.9766,235,399.9766,239,389.9766,235,393.9766" style="stroke:#A80036;stroke-width:1.0;"/><line style="stroke:#A80036;stroke-width:1.5;" x1="235" x2="235" y1="433.9453" y2="453.9453"/><polygon fill="#A80036" points="231,443.9453,235,453.9453,239,443.9453,235,447.9453" style="stroke:#A80036;stroke-width:1.0;"/><line style="stroke:#A80036;stroke-width:1.5;" x1="235" x2="235" y1="707.6563" y2="727.6563"/><polygon fill="#A80036" points="231,717.6563,235,727.6563,239,717.6563,235,721.6563" style="stroke:#A80036;stroke-width:1.0;"/><line style="stroke:#A80036;stroke-width:1.5;" x1="235" x2="235" y1="761.625" y2="784.1406"/><polygon fill="#A80036" points="231,774.1406,235,784.1406,239,774.1406,235,778.1406" style="stroke:#A80036;stroke-width:1.0;"/><line style="stroke:#A80036;stroke-width:1.5;" x1="235" x2="235" y1="818.1094" y2="838.1094"/><polygon fill="#A80036" points="231,828.1094,235,838.1094,239,828.1094,235,832.1094" style="stroke:#A80036;stroke-width:1.0;"/><line style="stroke:#A80036;stroke-width:1.5;" x1="235" x2="235" y1="872.0781" y2="892.0781"/><polygon fill="#A80036" points="231,882.0781,235,892.0781,239,882.0781,235,886.0781" style="stroke:#A80036;stroke-width:1.0;"/><line style="stroke:#A80036;stroke-width:1.5;" x1="235" x2="235" y1="649.2852" y2="673.6875"/><polygon fill="#A80036" points="231,663.6875,235,673.6875,239,663.6875,235,667.6875" style="stroke:#A80036;stroke-width:1.0;"/><line style="stroke:#A80036;stroke-width:1.5;" x1="322" x2="469" y1="637.2852" y2="637.2852"/><polygon fill="#A80036" points="465,782.1406,469,792.1406,473,782.1406,469,786.1406" style="stroke:#A80036;stroke-width:1.5;"/><line style="stroke:#A80036;stroke-width:1.5;" x1="469" x2="469" y1="637.2852" y2="936.0781"/><line style="stroke:#A80036;stroke-width:1.5;" x1="469" x2="235" y1="936.0781" y2="936.0781"/><line style="stroke:#A80036;stroke-width:1.5;" x1="235" x2="235" y1="936.0781" y2="956.0781"/><polygon fill="#A80036" points="231,946.0781,235,956.0781,239,946.0781,235,950.0781" style="stroke:#A80036;stroke-width:1.0;"/><line style="stroke:#A80036;stroke-width:1.5;" x1="235" x2="235" y1="590.2852" y2="625.2852"/><polygon fill="#A80036" points="231,615.2852,235,625.2852,239,615.2852,235,619.2852" style="stroke:#A80036;stroke-width:1.0;"/><line style="stroke:#A80036;stroke-width:1.5;" x1="235" x2="235" y1="531.9141" y2="556.3164"/><polygon fill="#A80036" points="231,546.3164,235,556.3164,239,546.3164,235,550.3164" style="stroke:#A80036;stroke-width:1.0;"/><line style="stroke:#A80036;stroke-width:1.5;" x1="349.5" x2="487" y1="519.9141" y2="519.9141"/><polygon fill="#A80036" points="483,754.1406,487,764.1406,491,754.1406,487,758.1406" style="stroke:#A80036;stroke-width:1.5;"/><line style="stroke:#A80036;stroke-width:1.5;" x1="487" x2="487" y1="519.9141" y2="968.0781"/><line style="stroke:#A80036;stroke-width:1.5;" x1="487" x2="247" y1="968.0781" y2="968.0781"/><polygon fill="#A80036" points="257,964.0781,247,968.0781,257,972.0781,253,968.0781" style="stroke:#A80036;stroke-width:1.0;"/><line style="stroke:#A80036;stroke-width:1.5;" x1="235" x2="235" y1="487.9141" y2="507.9141"/><polygon fill="#A80036" points="231,497.9141,235,507.9141,239,497.9141,235,501.9141" style="stroke:#A80036;stroke-width:1.0;"/><line style="stroke:#A80036;stroke-width:1.5;" x1="235" x2="235" y1="267.6367" y2="292.0391"/><polygon fill="#A80036" points="231,282.0391,235,292.0391,239,282.0391,235,286.0391" style="stroke:#A80036;stroke-width:1.0;"/><line style="stroke:#A80036;stroke-width:1.5;" x1="328.5" x2="505" y1="255.6367" y2="255.6367"/><polygon fill="#A80036" points="501,631.2031,505,641.2031,509,631.2031,505,635.2031" style="stroke:#A80036;stroke-width:1.5;"/><line style="stroke:#A80036;stroke-width:1.5;" x1="505" x2="505" y1="255.6367" y2="1012.0781"/><line style="stroke:#A80036;stroke-width:1.5;" x1="505" x2="247" y1="1012.0781" y2="1012.0781"/><polygon fill="#A80036" points="257,1008.0781,247,1012.0781,257,1016.0781,253,1012.0781" style="stroke:#A80036;stroke-width:1.0;"/><line style="stroke:#A80036;stroke-width:1.5;" x1="235" x2="235" y1="980.0781" y2="1000.0781"/><polygon fill="#A80036" points="231,990.0781,235,1000.0781,239,990.0781,235,994.0781" style="stroke:#A80036;stroke-width:1.0;"/><line style="stroke:#A80036;stroke-width:1.5;" x1="235" x2="235" y1="223.6367" y2="243.6367"/><polygon fill="#A80036" points="231,233.6367,235,243.6367,239,233.6367,235,237.6367" style="stroke:#A80036;stroke-width:1.0;"/><line style="stroke:#A80036;stroke-width:1.5;" x1="235" x2="235" y1="165.2656" y2="189.668"/><polygon fill="#A80036" points="231,179.668,235,189.668,239,179.668,235,183.668" style="stroke:#A80036;stroke-width:1.0;"/><line style="stroke:#A80036;stroke-width:1.5;" x1="330.5" x2="523" y1="153.2656" y2="153.2656"/><polygon fill="#A80036" points="519,596.7188,523,606.7188,527,596.7188,523,600.7188" style="stroke:#A80036;stroke-width:1.5;"/><line style="stroke:#A80036;stroke-width:1.5;" x1="523" x2="523" y1="153.2656" y2="1056.0781"/><line style="stroke:#A80036;stroke-width:1.5;" x1="523" x2="247" y1="1056.0781" y2="1056.0781"/><polygon fill="#A80036" points="257,1052.0781,247,1056.0781,257,1060.0781,253,1056.0781" style="stroke:#A80036;stroke-width:1.0;"/><line style="stroke:#A80036;stroke-width:1.5;" x1="235" x2="235" y1="1024.0781" y2="1044.0781"/><polygon fill="#A80036" points="231,1034.0781,235,1044.0781,239,1034.0781,235,1038.0781" style="stroke:#A80036;stroke-width:1.0;"/><line style="stroke:#A80036;stroke-width:1.5;" x1="235" x2="235" y1="121.2656" y2="141.2656"/><polygon fill="#A80036" points="231,131.2656,235,141.2656,239,131.2656,235,135.2656" style="stroke:#A80036;stroke-width:1.0;"/><line style="stroke:#A80036;stroke-width:1.5;" x1="235" x2="235" y1="1068.0781" y2="1088.0781"/><polygon fill="#A80036" points="231,1078.0781,235,1088.0781,239,1078.0781,235,1082.0781" style="stroke:#A80036;stroke-width:1.0;"/><line style="stroke:#A80036;stroke-width:1.5;" x1="235" x2="235" y1="1122.0469" y2="1142.0469"/><polygon fill="#A80036" points="231,1132.0469,235,1142.0469,239,1132.0469,235,1136.0469" style="stroke:#A80036;stroke-width:1.0;"/><line style="stroke:#A80036;stroke-width:1.5;" x1="235" x2="235" y1="1176.0156" y2="1196.0156"/><polygon fill="#A80036" points="231,1186.0156,235,1196.0156,239,1186.0156,235,1190.0156" style="stroke:#A80036;stroke-width:1.0;"/><!--SRC=[TLBDRjim3BxhANXCW3v1SXYADC1ssGe7s9sHQOURBBaIxVwyJH-Wfzvw6J2_s2Z7JfEjErcKlnz-5DDFzX138cE4nH5SDticBmGtb336u5mm9Wb6CMQrYOGHRZldeA2xZfA03HvSI61HYVeze6K4Xn2nGMWZUyijkhKnNC7Yzw_RsD4U4oXtU1Qs-VZ04XAcJqkG0tbOx8QNfJ40go-UBGSe2IBrd7XuzRcmmsl9TO359cXLw2-wNwupu-XHV0JUZYxXqWHWTj5SxToQXqInvp945UZNHrH1DIU9Ycj8i4GLWqV5zfdgWt2bORHRJsbYR7-GxUHCkFEi9MEwWghp6OkEj62TTnsLh2t_Zwj9q58hCsg4pO5FGvqcUH7XXlf_Guyct_P2dY8CRqvONwkdU1fRWpprShHHby_uc9-xScnp-0oYMDD9_6jurrRrwx5TNPTYVNvT43f-qllTNOVf09lGD2nZo-FAP6DOTBfysQpNNHpdfCM8Mrw8RHqtx1KwKajoVxjzyBOuR_XEi6PVd-EJX7OgoPTScVUJcGzJgK7i0P-cWAllmUduG1izwRjWy-9dpJy0]--></g></svg>