<?xml version="1.0" encoding="us-ascii" standalone="no"?><svg xmlns="http://www.w3.org/2000/svg" xmlns:xlink="http://www.w3.org/1999/xlink" contentStyleType="text/css" height="305px" preserveAspectRatio="none" style="width:240px;height:305px;background:#FFFFFF;" version="1.1" viewBox="0 0 240 305" width="240px" zoomAndPan="magnify"><defs/><g><!--entity MetaData--><g id="elem_MetaData"><rect fill="#F1F1F1" height="46.2969" rx="2.5" ry="2.5" style="stroke:#181818;stroke-width:0.5;" width="106" x="7" y="7"/><rect fill="#F1F1F1" height="10" style="stroke:#181818;stroke-width:0.5;" width="15" x="93" y="12"/><rect fill="#F1F1F1" height="2" style="stroke:#181818;stroke-width:0.5;" width="4" x="91" y="14"/><rect fill="#F1F1F1" height="2" style="stroke:#181818;stroke-width:0.5;" width="4" x="91" y="18"/><text fill="#000000" font-family="sans-serif" font-size="14" lengthAdjust="spacing" textLength="66" x="22" y="39.9951">MetaData</text></g><!--entity Script--><g id="elem_Script"><rect fill="#F1F1F1" height="46.2969" rx="2.5" ry="2.5" style="stroke:#181818;stroke-width:0.5;" width="79" x="85.5" y="130.3"/><rect fill="#F1F1F1" height="10" style="stroke:#181818;stroke-width:0.5;" width="15" x="144.5" y="135.3"/><rect fill="#F1F1F1" height="2" style="stroke:#181818;stroke-width:0.5;" width="4" x="142.5" y="137.3"/><rect fill="#F1F1F1" height="2" style="stroke:#181818;stroke-width:0.5;" width="4" x="142.5" y="141.3"/><text fill="#000000" font-family="sans-serif" font-size="14" lengthAdjust="spacing" textLength="39" x="100.5" y="163.2951">Script</text></g><!--entity Plantillas--><g id="elem_Plantillas"><rect fill="#F1F1F1" height="46.2969" rx="2.5" ry="2.5" style="stroke:#181818;stroke-width:0.5;" width="99" x="75.5" y="253.59"/><rect fill="#F1F1F1" height="10" style="stroke:#181818;stroke-width:0.5;" width="15" x="154.5" y="258.59"/><rect fill="#F1F1F1" height="2" style="stroke:#181818;stroke-width:0.5;" width="4" x="152.5" y="260.59"/><rect fill="#F1F1F1" height="2" style="stroke:#181818;stroke-width:0.5;" width="4" x="152.5" y="264.59"/><text fill="#000000" font-family="sans-serif" font-size="14" lengthAdjust="spacing" textLength="59" x="90.5" y="286.5851">Plantillas</text></g><!--entity Alertas--><g id="elem_Alertas"><rect fill="#F1F1F1" height="46.2969" rx="2.5" ry="2.5" style="stroke:#181818;stroke-width:0.5;" width="87" x="147.5" y="7"/><rect fill="#F1F1F1" height="10" style="stroke:#181818;stroke-width:0.5;" width="15" x="214.5" y="12"/><rect fill="#F1F1F1" height="2" style="stroke:#181818;stroke-width:0.5;" width="4" x="212.5" y="14"/><rect fill="#F1F1F1" height="2" style="stroke:#181818;stroke-width:0.5;" width="4" x="212.5" y="18"/><text fill="#000000" font-family="sans-serif" font-size="14" lengthAdjust="spacing" textLength="47" x="162.5" y="39.9951">Alertas</text></g><!--link MetaData to Script--><g id="link_MetaData_Script"><path d="M68.59,53.75 C74.11,67.5 81.78,85.25 90,100.3 C95.49,110.34 98.961,115.9825 105.161,124.9625 " fill="none" id="MetaData-to-Script" style="stroke:#181818;stroke-width:1.0;stroke-dasharray:7.0,7.0;"/><polygon fill="#181818" points="108.57,129.9,106.7482,120.2211,105.7292,125.7854,100.1649,124.7664,108.57,129.9" style="stroke:#181818;stroke-width:1.0;"/><text fill="#000000" font-family="sans-serif" font-size="13" lengthAdjust="spacing" textLength="56" x="91" y="96.3669">alimenta</text></g><!--link Script to Plantillas--><g id="link_Script_Plantillas"><path d="M125,176.98 C125,198.76 125,225.59 125,247.33 " fill="none" id="Script-to-Plantillas" style="stroke:#181818;stroke-width:1.0;stroke-dasharray:7.0,7.0;"/><polygon fill="#181818" points="125,253.33,129,244.33,125,248.33,121,244.33,125,253.33" style="stroke:#181818;stroke-width:1.0;"/><text fill="#000000" font-family="sans-serif" font-size="13" lengthAdjust="spacing" textLength="23" x="126" y="219.6569">usa</text></g><!--reverse link Alertas to Script--><g id="link_Alertas_Script"><path d="M175.8735,58.951 C164.0235,80.741 149.03,108.29 137.19,130.03 " fill="none" id="Alertas-backto-Script" style="stroke:#181818;stroke-width:1.0;stroke-dasharray:7.0,7.0;"/><polygon fill="#181818" points="178.74,53.68,170.9263,59.6755,176.3512,58.0725,177.9542,63.4975,178.74,53.68" style="stroke:#181818;stroke-width:1.0;"/><text fill="#000000" font-family="sans-serif" font-size="13" lengthAdjust="spacing" textLength="45" x="162" y="96.3669">genera</text></g><!--SRC=[Y_PDBKbqIIn9Z5NGqxDJY0vEBieiA8bLi598pCdCJSqhIUI2Yu4L1EGavfLavkGa5eCKbHO3vHrpKejAG7mRFJsu2LOAwQbvgKM90000]--></g></svg>