<svg xmlns="http://www.w3.org/2000/svg" xmlns:xlink="http://www.w3.org/1999/xlink" contentStyleType="text/css" data-diagram-type="ACTIVITY" height="1235px" preserveAspectRatio="none" style="width:538px;height:1235px;background:#FFFFFF;" version="1.1" viewBox="0 0 538 1235" width="538px" zoomAndPan="magnify"><title>Ambiente Desarrollo</title><defs><filter height="300%" id="f14g9ub7q795gm" width="300%" x="-1" y="-1"><feGaussianBlur result="blurOut" stdDeviation="2"/><feColorMatrix in="blurOut" result="blurOut2" type="matrix" values="0 0 0 0 0 0 0 0 0 0 0 0 0 0 0 0 0 0 .4 0"/><feOffset dx="4" dy="4" in="blurOut2" result="blurOut3"/><feBlend in="SourceGraphic" in2="blurOut3" mode="normal"/></filter></defs><g><text fill="#000000" font-family="sans-serif" font-size="14" font-weight="bold" lengthAdjust="spacing" textLength="162.3057" x="186.353" y="32.9951">Ambiente Desarrollo</text><ellipse cx="229.5059" cy="57.2969" fill="#000000" filter="url(#f14g9ub7q795gm)" rx="10" ry="10" style="stroke:#000000;stroke-width:1;"/><rect fill="#FEFECE" filter="url(#f14g9ub7q795gm)" height="33.9688" rx="12.5" ry="12.5" style="stroke:#A80036;stroke-width:1.5;" width="372.752" x="43.1299" y="87.2969"/><text fill="#000000" font-family="sans-serif" font-size="12" lengthAdjust="spacing" textLength="352.752" x="53.1299" y="108.4355">Crear Pull Request con los cambios hacia la rama principal</text><rect fill="#FEFECE" filter="url(#f14g9ub7q795gm)" height="33.9688" rx="12.5" ry="12.5" style="stroke:#A80036;stroke-width:1.5;" width="275.2109" x="91.9004" y="189.668"/><text fill="#000000" font-family="sans-serif" font-size="12" lengthAdjust="spacing" textLength="255.2109" x="101.9004" y="210.8066">Inicio de revisi&#243;n de c&#243;digo (Code Review)</text><rect fill="#FEFECE" filter="url(#f14g9ub7q795gm)" height="33.9688" rx="12.5" ry="12.5" style="stroke:#A80036;stroke-width:1.5;" width="206.7031" x="126.1543" y="292.0391"/><text fill="#000000" font-family="sans-serif" font-size="12" lengthAdjust="spacing" textLength="186.7031" x="136.1543" y="313.1777">Iniciar pruebas en servidor dev</text><rect fill="#FEFECE" filter="url(#f14g9ub7q795gm)" height="33.9688" rx="12.5" ry="12.5" style="stroke:#A80036;stroke-width:1.5;" width="282.3301" x="88.3408" y="346.0078"/><text fill="#000000" font-family="sans-serif" font-size="12" lengthAdjust="spacing" textLength="262.3301" x="98.3408" y="367.1465">Registrar metadatos y enviar notificaciones</text><rect fill="#FEFECE" filter="url(#f14g9ub7q795gm)" height="33.9688" rx="12.5" ry="12.5" style="stroke:#A80036;stroke-width:1.5;" width="330.0664" x="64.4727" y="399.9766"/><text fill="#000000" font-family="sans-serif" font-size="12" lengthAdjust="spacing" textLength="310.0664" x="74.4727" y="421.1152">Ejecutar pruebas unitarias, funcionales, integraci&#243;n</text><rect fill="#FEFECE" filter="url(#f14g9ub7q795gm)" height="33.9688" rx="12.5" ry="12.5" style="stroke:#A80036;stroke-width:1.5;" width="210.5879" x="124.2119" y="453.9453"/><text fill="#000000" font-family="sans-serif" font-size="12" lengthAdjust="spacing" textLength="190.5879" x="134.2119" y="475.084">Ejecutar pruebas de aceptaci&#243;n</text><rect fill="#FEFECE" filter="url(#f14g9ub7q795gm)" height="33.9688" rx="12.5" ry="12.5" style="stroke:#A80036;stroke-width:1.5;" width="211.2852" x="123.8633" y="556.3164"/><text fill="#000000" font-family="sans-serif" font-size="12" lengthAdjust="spacing" textLength="191.2852" x="133.8633" y="577.4551">Obtener &#250;ltima versi&#243;n de main</text><rect fill="#FEFECE" filter="url(#f14g9ub7q795gm)" height="33.9688" rx="12.5" ry="12.5" style="stroke:#A80036;stroke-width:1.5;" width="86.1875" x="186.4121" y="673.6875"/><text fill="#000000" font-family="sans-serif" font-size="12" lengthAdjust="spacing" textLength="66.1875" x="196.4121" y="694.8262">Aceptar PR</text><rect fill="#FEFECE" filter="url(#f14g9ub7q795gm)" height="33.9688" rx="12.5" ry="12.5" style="stroke:#A80036;stroke-width:1.5;" width="437.0117" x="11" y="727.6563"/><text fill="#000000" font-family="sans-serif" font-size="12" lengthAdjust="spacing" textLength="417.0117" x="21" y="748.7949">Realizar Squash Commits en rama main (usar conventional commits)</text><rect fill="#FEFECE" filter="url(#f14g9ub7q795gm)" height="33.9688" rx="12.5" ry="12.5" style="stroke:#A80036;stroke-width:1.5;" width="145.8477" x="156.582" y="784.1406"/><text fill="#000000" font-family="sans-serif" font-size="12" lengthAdjust="spacing" textLength="125.8477" x="166.582" y="805.2793">Eliminar rama del PR</text><rect fill="#FEFECE" filter="url(#f14g9ub7q795gm)" height="33.9688" rx="12.5" ry="12.5" style="stroke:#A80036;stroke-width:1.5;" width="238.625" x="110.1934" y="838.1094"/><text fill="#000000" font-family="sans-serif" font-size="12" lengthAdjust="spacing" textLength="218.625" x="120.1934" y="859.248">Iniciar pruebas en ambiente Staging</text><ellipse cx="229.5059" cy="903.0781" fill="none" filter="url(#f14g9ub7q795gm)" rx="11" ry="11" style="stroke:#000000;stroke-width:1;"/><ellipse cx="229.5059" cy="903.0781" fill="#000000" rx="6" ry="6" style="stroke:#000000;stroke-width:1;"/><polygon fill="#FEFECE" filter="url(#f14g9ub7q795gm)" points="156.6309,625.2852,302.3809,625.2852,314.3809,637.2852,302.3809,649.2852,156.6309,649.2852,144.6309,637.2852,156.6309,625.2852" style="stroke:#A80036;stroke-width:1.5;"/><text fill="#000000" font-family="sans-serif" font-size="11" lengthAdjust="spacing" textLength="14.9585" x="233.5059" y="659.4956">No</text><text fill="#000000" font-family="sans-serif" font-size="11" lengthAdjust="spacing" textLength="145.75" x="156.6309" y="641.0933">&#191;Hay conflictos de merge?</text><polygon fill="#FEFECE" filter="url(#f14g9ub7q795gm)" points="131.5559,507.9141,327.4558,507.9141,339.4558,519.9141,327.4558,531.9141,131.5559,531.9141,119.5559,519.9141,131.5559,507.9141" style="stroke:#A80036;stroke-width:1.5;"/><text fill="#000000" font-family="sans-serif" font-size="11" lengthAdjust="spacing" textLength="10.0386" x="233.5059" y="542.1245">S&#237;</text><text fill="#000000" font-family="sans-serif" font-size="11" lengthAdjust="spacing" textLength="195.8999" x="131.5559" y="523.7222">&#191;Pruebas exitosas en servidor Dev?</text><polygon fill="#FEFECE" filter="url(#f14g9ub7q795gm)" points="229.5059,956.0781,241.5059,968.0781,229.5059,980.0781,217.5059,968.0781,229.5059,956.0781" style="stroke:#A80036;stroke-width:1.5;"/><polygon fill="#FEFECE" filter="url(#f14g9ub7q795gm)" points="150.0405,243.6367,308.9712,243.6367,320.9712,255.6367,308.9712,267.6367,150.0405,267.6367,138.0405,255.6367,150.0405,243.6367" style="stroke:#A80036;stroke-width:1.5;"/><text fill="#000000" font-family="sans-serif" font-size="11" lengthAdjust="spacing" textLength="10.0386" x="233.5059" y="277.8472">S&#237;</text><text fill="#000000" font-family="sans-serif" font-size="11" lengthAdjust="spacing" textLength="158.9307" x="150.0405" y="259.4448">&#191;Revisi&#243;n de c&#243;digo Exitoso?</text><polygon fill="#FEFECE" filter="url(#f14g9ub7q795gm)" points="229.5059,1000.0781,241.5059,1012.0781,229.5059,1024.0781,217.5059,1012.0781,229.5059,1000.0781" style="stroke:#A80036;stroke-width:1.5;"/><polygon fill="#FEFECE" filter="url(#f14g9ub7q795gm)" points="150.4863,141.2656,308.5254,141.2656,320.5254,153.2656,308.5254,165.2656,150.4863,165.2656,138.4863,153.2656,150.4863,141.2656" style="stroke:#A80036;stroke-width:1.5;"/><text fill="#000000" font-family="sans-serif" font-size="11" lengthAdjust="spacing" textLength="10.0386" x="233.5059" y="175.4761">S&#237;</text><text fill="#000000" font-family="sans-serif" font-size="11" lengthAdjust="spacing" textLength="158.0391" x="150.4863" y="157.0737">&#191;Pruebas est&#225;ticas exitosas?</text><polygon fill="#FEFECE" filter="url(#f14g9ub7q795gm)" points="229.5059,1044.0781,241.5059,1056.0781,229.5059,1068.0781,217.5059,1056.0781,229.5059,1044.0781" style="stroke:#A80036;stroke-width:1.5;"/><rect fill="#FEFECE" filter="url(#f14g9ub7q795gm)" height="33.9688" rx="12.5" ry="12.5" style="stroke:#A80036;stroke-width:1.5;" width="95.252" x="181.8799" y="1088.0781"/><text fill="#000000" font-family="sans-serif" font-size="12" lengthAdjust="spacing" textLength="75.252" x="191.8799" y="1109.2168">Rechazar PR</text><rect fill="#FEFECE" filter="url(#f14g9ub7q795gm)" height="33.9688" rx="12.5" ry="12.5" style="stroke:#A80036;stroke-width:1.5;" width="165.4648" x="146.7734" y="1142.0469"/><text fill="#000000" font-family="sans-serif" font-size="12" lengthAdjust="spacing" textLength="145.4648" x="156.7734" y="1163.1855">Volver al ambiente local</text><ellipse cx="229.5059" cy="1207.0156" fill="none" filter="url(#f14g9ub7q795gm)" rx="11" ry="11" style="stroke:#000000;stroke-width:1;"/><ellipse cx="229.5059" cy="1207.0156" fill="#000000" rx="6" ry="6" style="stroke:#000000;stroke-width:1;"/><line style="stroke:#A80036;stroke-width:1.5;" x1="229.5059" x2="229.5059" y1="67.2969" y2="87.2969"/><polygon fill="#A80036" points="225.5059,77.2969,229.5059,87.2969,233.5059,77.2969,229.5059,81.2969" style="stroke:#A80036;stroke-width:1;"/><line style="stroke:#A80036;stroke-width:1.5;" x1="229.5059" x2="229.5059" y1="326.0078" y2="346.0078"/><polygon fill="#A80036" points="225.5059,336.0078,229.5059,346.0078,233.5059,336.0078,229.5059,340.0078" style="stroke:#A80036;stroke-width:1;"/><line style="stroke:#A80036;stroke-width:1.5;" x1="229.5059" x2="229.5059" y1="379.9766" y2="399.9766"/><polygon fill="#A80036" points="225.5059,389.9766,229.5059,399.9766,233.5059,389.9766,229.5059,393.9766" style="stroke:#A80036;stroke-width:1;"/><line style="stroke:#A80036;stroke-width:1.5;" x1="229.5059" x2="229.5059" y1="433.9453" y2="453.9453"/><polygon fill="#A80036" points="225.5059,443.9453,229.5059,453.9453,233.5059,443.9453,229.5059,447.9453" style="stroke:#A80036;stroke-width:1;"/><line style="stroke:#A80036;stroke-width:1.5;" x1="229.5059" x2="229.5059" y1="707.6563" y2="727.6563"/><polygon fill="#A80036" points="225.5059,717.6563,229.5059,727.6563,233.5059,717.6563,229.5059,721.6563" style="stroke:#A80036;stroke-width:1;"/><line style="stroke:#A80036;stroke-width:1.5;" x1="229.5059" x2="229.5059" y1="761.625" y2="784.1406"/><polygon fill="#A80036" points="225.5059,774.1406,229.5059,784.1406,233.5059,774.1406,229.5059,778.1406" style="stroke:#A80036;stroke-width:1;"/><line style="stroke:#A80036;stroke-width:1.5;" x1="229.5059" x2="229.5059" y1="818.1094" y2="838.1094"/><polygon fill="#A80036" points="225.5059,828.1094,229.5059,838.1094,233.5059,828.1094,229.5059,832.1094" style="stroke:#A80036;stroke-width:1;"/><line style="stroke:#A80036;stroke-width:1.5;" x1="229.5059" x2="229.5059" y1="872.0781" y2="892.0781"/><polygon fill="#A80036" points="225.5059,882.0781,229.5059,892.0781,233.5059,882.0781,229.5059,886.0781" style="stroke:#A80036;stroke-width:1;"/><line style="stroke:#A80036;stroke-width:1.5;" x1="229.5059" x2="229.5059" y1="649.2852" y2="673.6875"/><polygon fill="#A80036" points="225.5059,663.6875,229.5059,673.6875,233.5059,663.6875,229.5059,667.6875" style="stroke:#A80036;stroke-width:1;"/><line style="stroke:#A80036;stroke-width:1.5;" x1="314.3809" x2="458.0117" y1="637.2852" y2="637.2852"/><polygon fill="#A80036" points="454.0117,782.1406,458.0117,792.1406,462.0117,782.1406,458.0117,786.1406" style="stroke:#A80036;stroke-width:1.5;"/><line style="stroke:#A80036;stroke-width:1.5;" x1="458.0117" x2="458.0117" y1="637.2852" y2="936.0781"/><line style="stroke:#A80036;stroke-width:1.5;" x1="458.0117" x2="229.5059" y1="936.0781" y2="936.0781"/><line style="stroke:#A80036;stroke-width:1.5;" x1="229.5059" x2="229.5059" y1="936.0781" y2="956.0781"/><polygon fill="#A80036" points="225.5059,946.0781,229.5059,956.0781,233.5059,946.0781,229.5059,950.0781" style="stroke:#A80036;stroke-width:1;"/><line style="stroke:#A80036;stroke-width:1.5;" x1="229.5059" x2="229.5059" y1="590.2852" y2="625.2852"/><polygon fill="#A80036" points="225.5059,615.2852,229.5059,625.2852,233.5059,615.2852,229.5059,619.2852" style="stroke:#A80036;stroke-width:1;"/><line style="stroke:#A80036;stroke-width:1.5;" x1="229.5059" x2="229.5059" y1="531.9141" y2="556.3164"/><polygon fill="#A80036" points="225.5059,546.3164,229.5059,556.3164,233.5059,546.3164,229.5059,550.3164" style="stroke:#A80036;stroke-width:1;"/><line style="stroke:#A80036;stroke-width:1.5;" x1="339.4558" x2="476.0117" y1="519.9141" y2="519.9141"/><polygon fill="#A80036" points="472.0117,754.1406,476.0117,764.1406,480.0117,754.1406,476.0117,758.1406" style="stroke:#A80036;stroke-width:1.5;"/><line style="stroke:#A80036;stroke-width:1.5;" x1="476.0117" x2="476.0117" y1="519.9141" y2="968.0781"/><line style="stroke:#A80036;stroke-width:1.5;" x1="476.0117" x2="241.5059" y1="968.0781" y2="968.0781"/><polygon fill="#A80036" points="251.5059,964.0781,241.5059,968.0781,251.5059,972.0781,247.5059,968.0781" style="stroke:#A80036;stroke-width:1;"/><line style="stroke:#A80036;stroke-width:1.5;" x1="229.5059" x2="229.5059" y1="487.9141" y2="507.9141"/><polygon fill="#A80036" points="225.5059,497.9141,229.5059,507.9141,233.5059,497.9141,229.5059,501.9141" style="stroke:#A80036;stroke-width:1;"/><line style="stroke:#A80036;stroke-width:1.5;" x1="229.5059" x2="229.5059" y1="267.6367" y2="292.0391"/><polygon fill="#A80036" points="225.5059,282.0391,229.5059,292.0391,233.5059,282.0391,229.5059,286.0391" style="stroke:#A80036;stroke-width:1;"/><line style="stroke:#A80036;stroke-width:1.5;" x1="320.9712" x2="494.0117" y1="255.6367" y2="255.6367"/><polygon fill="#A80036" points="490.0117,631.2031,494.0117,641.2031,498.0117,631.2031,494.0117,635.2031" style="stroke:#A80036;stroke-width:1.5;"/><line style="stroke:#A80036;stroke-width:1.5;" x1="494.0117" x2="494.0117" y1="255.6367" y2="1012.0781"/><line style="stroke:#A80036;stroke-width:1.5;" x1="494.0117" x2="241.5059" y1="1012.0781" y2="1012.0781"/><polygon fill="#A80036" points="251.5059,1008.0781,241.5059,1012.0781,251.5059,1016.0781,247.5059,1012.0781" style="stroke:#A80036;stroke-width:1;"/><line style="stroke:#A80036;stroke-width:1.5;" x1="229.5059" x2="229.5059" y1="980.0781" y2="1000.0781"/><polygon fill="#A80036" points="225.5059,990.0781,229.5059,1000.0781,233.5059,990.0781,229.5059,994.0781" style="stroke:#A80036;stroke-width:1;"/><line style="stroke:#A80036;stroke-width:1.5;" x1="229.5059" x2="229.5059" y1="223.6367" y2="243.6367"/><polygon fill="#A80036" points="225.5059,233.6367,229.5059,243.6367,233.5059,233.6367,229.5059,237.6367" style="stroke:#A80036;stroke-width:1;"/><line style="stroke:#A80036;stroke-width:1.5;" x1="229.5059" x2="229.5059" y1="165.2656" y2="189.668"/><polygon fill="#A80036" points="225.5059,179.668,229.5059,189.668,233.5059,179.668,229.5059,183.668" style="stroke:#A80036;stroke-width:1;"/><line style="stroke:#A80036;stroke-width:1.5;" x1="320.5254" x2="512.0117" y1="153.2656" y2="153.2656"/><polygon fill="#A80036" points="508.0117,596.7188,512.0117,606.7188,516.0117,596.7188,512.0117,600.7188" style="stroke:#A80036;stroke-width:1.5;"/><line style="stroke:#A80036;stroke-width:1.5;" x1="512.0117" x2="512.0117" y1="153.2656" y2="1056.0781"/><line style="stroke:#A80036;stroke-width:1.5;" x1="512.0117" x2="241.5059" y1="1056.0781" y2="1056.0781"/><polygon fill="#A80036" points="251.5059,1052.0781,241.5059,1056.0781,251.5059,1060.0781,247.5059,1056.0781" style="stroke:#A80036;stroke-width:1;"/><line style="stroke:#A80036;stroke-width:1.5;" x1="229.5059" x2="229.5059" y1="1024.0781" y2="1044.0781"/><polygon fill="#A80036" points="225.5059,1034.0781,229.5059,1044.0781,233.5059,1034.0781,229.5059,1038.0781" style="stroke:#A80036;stroke-width:1;"/><line style="stroke:#A80036;stroke-width:1.5;" x1="229.5059" x2="229.5059" y1="121.2656" y2="141.2656"/><polygon fill="#A80036" points="225.5059,131.2656,229.5059,141.2656,233.5059,131.2656,229.5059,135.2656" style="stroke:#A80036;stroke-width:1;"/><line style="stroke:#A80036;stroke-width:1.5;" x1="229.5059" x2="229.5059" y1="1068.0781" y2="1088.0781"/><polygon fill="#A80036" points="225.5059,1078.0781,229.5059,1088.0781,233.5059,1078.0781,229.5059,1082.0781" style="stroke:#A80036;stroke-width:1;"/><line style="stroke:#A80036;stroke-width:1.5;" x1="229.5059" x2="229.5059" y1="1122.0469" y2="1142.0469"/><polygon fill="#A80036" points="225.5059,1132.0469,229.5059,1142.0469,233.5059,1132.0469,229.5059,1136.0469" style="stroke:#A80036;stroke-width:1;"/><line style="stroke:#A80036;stroke-width:1.5;" x1="229.5059" x2="229.5059" y1="1176.0156" y2="1196.0156"/><polygon fill="#A80036" points="225.5059,1186.0156,229.5059,1196.0156,233.5059,1186.0156,229.5059,1190.0156" style="stroke:#A80036;stroke-width:1;"/><!--SRC=[TLBDRjim3BxhANXCW3v1SXYADC1ssGe7s9sHQOURBBaIxVwyJH-Wfzvw6J2_s2Z7JfEjErcKlnz-5DDFzX138cE4nH5SDticBmGtb336u5mm9Wb6CMQrYOGHRZldeA2xZfA03HvSI61HYVeze6K4Xn2nGMWZUyijkhKnNC7Yzw_RsD4U4oXtU1Qs-VZ04XAcJqkG0tbOx8QNfJ40go-UBGSe2IBrd7XuzRcmmsl9TO359cXLw2-wNwupu-XHV0JUZYxXqWHWTj5SxToQXqInvp945UZNHrH1DIU9Ycj8i4GLWqV5zfdgWt2bORHRJsbYR7-GxUHCkFEi9MEwWghp6OkEj62TTnsLh2t_Zwj9q58hCsg4pO5FGvqcUH7XXlf_Guyct_P2dY8CRqvONwkdU1fRWpprShHHby_uc9-xScnp-0oYMDD9_6jurrRrwx5TNPTYVNvT43f-qllTNOVf09lGD2nZo-FAP6DOTBfysQpNNHpdfCM8Mrw8RHqtx1KwKajoVxjzyBOuR_XEi6PVd-EJX7OgoPTScVUJcGzJgK7i0P-cWAllmUduG1izwRjWy-9dpJy0]--></g></svg>