<?plantuml 1.2026.1?><svg xmlns="http://www.w3.org/2000/svg" xmlns:xlink="http://www.w3.org/1999/xlink" contentStyleType="text/css" data-diagram-type="DESCRIPTION" height="305px" preserveAspectRatio="none" style="width:245px;height:305px;background:#FFFFFF;" version="1.1" viewBox="0 0 245 305" width="245px" zoomAndPan="magnify"><defs/><g><!--entity MetaData--><g class="entity" data-qualified-name="MetaData" data-source-line="1" id="ent0002"><rect fill="#F1F1F1" height="46.2969" rx="2.5" ry="2.5" style="stroke:#181818;stroke-width:0.5;" width="108.1885" x="7" y="7"/><rect fill="#F1F1F1" height="10" style="stroke:#181818;stroke-width:0.5;" width="15" x="95.1885" y="12"/><rect fill="#F1F1F1" height="2" style="stroke:#181818;stroke-width:0.5;" width="4" x="93.1885" y="14"/><rect fill="#F1F1F1" height="2" style="stroke:#181818;stroke-width:0.5;" width="4" x="93.1885" y="18"/><text fill="#000000" font-family="sans-serif" font-size="14" lengthAdjust="spacing" textLength="68.1885" x="22" y="39.9951">MetaData</text></g><!--entity Script--><g class="entity" data-qualified-name="Script" data-source-line="1" id="ent0003"><rect fill="#F1F1F1" height="46.2969" rx="2.5" ry="2.5" style="stroke:#181818;stroke-width:0.5;" width="80.6055" x="87.79" y="130.3"/><rect fill="#F1F1F1" height="10" style="stroke:#181818;stroke-width:0.5;" width="15" x="148.3955" y="135.3"/><rect fill="#F1F1F1" height="2" style="stroke:#181818;stroke-width:0.5;" width="4" x="146.3955" y="137.3"/><rect fill="#F1F1F1" height="2" style="stroke:#181818;stroke-width:0.5;" width="4" x="146.3955" y="141.3"/><text fill="#000000" font-family="sans-serif" font-size="14" lengthAdjust="spacing" textLength="40.6055" x="102.79" y="163.2951">Script</text></g><!--entity Plantillas--><g class="entity" data-qualified-name="Plantillas" data-source-line="2" id="ent0005"><rect fill="#F1F1F1" height="46.2969" rx="2.5" ry="2.5" style="stroke:#181818;stroke-width:0.5;" width="102.8154" x="76.69" y="253.59"/><rect fill="#F1F1F1" height="10" style="stroke:#181818;stroke-width:0.5;" width="15" x="159.5054" y="258.59"/><rect fill="#F1F1F1" height="2" style="stroke:#181818;stroke-width:0.5;" width="4" x="157.5054" y="260.59"/><rect fill="#F1F1F1" height="2" style="stroke:#181818;stroke-width:0.5;" width="4" x="157.5054" y="264.59"/><text fill="#000000" font-family="sans-serif" font-size="14" lengthAdjust="spacing" textLength="62.8154" x="91.69" y="286.5851">Plantillas</text></g><!--entity Alertas--><g class="entity" data-qualified-name="Alertas" data-source-line="3" id="ent0007"><rect fill="#F1F1F1" height="46.2969" rx="2.5" ry="2.5" style="stroke:#181818;stroke-width:0.5;" width="89.1982" x="150.5" y="7"/><rect fill="#F1F1F1" height="10" style="stroke:#181818;stroke-width:0.5;" width="15" x="219.6982" y="12"/><rect fill="#F1F1F1" height="2" style="stroke:#181818;stroke-width:0.5;" width="4" x="217.6982" y="14"/><rect fill="#F1F1F1" height="2" style="stroke:#181818;stroke-width:0.5;" width="4" x="217.6982" y="18"/><text fill="#000000" font-family="sans-serif" font-size="14" lengthAdjust="spacing" textLength="49.1982" x="165.5" y="39.9951">Alertas</text></g><!--link MetaData to Script--><g class="link" data-entity-1="ent0002" data-entity-2="ent0003" data-link-type="dependency" data-source-line="1" id="lnk4"><path d="M70.46,53.7 C76.42,67.44 84.6,85.19 93.09,100.3 C98.71,110.28 102.1973,115.8982 108.3873,124.8882" fill="none" id="MetaData-to-Script" style="stroke:#181818;stroke-width:1;stroke-dasharray:7,7;"/><polygon fill="#181818" points="111.79,129.83,109.9806,120.1488,108.9544,125.7118,103.3914,124.6857,111.79,129.83" style="stroke:#181818;stroke-width:1;"/><text fill="#000000" font-family="sans-serif" font-size="13" lengthAdjust="spacing" textLength="57.1543" x="94.09" y="96.3669">alimenta</text></g><!--link Script to Plantillas--><g class="link" data-entity-1="ent0003" data-entity-2="ent0005" data-link-type="dependency" data-source-line="2" id="lnk6"><path d="M128.09,176.98 C128.09,198.76 128.09,225.59 128.09,247.33" fill="none" id="Script-to-Plantillas" style="stroke:#181818;stroke-width:1;stroke-dasharray:7,7;"/><polygon fill="#181818" points="128.09,253.33,132.09,244.33,128.09,248.33,124.09,244.33,128.09,253.33" style="stroke:#181818;stroke-width:1;"/><text fill="#000000" font-family="sans-serif" font-size="13" lengthAdjust="spacing" textLength="22.9785" x="129.09" y="219.6569">usa</text></g><!--reverse link Alertas to Script--><g class="link" data-entity-1="ent0007" data-entity-2="ent0003" data-link-type="dependency" data-source-line="3" id="lnk8"><path d="M179.7482,58.9316 C167.7082,80.7216 152.48,108.29 140.47,130.03" fill="none" id="Alertas-backto-Script" style="stroke:#181818;stroke-width:1;stroke-dasharray:7,7;"/><polygon fill="#181818" points="182.65,53.68,174.7962,59.6229,180.2319,58.0564,181.7984,63.492,182.65,53.68" style="stroke:#181818;stroke-width:1;"/><text fill="#000000" font-family="sans-serif" font-size="13" lengthAdjust="spacing" textLength="45.7983" x="166.09" y="96.3669">genera</text></g><?plantuml-src Y_PDBKbqIIn9Z5NGqxDJY0vEBieiA8bLi598pCdCJSqhIUI2Yu4L1EGavfLavkGa5eCKbHO3vHrpKejAG7mRFJsu2LOAwQbvgKM90000?></g></svg>