<svg xmlns="http://www.w3.org/2000/svg" xmlns:xlink="http://www.w3.org/1999/xlink" contentStyleType="text/css" data-diagram-type="ACTIVITY" height="1149px" preserveAspectRatio="none" style="width:633px;height:1149px;background:#FFFFFF;" version="1.1" viewBox="0 0 633 1149" width="633px" zoomAndPan="magnify"><title>Ambiente Producci&#243;n</title><defs><filter height="300%" id="fogecdapv4saf" width="300%" x="-1" y="-1"><feGaussianBlur result="blurOut" stdDeviation="2"/><feColorMatrix in="blurOut" result="blurOut2" type="matrix" values="0 0 0 0 0 0 0 0 0 0 0 0 0 0 0 0 0 0 .4 0"/><feOffset dx="4" dy="4" in="blurOut2" result="blurOut3"/><feBlend in="SourceGraphic" in2="blurOut3" mode="normal"/></filter></defs><g><text fill="#000000" font-family="sans-serif" font-size="14" font-weight="bold" lengthAdjust="spacing" textLength="168.5195" x="231.1768" y="32.9951">Ambiente Producci&#243;n</text><ellipse cx="336.4341" cy="57.2969" fill="#000000" filter="url(#fogecdapv4saf)" rx="10" ry="10" style="stroke:#000000;stroke-width:1;"/><rect fill="#FEFECE" filter="url(#fogecdapv4saf)" height="33.9688" rx="12.5" ry="12.5" style="stroke:#A80036;stroke-width:1.5;" width="194.5273" x="239.1704" y="87.2969"/><text fill="#000000" font-family="sans-serif" font-size="12" lengthAdjust="spacing" textLength="174.5273" x="249.1704" y="108.4355">Versi&#243;n aprobada en Staging</text><rect fill="#FEFECE" filter="url(#fogecdapv4saf)" height="33.9688" rx="12.5" ry="12.5" style="stroke:#A80036;stroke-width:1.5;" width="167.0234" x="252.9224" y="141.2656"/><text fill="#000000" font-family="sans-serif" font-size="12" lengthAdjust="spacing" textLength="147.0234" x="262.9224" y="162.4043">Iniciar pruebas est&#225;ticas</text><rect fill="#FEFECE" filter="url(#fogecdapv4saf)" height="33.9688" rx="12.5" ry="12.5" style="stroke:#A80036;stroke-width:1.5;" width="330.0664" x="171.4009" y="195.2344"/><text fill="#000000" font-family="sans-serif" font-size="12" lengthAdjust="spacing" textLength="310.0664" x="181.4009" y="216.373">Ejecutar pruebas unitarias, funcionales, integraci&#243;n</text><rect fill="#FEFECE" filter="url(#fogecdapv4saf)" height="33.9688" rx="12.5" ry="12.5" style="stroke:#A80036;stroke-width:1.5;" width="277.3262" x="197.771" y="297.6055"/><text fill="#000000" font-family="sans-serif" font-size="12" lengthAdjust="spacing" textLength="257.3262" x="207.771" y="318.7441">Iniciar proceso de despliegue a Producci&#243;n</text><rect fill="#FEFECE" filter="url(#fogecdapv4saf)" height="33.9688" rx="12.5" ry="12.5" style="stroke:#A80036;stroke-width:1.5;" width="251.1934" x="210.8374" y="395.5742"/><text fill="#000000" font-family="sans-serif" font-size="12" lengthAdjust="spacing" textLength="231.1934" x="220.8374" y="416.7129">Iniciar pruebas en servidor producci&#243;n</text><rect fill="#FEFECE" filter="url(#fogecdapv4saf)" height="33.9688" rx="12.5" ry="12.5" style="stroke:#A80036;stroke-width:1.5;" width="282.3301" x="195.269" y="449.543"/><text fill="#000000" font-family="sans-serif" font-size="12" lengthAdjust="spacing" textLength="262.3301" x="205.269" y="470.6816">Registrar metadatos y enviar notificaciones</text><rect fill="#FEFECE" filter="url(#fogecdapv4saf)" height="33.9688" rx="12.5" ry="12.5" style="stroke:#A80036;stroke-width:1.5;" width="178.9414" x="246.9634" y="503.5117"/><text fill="#000000" font-family="sans-serif" font-size="12" lengthAdjust="spacing" textLength="158.9414" x="256.9634" y="524.6504">Ejecutar pruebas de humo</text><rect fill="#FEFECE" filter="url(#fogecdapv4saf)" height="33.9688" rx="12.5" ry="12.5" style="stroke:#A80036;stroke-width:1.5;" width="148.6836" x="262.0923" y="557.4805"/><text fill="#000000" font-family="sans-serif" font-size="12" lengthAdjust="spacing" textLength="128.6836" x="272.0923" y="578.6191">Ejecutar pruebas E2E</text><rect fill="#FEFECE" filter="url(#fogecdapv4saf)" height="33.9688" rx="12.5" ry="12.5" style="stroke:#A80036;stroke-width:1.5;" width="210.5879" x="231.1401" y="611.4492"/><text fill="#000000" font-family="sans-serif" font-size="12" lengthAdjust="spacing" textLength="190.5879" x="241.1401" y="632.5879">Ejecutar pruebas de aceptaci&#243;n</text><polygon fill="#FEFECE" filter="url(#fogecdapv4saf)" points="283.8833,678.9492,388.9849,678.9492,400.9849,690.9492,388.9849,702.9492,283.8833,702.9492,271.8833,690.9492,283.8833,678.9492" style="stroke:#A80036;stroke-width:1.5;"/><text fill="#000000" font-family="sans-serif" font-size="11" lengthAdjust="spacing" textLength="105.1016" x="283.8833" y="694.7573">&#191;Pruebas exitosas?</text><text fill="#000000" font-family="sans-serif" font-size="11" lengthAdjust="spacing" textLength="10.0386" x="261.8447" y="688.355">S&#237;</text><rect fill="#FEFECE" filter="url(#fogecdapv4saf)" height="33.9688" rx="12.5" ry="12.5" style="stroke:#A80036;stroke-width:1.5;" width="215.9961" x="82.2178" y="712.9492"/><text fill="#000000" font-family="sans-serif" font-size="12" lengthAdjust="spacing" textLength="195.9961" x="92.2178" y="734.0879">Despliegue a producci&#243;n exitoso</text><rect fill="#FEFECE" filter="url(#fogecdapv4saf)" height="33.9688" rx="12.5" ry="12.5" style="stroke:#A80036;stroke-width:1.5;" width="342.3711" x="19.0303" y="766.918"/><text fill="#000000" font-family="sans-serif" font-size="12" lengthAdjust="spacing" textLength="322.3711" x="29.0303" y="788.0566">Marcar versi&#243;n como &#250;ltima disponible en producci&#243;n</text><rect fill="#FEFECE" filter="url(#fogecdapv4saf)" height="33.9688" rx="12.5" ry="12.5" style="stroke:#A80036;stroke-width:1.5;" width="358.4316" x="11" y="820.8867"/><text fill="#000000" font-family="sans-serif" font-size="12" lengthAdjust="spacing" textLength="338.4316" x="21" y="842.0254">Ejecutar pruebas de desempe&#241;o (opcional, perfomance)</text><ellipse cx="190.2158" cy="885.8555" fill="none" filter="url(#fogecdapv4saf)" rx="11" ry="11" style="stroke:#000000;stroke-width:1;"/><ellipse cx="190.2158" cy="885.8555" fill="#000000" rx="6" ry="6" style="stroke:#000000;stroke-width:1;"/><rect fill="#FEFECE" filter="url(#fogecdapv4saf)" height="33.9688" rx="12.5" ry="12.5" style="stroke:#A80036;stroke-width:1.5;" width="186.4414" x="389.4316" y="712.9492"/><text fill="#000000" font-family="sans-serif" font-size="12" lengthAdjust="spacing" textLength="166.4414" x="399.4316" y="734.0879">Marcar versi&#243;n como fallida</text><ellipse cx="482.6523" cy="777.918" fill="none" filter="url(#fogecdapv4saf)" rx="11" ry="11" style="stroke:#000000;stroke-width:1;"/><ellipse cx="482.6523" cy="777.918" fill="#000000" rx="6" ry="6" style="stroke:#000000;stroke-width:1;"/><polygon fill="#FEFECE" filter="url(#fogecdapv4saf)" points="222.6018,351.5742,450.2664,351.5742,462.2664,363.5742,450.2664,375.5742,222.6018,375.5742,210.6018,363.5742,222.6018,351.5742" style="stroke:#A80036;stroke-width:1.5;"/><text fill="#000000" font-family="sans-serif" font-size="11" lengthAdjust="spacing" textLength="227.6646" x="222.6018" y="367.3823">&#191;Proceso de Aprobaci&#243;n Manual Iniciado?</text><rect fill="#FEFECE" filter="url(#fogecdapv4saf)" height="33.9688" rx="12.5" ry="12.5" style="stroke:#A80036;stroke-width:1.5;" width="200.2227" x="236.3228" y="938.8555"/><text fill="#000000" font-family="sans-serif" font-size="12" lengthAdjust="spacing" textLength="180.2227" x="246.3228" y="959.9941">Esperar la aprobaci&#243;n manual</text><ellipse cx="336.4341" cy="1003.8242" fill="none" filter="url(#fogecdapv4saf)" rx="11" ry="11" style="stroke:#000000;stroke-width:1;"/><ellipse cx="336.4341" cy="1003.8242" fill="#000000" rx="6" ry="6" style="stroke:#000000;stroke-width:1;"/><polygon fill="#FEFECE" filter="url(#fogecdapv4saf)" points="283.8833,249.2031,388.9849,249.2031,400.9849,261.2031,388.9849,273.2031,283.8833,273.2031,271.8833,261.2031,283.8833,249.2031" style="stroke:#A80036;stroke-width:1.5;"/><text fill="#000000" font-family="sans-serif" font-size="11" lengthAdjust="spacing" textLength="10.0386" x="340.4341" y="283.4136">S&#237;</text><text fill="#000000" font-family="sans-serif" font-size="11" lengthAdjust="spacing" textLength="105.1016" x="283.8833" y="265.0112">&#191;Pruebas exitosas?</text><rect fill="#FEFECE" filter="url(#fogecdapv4saf)" height="33.9688" rx="12.5" ry="12.5" style="stroke:#A80036;stroke-width:1.5;" width="186.4414" x="243.2134" y="1056.8242"/><text fill="#000000" font-family="sans-serif" font-size="12" lengthAdjust="spacing" textLength="166.4414" x="253.2134" y="1077.9629">Marcar versi&#243;n como fallida</text><ellipse cx="336.4341" cy="1121.793" fill="none" filter="url(#fogecdapv4saf)" rx="11" ry="11" style="stroke:#000000;stroke-width:1;"/><ellipse cx="336.4341" cy="1121.793" fill="#000000" rx="6" ry="6" style="stroke:#000000;stroke-width:1;"/><line style="stroke:#A80036;stroke-width:1.5;" x1="336.4341" x2="336.4341" y1="67.2969" y2="87.2969"/><polygon fill="#A80036" points="332.4341,77.2969,336.4341,87.2969,340.4341,77.2969,336.4341,81.2969" style="stroke:#A80036;stroke-width:1;"/><line style="stroke:#A80036;stroke-width:1.5;" x1="336.4341" x2="336.4341" y1="121.2656" y2="141.2656"/><polygon fill="#A80036" points="332.4341,131.2656,336.4341,141.2656,340.4341,131.2656,336.4341,135.2656" style="stroke:#A80036;stroke-width:1;"/><line style="stroke:#A80036;stroke-width:1.5;" x1="336.4341" x2="336.4341" y1="175.2344" y2="195.2344"/><polygon fill="#A80036" points="332.4341,185.2344,336.4341,195.2344,340.4341,185.2344,336.4341,189.2344" style="stroke:#A80036;stroke-width:1;"/><line style="stroke:#A80036;stroke-width:1.5;" x1="336.4341" x2="336.4341" y1="429.543" y2="449.543"/><polygon fill="#A80036" points="332.4341,439.543,336.4341,449.543,340.4341,439.543,336.4341,443.543" style="stroke:#A80036;stroke-width:1;"/><line style="stroke:#A80036;stroke-width:1.5;" x1="336.4341" x2="336.4341" y1="483.5117" y2="503.5117"/><polygon fill="#A80036" points="332.4341,493.5117,336.4341,503.5117,340.4341,493.5117,336.4341,497.5117" style="stroke:#A80036;stroke-width:1;"/><line style="stroke:#A80036;stroke-width:1.5;" x1="336.4341" x2="336.4341" y1="537.4805" y2="557.4805"/><polygon fill="#A80036" points="332.4341,547.4805,336.4341,557.4805,340.4341,547.4805,336.4341,551.4805" style="stroke:#A80036;stroke-width:1;"/><line style="stroke:#A80036;stroke-width:1.5;" x1="336.4341" x2="336.4341" y1="591.4492" y2="611.4492"/><polygon fill="#A80036" points="332.4341,601.4492,336.4341,611.4492,340.4341,601.4492,336.4341,605.4492" style="stroke:#A80036;stroke-width:1;"/><line style="stroke:#A80036;stroke-width:1.5;" x1="190.2158" x2="190.2158" y1="746.918" y2="766.918"/><polygon fill="#A80036" points="186.2158,756.918,190.2158,766.918,194.2158,756.918,190.2158,760.918" style="stroke:#A80036;stroke-width:1;"/><line style="stroke:#A80036;stroke-width:1.5;" x1="190.2158" x2="190.2158" y1="800.8867" y2="820.8867"/><polygon fill="#A80036" points="186.2158,810.8867,190.2158,820.8867,194.2158,810.8867,190.2158,814.8867" style="stroke:#A80036;stroke-width:1;"/><line style="stroke:#A80036;stroke-width:1.5;" x1="190.2158" x2="190.2158" y1="854.8555" y2="874.8555"/><polygon fill="#A80036" points="186.2158,864.8555,190.2158,874.8555,194.2158,864.8555,190.2158,868.8555" style="stroke:#A80036;stroke-width:1;"/><line style="stroke:#A80036;stroke-width:1.5;" x1="482.6523" x2="482.6523" y1="746.918" y2="766.918"/><polygon fill="#A80036" points="478.6523,756.918,482.6523,766.918,486.6523,756.918,482.6523,760.918" style="stroke:#A80036;stroke-width:1;"/><line style="stroke:#A80036;stroke-width:1.5;" x1="271.8833" x2="190.2158" y1="690.9492" y2="690.9492"/><line style="stroke:#A80036;stroke-width:1.5;" x1="190.2158" x2="190.2158" y1="690.9492" y2="712.9492"/><polygon fill="#A80036" points="186.2158,702.9492,190.2158,712.9492,194.2158,702.9492,190.2158,706.9492" style="stroke:#A80036;stroke-width:1;"/><line style="stroke:#A80036;stroke-width:1.5;" x1="400.9849" x2="482.6523" y1="690.9492" y2="690.9492"/><line style="stroke:#A80036;stroke-width:1.5;" x1="482.6523" x2="482.6523" y1="690.9492" y2="712.9492"/><polygon fill="#A80036" points="478.6523,702.9492,482.6523,712.9492,486.6523,702.9492,482.6523,706.9492" style="stroke:#A80036;stroke-width:1;"/><line style="stroke:#A80036;stroke-width:1.5;" x1="336.4341" x2="336.4341" y1="645.418" y2="678.9492"/><polygon fill="#A80036" points="332.4341,668.9492,336.4341,678.9492,340.4341,668.9492,336.4341,672.9492" style="stroke:#A80036;stroke-width:1;"/><line style="stroke:#A80036;stroke-width:1.5;" x1="336.4341" x2="336.4341" y1="375.5742" y2="395.5742"/><polygon fill="#A80036" points="332.4341,385.5742,336.4341,395.5742,340.4341,385.5742,336.4341,389.5742" style="stroke:#A80036;stroke-width:1;"/><line style="stroke:#A80036;stroke-width:1.5;" x1="462.2664" x2="589.873" y1="363.5742" y2="363.5742"/><polygon fill="#A80036" points="585.873,629.4492,589.873,639.4492,593.873,629.4492,589.873,633.4492" style="stroke:#A80036;stroke-width:1.5;"/><line style="stroke:#A80036;stroke-width:1.5;" x1="589.873" x2="589.873" y1="363.5742" y2="918.8555"/><line style="stroke:#A80036;stroke-width:1.5;" x1="589.873" x2="336.4341" y1="918.8555" y2="918.8555"/><line style="stroke:#A80036;stroke-width:1.5;" x1="336.4341" x2="336.4341" y1="918.8555" y2="938.8555"/><polygon fill="#A80036" points="332.4341,928.8555,336.4341,938.8555,340.4341,928.8555,336.4341,932.8555" style="stroke:#A80036;stroke-width:1;"/><line style="stroke:#A80036;stroke-width:1.5;" x1="336.4341" x2="336.4341" y1="331.5742" y2="351.5742"/><polygon fill="#A80036" points="332.4341,341.5742,336.4341,351.5742,340.4341,341.5742,336.4341,345.5742" style="stroke:#A80036;stroke-width:1;"/><line style="stroke:#A80036;stroke-width:1.5;" x1="336.4341" x2="336.4341" y1="972.8242" y2="992.8242"/><polygon fill="#A80036" points="332.4341,982.8242,336.4341,992.8242,340.4341,982.8242,336.4341,986.8242" style="stroke:#A80036;stroke-width:1;"/><line style="stroke:#A80036;stroke-width:1.5;" x1="336.4341" x2="336.4341" y1="273.2031" y2="297.6055"/><polygon fill="#A80036" points="332.4341,287.6055,336.4341,297.6055,340.4341,287.6055,336.4341,291.6055" style="stroke:#A80036;stroke-width:1;"/><line style="stroke:#A80036;stroke-width:1.5;" x1="400.9849" x2="607.873" y1="261.2031" y2="261.2031"/><polygon fill="#A80036" points="603.873,648.9492,607.873,658.9492,611.873,648.9492,607.873,652.9492" style="stroke:#A80036;stroke-width:1.5;"/><line style="stroke:#A80036;stroke-width:1.5;" x1="607.873" x2="607.873" y1="261.2031" y2="1036.8242"/><line style="stroke:#A80036;stroke-width:1.5;" x1="607.873" x2="336.4341" y1="1036.8242" y2="1036.8242"/><line style="stroke:#A80036;stroke-width:1.5;" x1="336.4341" x2="336.4341" y1="1036.8242" y2="1056.8242"/><polygon fill="#A80036" points="332.4341,1046.8242,336.4341,1056.8242,340.4341,1046.8242,336.4341,1050.8242" style="stroke:#A80036;stroke-width:1;"/><line style="stroke:#A80036;stroke-width:1.5;" x1="336.4341" x2="336.4341" y1="229.2031" y2="249.2031"/><polygon fill="#A80036" points="332.4341,239.2031,336.4341,249.2031,340.4341,239.2031,336.4341,243.2031" style="stroke:#A80036;stroke-width:1;"/><line style="stroke:#A80036;stroke-width:1.5;" x1="336.4341" x2="336.4341" y1="1090.793" y2="1110.793"/><polygon fill="#A80036" points="332.4341,1100.793,336.4341,1110.793,340.4341,1100.793,336.4341,1104.793" style="stroke:#A80036;stroke-width:1;"/><!--SRC=[XL8nZjj03Ept5InjuAgKTd4u82vI77380Udf5QLZibekbYiZUKuUa298boP0zB5GQobMO9mZ291MdE5mgD5F726BadE5Io1uw8zCiH0yPMa6xtdy4PtJWhauj_j0MQSlW2dB4Hi4Yl1SiEFOxTtkNMJFc27bWOweG5h6huKzgXKF7yaFPLKT8jkHKU-W7Q9dYHZ83cpoNSOglNUEMzZy_lMqjFpCHHJrVWlbnSGtp-EthNC0At7nf08DsQqfC7K30QuDxIV2qlSl-g5wgW1un3XWW7FFHkwtHlX7OvucWb8-SIDLzzA_ejzJnrgouNigjYmR7BuOvpIrY5AujTLClabdnjMERAoNePVNoeStXnjCz9GANXnVFD_Q9THhztQzkvMtcJMFPC17pDvqJqiqlFG2uyzGk4TeM9D4FbgoJE1gHQyCRl-D-aJZTu6Df7CoxY1HRgN7w6cxiBL8ggyKBCAt1cen16xmcXWRRjtod79qK1CoVi0vvMVRVKt4nA_S6VyViGdw1m00]--></g></svg>