<svg xmlns="http://www.w3.org/2000/svg" xmlns:xlink="http://www.w3.org/1999/xlink" contentStyleType="text/css" data-diagram-type="ACTIVITY" height="244px" preserveAspectRatio="none" style="width:417px;height:244px;background:#FFFFFF;" version="1.1" viewBox="0 0 417 244" width="417px" zoomAndPan="magnify"><title>Instrumentaci&#243;n</title><defs><filter height="300%" id="f1tdrz6juafb5x" width="300%" x="-1" y="-1"><feGaussianBlur result="blurOut" stdDeviation="2"/><feColorMatrix in="blurOut" result="blurOut2" type="matrix" values="0 0 0 0 0 0 0 0 0 0 0 0 0 0 0 0 0 0 .4 0"/><feOffset dx="4" dy="4" in="blurOut2" result="blurOut3"/><feBlend in="SourceGraphic" in2="blurOut3" mode="normal"/></filter></defs><g><text fill="#000000" font-family="sans-serif" font-size="14" font-weight="bold" lengthAdjust="spacing" textLength="129.9443" x="142.074" y="32.9951">Instrumentaci&#243;n</text><ellipse cx="175.0261" cy="57.2969" fill="#000000" filter="url(#f1tdrz6juafb5x)" rx="10" ry="10" style="stroke:#000000;stroke-width:1;"/><polygon fill="#FEFECE" filter="url(#f1tdrz6juafb5x)" points="70.9316,87.2969,279.1206,87.2969,291.1206,99.2969,279.1206,111.2969,70.9316,111.2969,58.9316,99.2969,70.9316,87.2969" style="stroke:#A80036;stroke-width:1.5;"/><text fill="#000000" font-family="sans-serif" font-size="11" lengthAdjust="spacing" textLength="208.189" x="70.9316" y="103.105">&#191;Hay OpenTelemetry SDK disponible?</text><rect fill="#FEFECE" filter="url(#f1tdrz6juafb5x)" height="33.9688" rx="12.5" ry="12.5" style="stroke:#A80036;stroke-width:1.5;" width="75.8633" x="11" y="121.2969"/><text fill="#000000" font-family="sans-serif" font-size="12" lengthAdjust="spacing" textLength="55.8633" x="21" y="142.4355">Usar SDK</text><rect fill="#FEFECE" filter="url(#f1tdrz6juafb5x)" height="33.9688" rx="12.5" ry="12.5" style="stroke:#A80036;stroke-width:1.5;" width="197.9434" x="202.1489" y="121.2969"/><text fill="#000000" font-family="sans-serif" font-size="12" lengthAdjust="spacing" textLength="177.9434" x="212.1489" y="142.4355">Usar instrumentaci&#243;n manual</text><polygon fill="#FEFECE" filter="url(#f1tdrz6juafb5x)" points="175.0261,161.2656,187.0261,173.2656,175.0261,185.2656,163.0261,173.2656,175.0261,161.2656" style="stroke:#A80036;stroke-width:1.5;"/><ellipse cx="175.0261" cy="216.2656" fill="none" filter="url(#f1tdrz6juafb5x)" rx="11" ry="11" style="stroke:#000000;stroke-width:1;"/><ellipse cx="175.0261" cy="216.2656" fill="#000000" rx="6" ry="6" style="stroke:#000000;stroke-width:1;"/><line style="stroke:#A80036;stroke-width:1.5;" x1="58.9316" x2="48.9316" y1="99.2969" y2="99.2969"/><line style="stroke:#A80036;stroke-width:1.5;" x1="48.9316" x2="48.9316" y1="99.2969" y2="121.2969"/><polygon fill="#A80036" points="44.9316,111.2969,48.9316,121.2969,52.9316,111.2969,48.9316,115.2969" style="stroke:#A80036;stroke-width:1;"/><line style="stroke:#A80036;stroke-width:1.5;" x1="291.1206" x2="301.1206" y1="99.2969" y2="99.2969"/><line style="stroke:#A80036;stroke-width:1.5;" x1="301.1206" x2="301.1206" y1="99.2969" y2="121.2969"/><polygon fill="#A80036" points="297.1206,111.2969,301.1206,121.2969,305.1206,111.2969,301.1206,115.2969" style="stroke:#A80036;stroke-width:1;"/><line style="stroke:#A80036;stroke-width:1.5;" x1="48.9316" x2="48.9316" y1="155.2656" y2="173.2656"/><line style="stroke:#A80036;stroke-width:1.5;" x1="48.9316" x2="163.0261" y1="173.2656" y2="173.2656"/><polygon fill="#A80036" points="153.0261,169.2656,163.0261,173.2656,153.0261,177.2656,157.0261,173.2656" style="stroke:#A80036;stroke-width:1;"/><line style="stroke:#A80036;stroke-width:1.5;" x1="301.1206" x2="301.1206" y1="155.2656" y2="173.2656"/><line style="stroke:#A80036;stroke-width:1.5;" x1="301.1206" x2="187.0261" y1="173.2656" y2="173.2656"/><polygon fill="#A80036" points="197.0261,169.2656,187.0261,173.2656,197.0261,177.2656,193.0261,173.2656" style="stroke:#A80036;stroke-width:1;"/><line style="stroke:#A80036;stroke-width:1.5;" x1="175.0261" x2="175.0261" y1="67.2969" y2="87.2969"/><polygon fill="#A80036" points="171.0261,77.2969,175.0261,87.2969,179.0261,77.2969,175.0261,81.2969" style="stroke:#A80036;stroke-width:1;"/><line style="stroke:#A80036;stroke-width:1.5;" x1="175.0261" x2="175.0261" y1="185.2656" y2="205.2656"/><polygon fill="#A80036" points="171.0261,195.2656,175.0261,205.2656,179.0261,195.2656,175.0261,199.2656" style="stroke:#A80036;stroke-width:1;"/><!--SRC=[NOsn3G9130HpL-4GMe20X014G00KO7Y_PE7pdMn_y7LH018qnX6GaEwCPkCkXbw30L9I6VSMwLDXIxh9-s40aUG9CYvUpntDU6niPrOkd3xZQNl0GQ9LawloPWc8gqkGVy4QM7lujyXV6GlPHDej6sJiDxLz0000]--></g></svg>