<?xml version="1.0" encoding="us-ascii" standalone="no"?><svg xmlns="http://www.w3.org/2000/svg" xmlns:xlink="http://www.w3.org/1999/xlink" contentStyleType="text/css" height="939px" preserveAspectRatio="none" style="width:389px;height:939px;background:#FFFFFF;" version="1.1" viewBox="0 0 389 939" width="389px" zoomAndPan="magnify"><defs><filter height="300%" id="fek9f4wig1uml" width="300%" x="-1" y="-1"><feGaussianBlur result="blurOut" stdDeviation="2.0"/><feColorMatrix in="blurOut" result="blurOut2" type="matrix" values="0 0 0 0 0 0 0 0 0 0 0 0 0 0 0 0 0 0 .4 0"/><feOffset dx="4.0" dy="4.0" in="blurOut2" result="blurOut3"/><feBlend in="SourceGraphic" in2="blurOut3" mode="normal"/></filter></defs><g><text fill="#000000" font-family="sans-serif" font-size="14" font-weight="bold" lengthAdjust="spacing" textLength="221" x="82.75" y="32.9951">Ambiente Pruebas (Staging)</text><ellipse cx="191" cy="57.2969" fill="#000000" filter="url(#fek9f4wig1uml)" rx="10" ry="10" style="stroke:#000000;stroke-width:1.0;"/><rect fill="#FEFECE" filter="url(#fek9f4wig1uml)" height="33.9688" rx="12.5" ry="12.5" style="stroke:#A80036;stroke-width:1.5;" width="171" x="105.5" y="87.2969"/><text fill="#000000" font-family="sans-serif" font-size="12" lengthAdjust="spacing" textLength="151" x="115.5" y="108.4355">Commit en la rama main</text><rect fill="#FEFECE" filter="url(#fek9f4wig1uml)" height="33.9688" rx="12.5" ry="12.5" style="stroke:#A80036;stroke-width:1.5;" width="360" x="11" y="141.2656"/><text fill="#000000" font-family="sans-serif" font-size="12" lengthAdjust="spacing" textLength="340" x="21" y="162.4043">Crear nueva versi&#243;n aumentando n&#250;mero PATCH (tag)</text><rect fill="#FEFECE" filter="url(#fek9f4wig1uml)" height="33.9688" rx="12.5" ry="12.5" style="stroke:#A80036;stroke-width:1.5;" width="175" x="103.5" y="195.2344"/><text fill="#000000" font-family="sans-serif" font-size="12" lengthAdjust="spacing" textLength="155" x="113.5" y="216.373">Iniciar pruebas est&#225;ticas</text><rect fill="#FEFECE" filter="url(#fek9f4wig1uml)" height="33.9688" rx="12.5" ry="12.5" style="stroke:#A80036;stroke-width:1.5;" width="346" x="18" y="249.2031"/><text fill="#000000" font-family="sans-serif" font-size="12" lengthAdjust="spacing" textLength="326" x="28" y="270.3418">Ejecutar pruebas unitarias, funcionales, integraci&#243;n</text><rect fill="#FEFECE" filter="url(#fek9f4wig1uml)" height="33.9688" rx="12.5" ry="12.5" style="stroke:#A80036;stroke-width:1.5;" width="269" x="56.5" y="351.5742"/><text fill="#000000" font-family="sans-serif" font-size="12" lengthAdjust="spacing" textLength="249" x="66.5" y="372.7129">Iniciar proceso de despliegue a Staging</text><rect fill="#FEFECE" filter="url(#fek9f4wig1uml)" height="33.9688" rx="12.5" ry="12.5" style="stroke:#A80036;stroke-width:1.5;" width="292" x="45" y="405.543"/><text fill="#000000" font-family="sans-serif" font-size="12" lengthAdjust="spacing" textLength="272" x="55" y="426.6816">Registrar metadatos y enviar notificaciones</text><rect fill="#FEFECE" filter="url(#fek9f4wig1uml)" height="33.9688" rx="12.5" ry="12.5" style="stroke:#A80036;stroke-width:1.5;" width="238" x="72" y="459.5117"/><text fill="#000000" font-family="sans-serif" font-size="12" lengthAdjust="spacing" textLength="218" x="82" y="480.6504">Iniciar pruebas en servidor staging</text><rect fill="#FEFECE" filter="url(#fek9f4wig1uml)" height="33.9688" rx="12.5" ry="12.5" style="stroke:#A80036;stroke-width:1.5;" width="222" x="80" y="513.4805"/><text fill="#000000" font-family="sans-serif" font-size="12" lengthAdjust="spacing" textLength="202" x="90" y="534.6191">Ejecutar pruebas de aceptaci&#243;n</text><rect fill="#FEFECE" filter="url(#fek9f4wig1uml)" height="33.9688" rx="12.5" ry="12.5" style="stroke:#A80036;stroke-width:1.5;" width="281" x="50.5" y="630.8516"/><text fill="#000000" font-family="sans-serif" font-size="12" lengthAdjust="spacing" textLength="261" x="60.5" y="651.9902">Marcar versi&#243;n como aprobada para Prod</text><rect fill="#FEFECE" filter="url(#fek9f4wig1uml)" height="33.9688" rx="12.5" ry="12.5" style="stroke:#A80036;stroke-width:1.5;" width="251" x="65.5" y="684.8203"/><text fill="#000000" font-family="sans-serif" font-size="12" lengthAdjust="spacing" textLength="231" x="75.5" y="705.959">Iniciar proceso de Despliegue a Prod</text><ellipse cx="191" cy="749.7891" fill="none" filter="url(#fek9f4wig1uml)" rx="11" ry="11" style="stroke:#000000;stroke-width:1.0;"/><ellipse cx="191" cy="749.7891" fill="#000000" rx="6" ry="6" style="stroke:#000000;stroke-width:1.0;"/><polygon fill="#FEFECE" filter="url(#fek9f4wig1uml)" points="77.5,582.4492,304.5,582.4492,316.5,594.4492,304.5,606.4492,77.5,606.4492,65.5,594.4492,77.5,582.4492" style="stroke:#A80036;stroke-width:1.5;"/><text fill="#000000" font-family="sans-serif" font-size="11" lengthAdjust="spacing" textLength="11" x="195" y="616.6597">S&#237;</text><text fill="#000000" font-family="sans-serif" font-size="11" lengthAdjust="spacing" textLength="227" x="77.5" y="598.2573">&#191;Pruebas exitosas en servidor Staging?</text><polygon fill="#FEFECE" filter="url(#fek9f4wig1uml)" points="135.5,303.1719,246.5,303.1719,258.5,315.1719,246.5,327.1719,135.5,327.1719,123.5,315.1719,135.5,303.1719" style="stroke:#A80036;stroke-width:1.5;"/><text fill="#000000" font-family="sans-serif" font-size="11" lengthAdjust="spacing" textLength="11" x="195" y="337.3823">S&#237;</text><text fill="#000000" font-family="sans-serif" font-size="11" lengthAdjust="spacing" textLength="111" x="135.5" y="318.98">&#191;Pruebas exitosas?</text><polygon fill="#FEFECE" filter="url(#fek9f4wig1uml)" points="191,802.7891,203,814.7891,191,826.7891,179,814.7891,191,802.7891" style="stroke:#A80036;stroke-width:1.5;"/><rect fill="#FEFECE" filter="url(#fek9f4wig1uml)" height="33.9688" rx="12.5" ry="12.5" style="stroke:#A80036;stroke-width:1.5;" width="191" x="95.5" y="846.7891"/><text fill="#000000" font-family="sans-serif" font-size="12" lengthAdjust="spacing" textLength="171" x="105.5" y="867.9277">Marcar versi&#243;n como fallida</text><ellipse cx="191" cy="911.7578" fill="none" filter="url(#fek9f4wig1uml)" rx="11" ry="11" style="stroke:#000000;stroke-width:1.0;"/><ellipse cx="191" cy="911.7578" fill="#000000" rx="6" ry="6" style="stroke:#000000;stroke-width:1.0;"/><line style="stroke:#A80036;stroke-width:1.5;" x1="191" x2="191" y1="67.2969" y2="87.2969"/><polygon fill="#A80036" points="187,77.2969,191,87.2969,195,77.2969,191,81.2969" style="stroke:#A80036;stroke-width:1.0;"/><line style="stroke:#A80036;stroke-width:1.5;" x1="191" x2="191" y1="121.2656" y2="141.2656"/><polygon fill="#A80036" points="187,131.2656,191,141.2656,195,131.2656,191,135.2656" style="stroke:#A80036;stroke-width:1.0;"/><line style="stroke:#A80036;stroke-width:1.5;" x1="191" x2="191" y1="175.2344" y2="195.2344"/><polygon fill="#A80036" points="187,185.2344,191,195.2344,195,185.2344,191,189.2344" style="stroke:#A80036;stroke-width:1.0;"/><line style="stroke:#A80036;stroke-width:1.5;" x1="191" x2="191" y1="229.2031" y2="249.2031"/><polygon fill="#A80036" points="187,239.2031,191,249.2031,195,239.2031,191,243.2031" style="stroke:#A80036;stroke-width:1.0;"/><line style="stroke:#A80036;stroke-width:1.5;" x1="191" x2="191" y1="385.543" y2="405.543"/><polygon fill="#A80036" points="187,395.543,191,405.543,195,395.543,191,399.543" style="stroke:#A80036;stroke-width:1.0;"/><line style="stroke:#A80036;stroke-width:1.5;" x1="191" x2="191" y1="439.5117" y2="459.5117"/><polygon fill="#A80036" points="187,449.5117,191,459.5117,195,449.5117,191,453.5117" style="stroke:#A80036;stroke-width:1.0;"/><line style="stroke:#A80036;stroke-width:1.5;" x1="191" x2="191" y1="493.4805" y2="513.4805"/><polygon fill="#A80036" points="187,503.4805,191,513.4805,195,503.4805,191,507.4805" style="stroke:#A80036;stroke-width:1.0;"/><line style="stroke:#A80036;stroke-width:1.5;" x1="191" x2="191" y1="664.8203" y2="684.8203"/><polygon fill="#A80036" points="187,674.8203,191,684.8203,195,674.8203,191,678.8203" style="stroke:#A80036;stroke-width:1.0;"/><line style="stroke:#A80036;stroke-width:1.5;" x1="191" x2="191" y1="718.7891" y2="738.7891"/><polygon fill="#A80036" points="187,728.7891,191,738.7891,195,728.7891,191,732.7891" style="stroke:#A80036;stroke-width:1.0;"/><line style="stroke:#A80036;stroke-width:1.5;" x1="191" x2="191" y1="606.4492" y2="630.8516"/><polygon fill="#A80036" points="187,620.8516,191,630.8516,195,620.8516,191,624.8516" style="stroke:#A80036;stroke-width:1.0;"/><line style="stroke:#A80036;stroke-width:1.5;" x1="316.5" x2="341.5" y1="594.4492" y2="594.4492"/><polygon fill="#A80036" points="337.5,682.8203,341.5,692.8203,345.5,682.8203,341.5,686.8203" style="stroke:#A80036;stroke-width:1.5;"/><line style="stroke:#A80036;stroke-width:1.5;" x1="341.5" x2="341.5" y1="594.4492" y2="782.7891"/><line style="stroke:#A80036;stroke-width:1.5;" x1="341.5" x2="191" y1="782.7891" y2="782.7891"/><line style="stroke:#A80036;stroke-width:1.5;" x1="191" x2="191" y1="782.7891" y2="802.7891"/><polygon fill="#A80036" points="187,792.7891,191,802.7891,195,792.7891,191,796.7891" style="stroke:#A80036;stroke-width:1.0;"/><line style="stroke:#A80036;stroke-width:1.5;" x1="191" x2="191" y1="547.4492" y2="582.4492"/><polygon fill="#A80036" points="187,572.4492,191,582.4492,195,572.4492,191,576.4492" style="stroke:#A80036;stroke-width:1.0;"/><line style="stroke:#A80036;stroke-width:1.5;" x1="191" x2="191" y1="327.1719" y2="351.5742"/><polygon fill="#A80036" points="187,341.5742,191,351.5742,195,341.5742,191,345.5742" style="stroke:#A80036;stroke-width:1.0;"/><line style="stroke:#A80036;stroke-width:1.5;" x1="258.5" x2="363.5" y1="315.1719" y2="315.1719"/><polygon fill="#A80036" points="359.5,553.8828,363.5,563.8828,367.5,553.8828,363.5,557.8828" style="stroke:#A80036;stroke-width:1.5;"/><line style="stroke:#A80036;stroke-width:1.5;" x1="363.5" x2="363.5" y1="315.1719" y2="814.7891"/><line style="stroke:#A80036;stroke-width:1.5;" x1="363.5" x2="203" y1="814.7891" y2="814.7891"/><polygon fill="#A80036" points="213,810.7891,203,814.7891,213,818.7891,209,814.7891" style="stroke:#A80036;stroke-width:1.0;"/><line style="stroke:#A80036;stroke-width:1.5;" x1="191" x2="191" y1="283.1719" y2="303.1719"/><polygon fill="#A80036" points="187,293.1719,191,303.1719,195,293.1719,191,297.1719" style="stroke:#A80036;stroke-width:1.0;"/><line style="stroke:#A80036;stroke-width:1.5;" x1="191" x2="191" y1="826.7891" y2="846.7891"/><polygon fill="#A80036" points="187,836.7891,191,846.7891,195,836.7891,191,840.7891" style="stroke:#A80036;stroke-width:1.0;"/><line style="stroke:#A80036;stroke-width:1.5;" x1="191" x2="191" y1="880.7578" y2="900.7578"/><polygon fill="#A80036" points="187,890.7578,191,900.7578,195,890.7578,191,894.7578" style="stroke:#A80036;stroke-width:1.0;"/><!--SRC=[RL7DJiCm3BxdANpS99vWFQ1f8C41QMAyW9UwnT0aLUnMy3Wy02TkN93eY-5ktJHWKHGbykVlnv5dZf2Ja7FAsX0imvOfAi4wTxH5WTb6iUPOpvqJnQpEBLOf15QW20r2ne0Ga6DXXKoO8NRK8_IKXOUF2DW58yHO9eZ3Pw2SOBryMDt0p8ZdrdKRsRFrjPCYYGvloXx5YjTFv3izgNQHxSae5r1rqNEAs90zs4pN6VseMJZ75So-lmuXw8Kr2Shb7FJHVCysmxi50bidyicJ92Z9jhGDKzqH84pvYptwdceMpOOFf5YYqSAhZQ8VAM9Ihipuw8ga-Ci_UOaWb7ikKmOvSE-X_yAQ5_JKwZ7M23iVxHVlvFbtNDYjnHrcRnB7__4f941BlxKuq696-_jK5WVycVbSdSxd52oQsjsLOicLsv_kl6I5JSCb5cvi-W40]--></g></svg>