<?xml version="1.0" encoding="us-ascii" standalone="no"?><svg xmlns="http://www.w3.org/2000/svg" xmlns:xlink="http://www.w3.org/1999/xlink" contentStyleType="text/css" height="1149px" preserveAspectRatio="none" style="width:656px;height:1149px;background:#FFFFFF;" version="1.1" viewBox="0 0 656 1149" width="656px" zoomAndPan="magnify"><defs><filter height="300%" id="fogecdapv4saf" width="300%" x="-1" y="-1"><feGaussianBlur result="blurOut" stdDeviation="2.0"/><feColorMatrix in="blurOut" result="blurOut2" type="matrix" values="0 0 0 0 0 0 0 0 0 0 0 0 0 0 0 0 0 0 .4 0"/><feOffset dx="4.0" dy="4.0" in="blurOut2" result="blurOut3"/><feBlend in="SourceGraphic" in2="blurOut3" mode="normal"/></filter></defs><g><text fill="#000000" font-family="sans-serif" font-size="14" font-weight="bold" lengthAdjust="spacing" textLength="169" x="242" y="32.9951">Ambiente Producci&#243;n</text><ellipse cx="350.75" cy="57.2969" fill="#000000" filter="url(#fogecdapv4saf)" rx="10" ry="10" style="stroke:#000000;stroke-width:1.0;"/><rect fill="#FEFECE" filter="url(#fogecdapv4saf)" height="33.9688" rx="12.5" ry="12.5" style="stroke:#A80036;stroke-width:1.5;" width="204" x="248.75" y="87.2969"/><text fill="#000000" font-family="sans-serif" font-size="12" lengthAdjust="spacing" textLength="184" x="258.75" y="108.4355">Versi&#243;n aprobada en Staging</text><rect fill="#FEFECE" filter="url(#fogecdapv4saf)" height="33.9688" rx="12.5" ry="12.5" style="stroke:#A80036;stroke-width:1.5;" width="175" x="263.25" y="141.2656"/><text fill="#000000" font-family="sans-serif" font-size="12" lengthAdjust="spacing" textLength="155" x="273.25" y="162.4043">Iniciar pruebas est&#225;ticas</text><rect fill="#FEFECE" filter="url(#fogecdapv4saf)" height="33.9688" rx="12.5" ry="12.5" style="stroke:#A80036;stroke-width:1.5;" width="346" x="177.75" y="195.2344"/><text fill="#000000" font-family="sans-serif" font-size="12" lengthAdjust="spacing" textLength="326" x="187.75" y="216.373">Ejecutar pruebas unitarias, funcionales, integraci&#243;n</text><rect fill="#FEFECE" filter="url(#fogecdapv4saf)" height="33.9688" rx="12.5" ry="12.5" style="stroke:#A80036;stroke-width:1.5;" width="291" x="205.25" y="297.6055"/><text fill="#000000" font-family="sans-serif" font-size="12" lengthAdjust="spacing" textLength="271" x="215.25" y="318.7441">Iniciar proceso de despliegue a Producci&#243;n</text><rect fill="#FEFECE" filter="url(#fogecdapv4saf)" height="33.9688" rx="12.5" ry="12.5" style="stroke:#A80036;stroke-width:1.5;" width="261" x="220.25" y="395.5742"/><text fill="#000000" font-family="sans-serif" font-size="12" lengthAdjust="spacing" textLength="241" x="230.25" y="416.7129">Iniciar pruebas en servidor producci&#243;n</text><rect fill="#FEFECE" filter="url(#fogecdapv4saf)" height="33.9688" rx="12.5" ry="12.5" style="stroke:#A80036;stroke-width:1.5;" width="292" x="204.75" y="449.543"/><text fill="#000000" font-family="sans-serif" font-size="12" lengthAdjust="spacing" textLength="272" x="214.75" y="470.6816">Registrar metadatos y enviar notificaciones</text><rect fill="#FEFECE" filter="url(#fogecdapv4saf)" height="33.9688" rx="12.5" ry="12.5" style="stroke:#A80036;stroke-width:1.5;" width="187" x="257.25" y="503.5117"/><text fill="#000000" font-family="sans-serif" font-size="12" lengthAdjust="spacing" textLength="167" x="267.25" y="524.6504">Ejecutar pruebas de humo</text><rect fill="#FEFECE" filter="url(#fogecdapv4saf)" height="33.9688" rx="12.5" ry="12.5" style="stroke:#A80036;stroke-width:1.5;" width="156" x="272.75" y="557.4805"/><text fill="#000000" font-family="sans-serif" font-size="12" lengthAdjust="spacing" textLength="136" x="282.75" y="578.6191">Ejecutar pruebas E2E</text><rect fill="#FEFECE" filter="url(#fogecdapv4saf)" height="33.9688" rx="12.5" ry="12.5" style="stroke:#A80036;stroke-width:1.5;" width="222" x="239.75" y="611.4492"/><text fill="#000000" font-family="sans-serif" font-size="12" lengthAdjust="spacing" textLength="202" x="249.75" y="632.5879">Ejecutar pruebas de aceptaci&#243;n</text><polygon fill="#FEFECE" filter="url(#fogecdapv4saf)" points="295.25,678.9492,406.25,678.9492,418.25,690.9492,406.25,702.9492,295.25,702.9492,283.25,690.9492,295.25,678.9492" style="stroke:#A80036;stroke-width:1.5;"/><text fill="#000000" font-family="sans-serif" font-size="11" lengthAdjust="spacing" textLength="111" x="295.25" y="694.7573">&#191;Pruebas exitosas?</text><text fill="#000000" font-family="sans-serif" font-size="11" lengthAdjust="spacing" textLength="11" x="272.25" y="688.355">S&#237;</text><rect fill="#FEFECE" filter="url(#fogecdapv4saf)" height="33.9688" rx="12.5" ry="12.5" style="stroke:#A80036;stroke-width:1.5;" width="225" x="86.5" y="712.9492"/><text fill="#000000" font-family="sans-serif" font-size="12" lengthAdjust="spacing" textLength="205" x="96.5" y="734.0879">Despliegue a producci&#243;n exitoso</text><rect fill="#FEFECE" filter="url(#fogecdapv4saf)" height="33.9688" rx="12.5" ry="12.5" style="stroke:#A80036;stroke-width:1.5;" width="354" x="22" y="766.918"/><text fill="#000000" font-family="sans-serif" font-size="12" lengthAdjust="spacing" textLength="334" x="32" y="788.0566">Marcar versi&#243;n como &#250;ltima disponible en producci&#243;n</text><rect fill="#FEFECE" filter="url(#fogecdapv4saf)" height="33.9688" rx="12.5" ry="12.5" style="stroke:#A80036;stroke-width:1.5;" width="376" x="11" y="820.8867"/><text fill="#000000" font-family="sans-serif" font-size="12" lengthAdjust="spacing" textLength="356" x="21" y="842.0254">Ejecutar pruebas de desempe&#241;o (opcional, perfomance)</text><ellipse cx="199" cy="885.8555" fill="none" filter="url(#fogecdapv4saf)" rx="11" ry="11" style="stroke:#000000;stroke-width:1.0;"/><ellipse cx="199" cy="885.8555" fill="#000000" rx="6" ry="6" style="stroke:#000000;stroke-width:1.0;"/><rect fill="#FEFECE" filter="url(#fogecdapv4saf)" height="33.9688" rx="12.5" ry="12.5" style="stroke:#A80036;stroke-width:1.5;" width="191" x="407" y="712.9492"/><text fill="#000000" font-family="sans-serif" font-size="12" lengthAdjust="spacing" textLength="171" x="417" y="734.0879">Marcar versi&#243;n como fallida</text><ellipse cx="502.5" cy="777.918" fill="none" filter="url(#fogecdapv4saf)" rx="11" ry="11" style="stroke:#000000;stroke-width:1.0;"/><ellipse cx="502.5" cy="777.918" fill="#000000" rx="6" ry="6" style="stroke:#000000;stroke-width:1.0;"/><polygon fill="#FEFECE" filter="url(#fogecdapv4saf)" points="233.75,351.5742,467.75,351.5742,479.75,363.5742,467.75,375.5742,233.75,375.5742,221.75,363.5742,233.75,351.5742" style="stroke:#A80036;stroke-width:1.5;"/><text fill="#000000" font-family="sans-serif" font-size="11" lengthAdjust="spacing" textLength="234" x="233.75" y="367.3823">&#191;Proceso de Aprobaci&#243;n Manual Iniciado?</text><rect fill="#FEFECE" filter="url(#fogecdapv4saf)" height="33.9688" rx="12.5" ry="12.5" style="stroke:#A80036;stroke-width:1.5;" width="209" x="246.25" y="938.8555"/><text fill="#000000" font-family="sans-serif" font-size="12" lengthAdjust="spacing" textLength="189" x="256.25" y="959.9941">Esperar la aprobaci&#243;n manual</text><ellipse cx="350.75" cy="1003.8242" fill="none" filter="url(#fogecdapv4saf)" rx="11" ry="11" style="stroke:#000000;stroke-width:1.0;"/><ellipse cx="350.75" cy="1003.8242" fill="#000000" rx="6" ry="6" style="stroke:#000000;stroke-width:1.0;"/><polygon fill="#FEFECE" filter="url(#fogecdapv4saf)" points="295.25,249.2031,406.25,249.2031,418.25,261.2031,406.25,273.2031,295.25,273.2031,283.25,261.2031,295.25,249.2031" style="stroke:#A80036;stroke-width:1.5;"/><text fill="#000000" font-family="sans-serif" font-size="11" lengthAdjust="spacing" textLength="11" x="354.75" y="283.4136">S&#237;</text><text fill="#000000" font-family="sans-serif" font-size="11" lengthAdjust="spacing" textLength="111" x="295.25" y="265.0112">&#191;Pruebas exitosas?</text><rect fill="#FEFECE" filter="url(#fogecdapv4saf)" height="33.9688" rx="12.5" ry="12.5" style="stroke:#A80036;stroke-width:1.5;" width="191" x="255.25" y="1056.8242"/><text fill="#000000" font-family="sans-serif" font-size="12" lengthAdjust="spacing" textLength="171" x="265.25" y="1077.9629">Marcar versi&#243;n como fallida</text><ellipse cx="350.75" cy="1121.793" fill="none" filter="url(#fogecdapv4saf)" rx="11" ry="11" style="stroke:#000000;stroke-width:1.0;"/><ellipse cx="350.75" cy="1121.793" fill="#000000" rx="6" ry="6" style="stroke:#000000;stroke-width:1.0;"/><line style="stroke:#A80036;stroke-width:1.5;" x1="350.75" x2="350.75" y1="67.2969" y2="87.2969"/><polygon fill="#A80036" points="346.75,77.2969,350.75,87.2969,354.75,77.2969,350.75,81.2969" style="stroke:#A80036;stroke-width:1.0;"/><line style="stroke:#A80036;stroke-width:1.5;" x1="350.75" x2="350.75" y1="121.2656" y2="141.2656"/><polygon fill="#A80036" points="346.75,131.2656,350.75,141.2656,354.75,131.2656,350.75,135.2656" style="stroke:#A80036;stroke-width:1.0;"/><line style="stroke:#A80036;stroke-width:1.5;" x1="350.75" x2="350.75" y1="175.2344" y2="195.2344"/><polygon fill="#A80036" points="346.75,185.2344,350.75,195.2344,354.75,185.2344,350.75,189.2344" style="stroke:#A80036;stroke-width:1.0;"/><line style="stroke:#A80036;stroke-width:1.5;" x1="350.75" x2="350.75" y1="429.543" y2="449.543"/><polygon fill="#A80036" points="346.75,439.543,350.75,449.543,354.75,439.543,350.75,443.543" style="stroke:#A80036;stroke-width:1.0;"/><line style="stroke:#A80036;stroke-width:1.5;" x1="350.75" x2="350.75" y1="483.5117" y2="503.5117"/><polygon fill="#A80036" points="346.75,493.5117,350.75,503.5117,354.75,493.5117,350.75,497.5117" style="stroke:#A80036;stroke-width:1.0;"/><line style="stroke:#A80036;stroke-width:1.5;" x1="350.75" x2="350.75" y1="537.4805" y2="557.4805"/><polygon fill="#A80036" points="346.75,547.4805,350.75,557.4805,354.75,547.4805,350.75,551.4805" style="stroke:#A80036;stroke-width:1.0;"/><line style="stroke:#A80036;stroke-width:1.5;" x1="350.75" x2="350.75" y1="591.4492" y2="611.4492"/><polygon fill="#A80036" points="346.75,601.4492,350.75,611.4492,354.75,601.4492,350.75,605.4492" style="stroke:#A80036;stroke-width:1.0;"/><line style="stroke:#A80036;stroke-width:1.5;" x1="199" x2="199" y1="746.918" y2="766.918"/><polygon fill="#A80036" points="195,756.918,199,766.918,203,756.918,199,760.918" style="stroke:#A80036;stroke-width:1.0;"/><line style="stroke:#A80036;stroke-width:1.5;" x1="199" x2="199" y1="800.8867" y2="820.8867"/><polygon fill="#A80036" points="195,810.8867,199,820.8867,203,810.8867,199,814.8867" style="stroke:#A80036;stroke-width:1.0;"/><line style="stroke:#A80036;stroke-width:1.5;" x1="199" x2="199" y1="854.8555" y2="874.8555"/><polygon fill="#A80036" points="195,864.8555,199,874.8555,203,864.8555,199,868.8555" style="stroke:#A80036;stroke-width:1.0;"/><line style="stroke:#A80036;stroke-width:1.5;" x1="502.5" x2="502.5" y1="746.918" y2="766.918"/><polygon fill="#A80036" points="498.5,756.918,502.5,766.918,506.5,756.918,502.5,760.918" style="stroke:#A80036;stroke-width:1.0;"/><line style="stroke:#A80036;stroke-width:1.5;" x1="283.25" x2="199" y1="690.9492" y2="690.9492"/><line style="stroke:#A80036;stroke-width:1.5;" x1="199" x2="199" y1="690.9492" y2="712.9492"/><polygon fill="#A80036" points="195,702.9492,199,712.9492,203,702.9492,199,706.9492" style="stroke:#A80036;stroke-width:1.0;"/><line style="stroke:#A80036;stroke-width:1.5;" x1="418.25" x2="502.5" y1="690.9492" y2="690.9492"/><line style="stroke:#A80036;stroke-width:1.5;" x1="502.5" x2="502.5" y1="690.9492" y2="712.9492"/><polygon fill="#A80036" points="498.5,702.9492,502.5,712.9492,506.5,702.9492,502.5,706.9492" style="stroke:#A80036;stroke-width:1.0;"/><line style="stroke:#A80036;stroke-width:1.5;" x1="350.75" x2="350.75" y1="645.418" y2="678.9492"/><polygon fill="#A80036" points="346.75,668.9492,350.75,678.9492,354.75,668.9492,350.75,672.9492" style="stroke:#A80036;stroke-width:1.0;"/><line style="stroke:#A80036;stroke-width:1.5;" x1="350.75" x2="350.75" y1="375.5742" y2="395.5742"/><polygon fill="#A80036" points="346.75,385.5742,350.75,395.5742,354.75,385.5742,350.75,389.5742" style="stroke:#A80036;stroke-width:1.0;"/><line style="stroke:#A80036;stroke-width:1.5;" x1="479.75" x2="612" y1="363.5742" y2="363.5742"/><polygon fill="#A80036" points="608,629.4492,612,639.4492,616,629.4492,612,633.4492" style="stroke:#A80036;stroke-width:1.5;"/><line style="stroke:#A80036;stroke-width:1.5;" x1="612" x2="612" y1="363.5742" y2="918.8555"/><line style="stroke:#A80036;stroke-width:1.5;" x1="612" x2="350.75" y1="918.8555" y2="918.8555"/><line style="stroke:#A80036;stroke-width:1.5;" x1="350.75" x2="350.75" y1="918.8555" y2="938.8555"/><polygon fill="#A80036" points="346.75,928.8555,350.75,938.8555,354.75,928.8555,350.75,932.8555" style="stroke:#A80036;stroke-width:1.0;"/><line style="stroke:#A80036;stroke-width:1.5;" x1="350.75" x2="350.75" y1="331.5742" y2="351.5742"/><polygon fill="#A80036" points="346.75,341.5742,350.75,351.5742,354.75,341.5742,350.75,345.5742" style="stroke:#A80036;stroke-width:1.0;"/><line style="stroke:#A80036;stroke-width:1.5;" x1="350.75" x2="350.75" y1="972.8242" y2="992.8242"/><polygon fill="#A80036" points="346.75,982.8242,350.75,992.8242,354.75,982.8242,350.75,986.8242" style="stroke:#A80036;stroke-width:1.0;"/><line style="stroke:#A80036;stroke-width:1.5;" x1="350.75" x2="350.75" y1="273.2031" y2="297.6055"/><polygon fill="#A80036" points="346.75,287.6055,350.75,297.6055,354.75,287.6055,350.75,291.6055" style="stroke:#A80036;stroke-width:1.0;"/><line style="stroke:#A80036;stroke-width:1.5;" x1="418.25" x2="630" y1="261.2031" y2="261.2031"/><polygon fill="#A80036" points="626,648.9492,630,658.9492,634,648.9492,630,652.9492" style="stroke:#A80036;stroke-width:1.5;"/><line style="stroke:#A80036;stroke-width:1.5;" x1="630" x2="630" y1="261.2031" y2="1036.8242"/><line style="stroke:#A80036;stroke-width:1.5;" x1="630" x2="350.75" y1="1036.8242" y2="1036.8242"/><line style="stroke:#A80036;stroke-width:1.5;" x1="350.75" x2="350.75" y1="1036.8242" y2="1056.8242"/><polygon fill="#A80036" points="346.75,1046.8242,350.75,1056.8242,354.75,1046.8242,350.75,1050.8242" style="stroke:#A80036;stroke-width:1.0;"/><line style="stroke:#A80036;stroke-width:1.5;" x1="350.75" x2="350.75" y1="229.2031" y2="249.2031"/><polygon fill="#A80036" points="346.75,239.2031,350.75,249.2031,354.75,239.2031,350.75,243.2031" style="stroke:#A80036;stroke-width:1.0;"/><line style="stroke:#A80036;stroke-width:1.5;" x1="350.75" x2="350.75" y1="1090.793" y2="1110.793"/><polygon fill="#A80036" points="346.75,1100.793,350.75,1110.793,354.75,1100.793,350.75,1104.793" style="stroke:#A80036;stroke-width:1.0;"/><!--SRC=[XL8nZjj03Ept5InjuAgKTd4u82vI77380Udf5QLZibekbYiZUKuUa298boP0zB5GQobMO9mZ291MdE5mgD5F726BadE5Io1uw8zCiH0yPMa6xtdy4PtJWhauj_j0MQSlW2dB4Hi4Yl1SiEFOxTtkNMJFc27bWOweG5h6huKzgXKF7yaFPLKT8jkHKU-W7Q9dYHZ83cpoNSOglNUEMzZy_lMqjFpCHHJrVWlbnSGtp-EthNC0At7nf08DsQqfC7K30QuDxIV2qlSl-g5wgW1un3XWW7FFHkwtHlX7OvucWb8-SIDLzzA_ejzJnrgouNigjYmR7BuOvpIrY5AujTLClabdnjMERAoNePVNoeStXnjCz9GANXnVFD_Q9THhztQzkvMtcJMFPC17pDvqJqiqlFG2uyzGk4TeM9D4FbgoJE1gHQyCRl-D-aJZTu6Df7CoxY1HRgN7w6cxiBL8ggyKBCAt1cen16xmcXWRRjtod79qK1CoVi0vvMVRVKt4nA_S6VyViGdw1m00]--></g></svg>