<?xml version="1.0" encoding="us-ascii" standalone="no"?><svg xmlns="http://www.w3.org/2000/svg" xmlns:xlink="http://www.w3.org/1999/xlink" contentStyleType="text/css" height="244px" preserveAspectRatio="none" style="width:426px;height:244px;background:#FFFFFF;" version="1.1" viewBox="0 0 426 244" width="426px" zoomAndPan="magnify"><defs><filter height="300%" id="f1tdrz6juafb5x" width="300%" x="-1" y="-1"><feGaussianBlur result="blurOut" stdDeviation="2.0"/><feColorMatrix in="blurOut" result="blurOut2" type="matrix" values="0 0 0 0 0 0 0 0 0 0 0 0 0 0 0 0 0 0 .4 0"/><feOffset dx="4.0" dy="4.0" in="blurOut2" result="blurOut3"/><feBlend in="SourceGraphic" in2="blurOut3" mode="normal"/></filter></defs><g><text fill="#000000" font-family="sans-serif" font-size="14" font-weight="bold" lengthAdjust="spacing" textLength="128" x="147.5" y="32.9951">Instrumentaci&#243;n</text><ellipse cx="178" cy="57.2969" fill="#000000" filter="url(#f1tdrz6juafb5x)" rx="10" ry="10" style="stroke:#000000;stroke-width:1.0;"/><polygon fill="#FEFECE" filter="url(#f1tdrz6juafb5x)" points="71.5,87.2969,284.5,87.2969,296.5,99.2969,284.5,111.2969,71.5,111.2969,59.5,99.2969,71.5,87.2969" style="stroke:#A80036;stroke-width:1.5;"/><text fill="#000000" font-family="sans-serif" font-size="11" lengthAdjust="spacing" textLength="213" x="71.5" y="103.105">&#191;Hay OpenTelemetry SDK disponible?</text><rect fill="#FEFECE" filter="url(#f1tdrz6juafb5x)" height="33.9688" rx="12.5" ry="12.5" style="stroke:#A80036;stroke-width:1.5;" width="77" x="11" y="121.2969"/><text fill="#000000" font-family="sans-serif" font-size="12" lengthAdjust="spacing" textLength="57" x="21" y="142.4355">Usar SDK</text><rect fill="#FEFECE" filter="url(#f1tdrz6juafb5x)" height="33.9688" rx="12.5" ry="12.5" style="stroke:#A80036;stroke-width:1.5;" width="205" x="204" y="121.2969"/><text fill="#000000" font-family="sans-serif" font-size="12" lengthAdjust="spacing" textLength="185" x="214" y="142.4355">Usar instrumentaci&#243;n manual</text><polygon fill="#FEFECE" filter="url(#f1tdrz6juafb5x)" points="178,161.2656,190,173.2656,178,185.2656,166,173.2656,178,161.2656" style="stroke:#A80036;stroke-width:1.5;"/><ellipse cx="178" cy="216.2656" fill="none" filter="url(#f1tdrz6juafb5x)" rx="11" ry="11" style="stroke:#000000;stroke-width:1.0;"/><ellipse cx="178" cy="216.2656" fill="#000000" rx="6" ry="6" style="stroke:#000000;stroke-width:1.0;"/><line style="stroke:#A80036;stroke-width:1.5;" x1="59.5" x2="49.5" y1="99.2969" y2="99.2969"/><line style="stroke:#A80036;stroke-width:1.5;" x1="49.5" x2="49.5" y1="99.2969" y2="121.2969"/><polygon fill="#A80036" points="45.5,111.2969,49.5,121.2969,53.5,111.2969,49.5,115.2969" style="stroke:#A80036;stroke-width:1.0;"/><line style="stroke:#A80036;stroke-width:1.5;" x1="296.5" x2="306.5" y1="99.2969" y2="99.2969"/><line style="stroke:#A80036;stroke-width:1.5;" x1="306.5" x2="306.5" y1="99.2969" y2="121.2969"/><polygon fill="#A80036" points="302.5,111.2969,306.5,121.2969,310.5,111.2969,306.5,115.2969" style="stroke:#A80036;stroke-width:1.0;"/><line style="stroke:#A80036;stroke-width:1.5;" x1="49.5" x2="49.5" y1="155.2656" y2="173.2656"/><line style="stroke:#A80036;stroke-width:1.5;" x1="49.5" x2="166" y1="173.2656" y2="173.2656"/><polygon fill="#A80036" points="156,169.2656,166,173.2656,156,177.2656,160,173.2656" style="stroke:#A80036;stroke-width:1.0;"/><line style="stroke:#A80036;stroke-width:1.5;" x1="306.5" x2="306.5" y1="155.2656" y2="173.2656"/><line style="stroke:#A80036;stroke-width:1.5;" x1="306.5" x2="190" y1="173.2656" y2="173.2656"/><polygon fill="#A80036" points="200,169.2656,190,173.2656,200,177.2656,196,173.2656" style="stroke:#A80036;stroke-width:1.0;"/><line style="stroke:#A80036;stroke-width:1.5;" x1="178" x2="178" y1="67.2969" y2="87.2969"/><polygon fill="#A80036" points="174,77.2969,178,87.2969,182,77.2969,178,81.2969" style="stroke:#A80036;stroke-width:1.0;"/><line style="stroke:#A80036;stroke-width:1.5;" x1="178" x2="178" y1="185.2656" y2="205.2656"/><polygon fill="#A80036" points="174,195.2656,178,205.2656,182,195.2656,178,199.2656" style="stroke:#A80036;stroke-width:1.0;"/><!--SRC=[NOsn3G9130HpL-4GMe20X014G00KO7Y_PE7pdMn_y7LH018qnX6GaEwCPkCkXbw30L9I6VSMwLDXIxh9-s40aUG9CYvUpntDU6niPrOkd3xZQNl0GQ9LawloPWc8gqkGVy4QM7lujyXV6GlPHDej6sJiDxLz0000]--></g></svg>