<?xml version="1.0" encoding="us-ascii" standalone="no"?><svg xmlns="http://www.w3.org/2000/svg" xmlns:xlink="http://www.w3.org/1999/xlink" contentStyleType="text/css" height="752px" preserveAspectRatio="none" style="width:425px;height:752px;background:#FFFFFF;" version="1.1" viewBox="0 0 425 752" width="425px" zoomAndPan="magnify"><defs><filter height="300%" id="f1thad2lfjg06d" width="300%" x="-1" y="-1"><feGaussianBlur result="blurOut" stdDeviation="2.0"/><feColorMatrix in="blurOut" result="blurOut2" type="matrix" values="0 0 0 0 0 0 0 0 0 0 0 0 0 0 0 0 0 0 .4 0"/><feOffset dx="4.0" dy="4.0" in="blurOut2" result="blurOut3"/><feBlend in="SourceGraphic" in2="blurOut3" mode="normal"/></filter></defs><g><text fill="#000000" font-family="sans-serif" font-size="14" font-weight="bold" lengthAdjust="spacing" textLength="121" x="150.5" y="32.9951">Ambiente Local</text><ellipse cx="211.5" cy="57.2969" fill="#000000" filter="url(#f1thad2lfjg06d)" rx="10" ry="10" style="stroke:#000000;stroke-width:1.0;"/><rect fill="#FEFECE" filter="url(#f1thad2lfjg06d)" height="33.9688" rx="12.5" ry="12.5" style="stroke:#A80036;stroke-width:1.5;" width="276" x="73.5" y="87.2969"/><text fill="#000000" font-family="sans-serif" font-size="12" lengthAdjust="spacing" textLength="256" x="83.5" y="108.4355">Historia y definici&#243;n de la tarea a realizar</text><rect fill="#FEFECE" filter="url(#f1thad2lfjg06d)" height="33.9688" rx="12.5" ry="12.5" style="stroke:#A80036;stroke-width:1.5;" width="323" x="50" y="141.2656"/><text fill="#000000" font-family="sans-serif" font-size="12" lengthAdjust="spacing" textLength="303" x="60" y="162.4043">Clonar o actualizar desde el repositorio principal</text><rect fill="#FEFECE" filter="url(#f1thad2lfjg06d)" height="33.9688" rx="12.5" ry="12.5" style="stroke:#A80036;stroke-width:1.5;" width="255" x="84" y="195.2344"/><text fill="#000000" font-family="sans-serif" font-size="12" lengthAdjust="spacing" textLength="235" x="94" y="216.373">Crear y utilizar rama para los cambios</text><rect fill="#FEFECE" filter="url(#f1thad2lfjg06d)" height="33.9688" rx="12.5" ry="12.5" style="stroke:#A80036;stroke-width:1.5;" width="256" x="83.5" y="304.9136"/><text fill="#000000" font-family="sans-serif" font-size="12" lengthAdjust="spacing" textLength="236" x="93.5" y="326.0522">Crear o refactorizar pruebas unitarias</text><rect fill="#FEFECE" filter="url(#f1thad2lfjg06d)" height="33.9688" rx="12.5" ry="12.5" style="stroke:#A80036;stroke-width:1.5;" width="351" x="36" y="358.8823"/><text fill="#000000" font-family="sans-serif" font-size="12" lengthAdjust="spacing" textLength="331" x="46" y="380.021">Crear o refactorizar pruebas funcionales/de contrato</text><rect fill="#FEFECE" filter="url(#f1thad2lfjg06d)" height="33.9688" rx="12.5" ry="12.5" style="stroke:#A80036;stroke-width:1.5;" width="292" x="65.5" y="412.8511"/><text fill="#000000" font-family="sans-serif" font-size="12" lengthAdjust="spacing" textLength="272" x="75.5" y="433.9897">Crear o refactorizar pruebas de integraci&#243;n</text><rect fill="#FEFECE" filter="url(#f1thad2lfjg06d)" height="33.9688" rx="12.5" ry="12.5" style="stroke:#A80036;stroke-width:1.5;" width="289" x="67" y="475.9175"/><text fill="#000000" font-family="sans-serif" font-size="12" lengthAdjust="spacing" textLength="269" x="77" y="497.0562">Crear o refactorizar el c&#243;digo de aplicaci&#243;n</text><rect fill="#FEFECE" filter="url(#f1thad2lfjg06d)" height="33.9688" rx="12.5" ry="12.5" style="stroke:#A80036;stroke-width:1.5;" width="321" x="51" y="529.8862"/><text fill="#000000" font-family="sans-serif" font-size="12" lengthAdjust="spacing" textLength="301" x="61" y="551.0249">Evaluar y cambiar c&#243;digo con pruebas est&#225;ticas</text><rect fill="#FEFECE" filter="url(#f1thad2lfjg06d)" height="33.9688" rx="12.5" ry="12.5" style="stroke:#A80036;stroke-width:1.5;" width="267" x="78" y="583.855"/><text fill="#000000" font-family="sans-serif" font-size="12" lengthAdjust="spacing" textLength="247" x="88" y="604.9937">Almacenar cambios en repositorio local</text><polygon fill="#FEFECE" filter="url(#f1thad2lfjg06d)" points="99.5,249.2031,323.5,249.2031,335.5,261.2031,323.5,273.2031,99.5,273.2031,87.5,261.2031,99.5,249.2031" style="stroke:#A80036;stroke-width:1.5;"/><text fill="#000000" font-family="sans-serif" font-size="11" lengthAdjust="spacing" textLength="15" x="215.5" y="283.4136">No</text><text fill="#000000" font-family="sans-serif" font-size="11" lengthAdjust="spacing" textLength="224" x="99.5" y="265.0112">&#191;Pasan las pruebas en ambiente local?</text><text fill="#000000" font-family="sans-serif" font-size="11" lengthAdjust="spacing" textLength="11" x="76.5" y="258.6089">S&#237;</text><rect fill="#FEFECE" filter="url(#f1thad2lfjg06d)" height="33.9688" rx="12.5" ry="12.5" style="stroke:#A80036;stroke-width:1.5;" width="378" x="22.5" y="659.8237"/><text fill="#000000" font-family="sans-serif" font-size="12" lengthAdjust="spacing" textLength="358" x="32.5" y="680.9624">Enviar cambios al repositorio principal en rama separada</text><ellipse cx="211.5" cy="724.7925" fill="none" filter="url(#f1thad2lfjg06d)" rx="11" ry="11" style="stroke:#000000;stroke-width:1.0;"/><ellipse cx="211.5" cy="724.7925" fill="#000000" rx="6" ry="6" style="stroke:#000000;stroke-width:1.0;"/><line style="stroke:#A80036;stroke-width:1.5;" x1="211.5" x2="211.5" y1="67.2969" y2="87.2969"/><polygon fill="#A80036" points="207.5,77.2969,211.5,87.2969,215.5,77.2969,211.5,81.2969" style="stroke:#A80036;stroke-width:1.0;"/><line style="stroke:#A80036;stroke-width:1.5;" x1="211.5" x2="211.5" y1="121.2656" y2="141.2656"/><polygon fill="#A80036" points="207.5,131.2656,211.5,141.2656,215.5,131.2656,211.5,135.2656" style="stroke:#A80036;stroke-width:1.0;"/><line style="stroke:#A80036;stroke-width:1.5;" x1="211.5" x2="211.5" y1="175.2344" y2="195.2344"/><polygon fill="#A80036" points="207.5,185.2344,211.5,195.2344,215.5,185.2344,211.5,189.2344" style="stroke:#A80036;stroke-width:1.0;"/><line style="stroke:#A80036;stroke-width:1.5;" x1="211.5" x2="211.5" y1="338.8823" y2="358.8823"/><polygon fill="#A80036" points="207.5,348.8823,211.5,358.8823,215.5,348.8823,211.5,352.8823" style="stroke:#A80036;stroke-width:1.0;"/><line style="stroke:#A80036;stroke-width:1.5;" x1="211.5" x2="211.5" y1="392.8511" y2="412.8511"/><polygon fill="#A80036" points="207.5,402.8511,211.5,412.8511,215.5,402.8511,211.5,406.8511" style="stroke:#A80036;stroke-width:1.0;"/><line style="stroke:#A80036;stroke-width:1.5;" x1="211.5" x2="211.5" y1="446.8198" y2="475.9175"/><polygon fill="#A80036" points="207.5,465.9175,211.5,475.9175,215.5,465.9175,211.5,469.9175" style="stroke:#A80036;stroke-width:1.0;"/><line style="stroke:#A80036;stroke-width:1.5;" x1="211.5" x2="211.5" y1="509.8862" y2="529.8862"/><polygon fill="#A80036" points="207.5,519.8862,211.5,529.8862,215.5,519.8862,211.5,523.8862" style="stroke:#A80036;stroke-width:1.0;"/><line style="stroke:#A80036;stroke-width:1.5;" x1="211.5" x2="211.5" y1="563.855" y2="583.855"/><polygon fill="#A80036" points="207.5,573.855,211.5,583.855,215.5,573.855,211.5,577.855" style="stroke:#A80036;stroke-width:1.0;"/><line style="stroke:#A80036;stroke-width:1.5;" x1="211.5" x2="211.5" y1="273.2031" y2="304.9136"/><polygon fill="#A80036" points="207.5,294.9136,211.5,304.9136,215.5,294.9136,211.5,298.9136" style="stroke:#A80036;stroke-width:1.0;"/><line style="stroke:#A80036;stroke-width:1.5;" x1="211.5" x2="211.5" y1="617.8237" y2="627.8237"/><line style="stroke:#A80036;stroke-width:1.5;" x1="211.5" x2="399" y1="627.8237" y2="627.8237"/><polygon fill="#A80036" points="395,455.9175,399,445.9175,403,455.9175,399,451.9175" style="stroke:#A80036;stroke-width:1.5;"/><line style="stroke:#A80036;stroke-width:1.5;" x1="399" x2="399" y1="261.2031" y2="627.8237"/><line style="stroke:#A80036;stroke-width:1.5;" x1="399" x2="335.5" y1="261.2031" y2="261.2031"/><polygon fill="#A80036" points="345.5,257.2031,335.5,261.2031,345.5,265.2031,341.5,261.2031" style="stroke:#A80036;stroke-width:1.0;"/><line style="stroke:#A80036;stroke-width:1.5;" x1="87.5" x2="24" y1="261.2031" y2="261.2031"/><polygon fill="#A80036" points="20,441.9175,24,451.9175,28,441.9175,24,445.9175" style="stroke:#A80036;stroke-width:1.5;"/><line style="stroke:#A80036;stroke-width:1.5;" x1="24" x2="24" y1="261.2031" y2="639.8237"/><line style="stroke:#A80036;stroke-width:1.5;" x1="24" x2="211.5" y1="639.8237" y2="639.8237"/><line style="stroke:#A80036;stroke-width:1.5;" x1="211.5" x2="211.5" y1="639.8237" y2="659.8237"/><polygon fill="#A80036" points="207.5,649.8237,211.5,659.8237,215.5,649.8237,211.5,653.8237" style="stroke:#A80036;stroke-width:1.0;"/><line style="stroke:#A80036;stroke-width:1.5;" x1="211.5" x2="211.5" y1="229.2031" y2="249.2031"/><polygon fill="#A80036" points="207.5,239.2031,211.5,249.2031,215.5,239.2031,211.5,243.2031" style="stroke:#A80036;stroke-width:1.0;"/><line style="stroke:#A80036;stroke-width:1.5;" x1="211.5" x2="211.5" y1="693.7925" y2="713.7925"/><polygon fill="#A80036" points="207.5,703.7925,211.5,713.7925,215.5,703.7925,211.5,707.7925" style="stroke:#A80036;stroke-width:1.0;"/><!--SRC=[XL8xJWCn4ErzYYcJYZvRe0X5ea08YHDCl4uOuNXM7cyGt8O3KEK0IEp5UDva8KsKnckjtfjv7zkh9CfgmRaY9GPQxjOIKWdqe9wZSrOu5xUu5okQXUcTsh2H95w6GyAT8XCWWOa9PvGFperpYxkeYJCfiI_zyJVG1aA807PgKWSgTLcIbuvZ0n8cPApeYnmPcNTC7MUcg4QU8KwjSMyl0gcpd-ydDawGO1ZJXpM-8H5F5cArS3id4gFPeywd1Ge16-Z2_hfaelP9u4JOcYl0JG_5i1U3tS2GrrGo5xr60rGWQvjv3EyI7FduuT3ALYk3koZ-Zx3QS-p7YCOiS9kW4F6VWPNXiu1MdIpZZdseNPpYgn6T5p2crBYGsbEipyFN70skqbxEM7oXjd5ShSb2BQhbfZuQxNu1]--></g></svg>