<svg xmlns="http://www.w3.org/2000/svg" xmlns:xlink="http://www.w3.org/1999/xlink" contentStyleType="text/css" data-diagram-type="ACTIVITY" height="939px" preserveAspectRatio="none" style="width:377px;height:939px;background:#FFFFFF;" version="1.1" viewBox="0 0 377 939" width="377px" zoomAndPan="magnify"><title>Ambiente Pruebas (Staging)</title><defs><filter height="300%" id="fek9f4wig1uml" width="300%" x="-1" y="-1"><feGaussianBlur result="blurOut" stdDeviation="2"/><feColorMatrix in="blurOut" result="blurOut2" type="matrix" values="0 0 0 0 0 0 0 0 0 0 0 0 0 0 0 0 0 0 .4 0"/><feOffset dx="4" dy="4" in="blurOut2" result="blurOut3"/><feBlend in="SourceGraphic" in2="blurOut3" mode="normal"/></filter></defs><g><text fill="#000000" font-family="sans-serif" font-size="14" font-weight="bold" lengthAdjust="spacing" textLength="223.8975" x="75.5508" y="32.9951">Ambiente Pruebas (Staging)</text><ellipse cx="185.4521" cy="57.2969" fill="#000000" filter="url(#fek9f4wig1uml)" rx="10" ry="10" style="stroke:#000000;stroke-width:1;"/><rect fill="#FEFECE" filter="url(#fek9f4wig1uml)" height="33.9688" rx="12.5" ry="12.5" style="stroke:#A80036;stroke-width:1.5;" width="169.3848" x="100.7598" y="87.2969"/><text fill="#000000" font-family="sans-serif" font-size="12" lengthAdjust="spacing" textLength="149.3848" x="110.7598" y="108.4355">Commit en la rama main</text><rect fill="#FEFECE" filter="url(#fek9f4wig1uml)" height="33.9688" rx="12.5" ry="12.5" style="stroke:#A80036;stroke-width:1.5;" width="348.9043" x="11" y="141.2656"/><text fill="#000000" font-family="sans-serif" font-size="12" lengthAdjust="spacing" textLength="328.9043" x="21" y="162.4043">Crear nueva versi&#243;n aumentando n&#250;mero PATCH (tag)</text><rect fill="#FEFECE" filter="url(#fek9f4wig1uml)" height="33.9688" rx="12.5" ry="12.5" style="stroke:#A80036;stroke-width:1.5;" width="167.0234" x="101.9404" y="195.2344"/><text fill="#000000" font-family="sans-serif" font-size="12" lengthAdjust="spacing" textLength="147.0234" x="111.9404" y="216.373">Iniciar pruebas est&#225;ticas</text><rect fill="#FEFECE" filter="url(#fek9f4wig1uml)" height="33.9688" rx="12.5" ry="12.5" style="stroke:#A80036;stroke-width:1.5;" width="330.0664" x="20.4189" y="249.2031"/><text fill="#000000" font-family="sans-serif" font-size="12" lengthAdjust="spacing" textLength="310.0664" x="30.4189" y="270.3418">Ejecutar pruebas unitarias, funcionales, integraci&#243;n</text><rect fill="#FEFECE" filter="url(#fek9f4wig1uml)" height="33.9688" rx="12.5" ry="12.5" style="stroke:#A80036;stroke-width:1.5;" width="256.9648" x="56.9697" y="351.5742"/><text fill="#000000" font-family="sans-serif" font-size="12" lengthAdjust="spacing" textLength="236.9648" x="66.9697" y="372.7129">Iniciar proceso de despliegue a Staging</text><rect fill="#FEFECE" filter="url(#fek9f4wig1uml)" height="33.9688" rx="12.5" ry="12.5" style="stroke:#A80036;stroke-width:1.5;" width="282.3301" x="44.2871" y="405.543"/><text fill="#000000" font-family="sans-serif" font-size="12" lengthAdjust="spacing" textLength="262.3301" x="54.2871" y="426.6816">Registrar metadatos y enviar notificaciones</text><rect fill="#FEFECE" filter="url(#fek9f4wig1uml)" height="33.9688" rx="12.5" ry="12.5" style="stroke:#A80036;stroke-width:1.5;" width="229.0859" x="70.9092" y="459.5117"/><text fill="#000000" font-family="sans-serif" font-size="12" lengthAdjust="spacing" textLength="209.0859" x="80.9092" y="480.6504">Iniciar pruebas en servidor staging</text><rect fill="#FEFECE" filter="url(#fek9f4wig1uml)" height="33.9688" rx="12.5" ry="12.5" style="stroke:#A80036;stroke-width:1.5;" width="210.5879" x="80.1582" y="513.4805"/><text fill="#000000" font-family="sans-serif" font-size="12" lengthAdjust="spacing" textLength="190.5879" x="90.1582" y="534.6191">Ejecutar pruebas de aceptaci&#243;n</text><rect fill="#FEFECE" filter="url(#fek9f4wig1uml)" height="33.9688" rx="12.5" ry="12.5" style="stroke:#A80036;stroke-width:1.5;" width="269.0938" x="50.9053" y="630.8516"/><text fill="#000000" font-family="sans-serif" font-size="12" lengthAdjust="spacing" textLength="249.0938" x="60.9053" y="651.9902">Marcar versi&#243;n como aprobada para Prod</text><rect fill="#FEFECE" filter="url(#fek9f4wig1uml)" height="33.9688" rx="12.5" ry="12.5" style="stroke:#A80036;stroke-width:1.5;" width="239.8672" x="65.5186" y="684.8203"/><text fill="#000000" font-family="sans-serif" font-size="12" lengthAdjust="spacing" textLength="219.8672" x="75.5186" y="705.959">Iniciar proceso de Despliegue a Prod</text><ellipse cx="185.4521" cy="749.7891" fill="none" filter="url(#fek9f4wig1uml)" rx="11" ry="11" style="stroke:#000000;stroke-width:1;"/><ellipse cx="185.4521" cy="749.7891" fill="#000000" rx="6" ry="6" style="stroke:#000000;stroke-width:1;"/><polygon fill="#FEFECE" filter="url(#fek9f4wig1uml)" points="77.3616,582.4492,293.5427,582.4492,305.5427,594.4492,293.5427,606.4492,77.3616,606.4492,65.3616,594.4492,77.3616,582.4492" style="stroke:#A80036;stroke-width:1.5;"/><text fill="#000000" font-family="sans-serif" font-size="11" lengthAdjust="spacing" textLength="10.0386" x="189.4521" y="616.6597">S&#237;</text><text fill="#000000" font-family="sans-serif" font-size="11" lengthAdjust="spacing" textLength="216.1812" x="77.3616" y="598.2573">&#191;Pruebas exitosas en servidor Staging?</text><polygon fill="#FEFECE" filter="url(#fek9f4wig1uml)" points="132.9014,303.1719,238.0029,303.1719,250.0029,315.1719,238.0029,327.1719,132.9014,327.1719,120.9014,315.1719,132.9014,303.1719" style="stroke:#A80036;stroke-width:1.5;"/><text fill="#000000" font-family="sans-serif" font-size="11" lengthAdjust="spacing" textLength="10.0386" x="189.4521" y="337.3823">S&#237;</text><text fill="#000000" font-family="sans-serif" font-size="11" lengthAdjust="spacing" textLength="105.1016" x="132.9014" y="318.98">&#191;Pruebas exitosas?</text><polygon fill="#FEFECE" filter="url(#fek9f4wig1uml)" points="185.4521,802.7891,197.4521,814.7891,185.4521,826.7891,173.4521,814.7891,185.4521,802.7891" style="stroke:#A80036;stroke-width:1.5;"/><rect fill="#FEFECE" filter="url(#fek9f4wig1uml)" height="33.9688" rx="12.5" ry="12.5" style="stroke:#A80036;stroke-width:1.5;" width="186.4414" x="92.2314" y="846.7891"/><text fill="#000000" font-family="sans-serif" font-size="12" lengthAdjust="spacing" textLength="166.4414" x="102.2314" y="867.9277">Marcar versi&#243;n como fallida</text><ellipse cx="185.4521" cy="911.7578" fill="none" filter="url(#fek9f4wig1uml)" rx="11" ry="11" style="stroke:#000000;stroke-width:1;"/><ellipse cx="185.4521" cy="911.7578" fill="#000000" rx="6" ry="6" style="stroke:#000000;stroke-width:1;"/><line style="stroke:#A80036;stroke-width:1.5;" x1="185.4521" x2="185.4521" y1="67.2969" y2="87.2969"/><polygon fill="#A80036" points="181.4521,77.2969,185.4521,87.2969,189.4521,77.2969,185.4521,81.2969" style="stroke:#A80036;stroke-width:1;"/><line style="stroke:#A80036;stroke-width:1.5;" x1="185.4521" x2="185.4521" y1="121.2656" y2="141.2656"/><polygon fill="#A80036" points="181.4521,131.2656,185.4521,141.2656,189.4521,131.2656,185.4521,135.2656" style="stroke:#A80036;stroke-width:1;"/><line style="stroke:#A80036;stroke-width:1.5;" x1="185.4521" x2="185.4521" y1="175.2344" y2="195.2344"/><polygon fill="#A80036" points="181.4521,185.2344,185.4521,195.2344,189.4521,185.2344,185.4521,189.2344" style="stroke:#A80036;stroke-width:1;"/><line style="stroke:#A80036;stroke-width:1.5;" x1="185.4521" x2="185.4521" y1="229.2031" y2="249.2031"/><polygon fill="#A80036" points="181.4521,239.2031,185.4521,249.2031,189.4521,239.2031,185.4521,243.2031" style="stroke:#A80036;stroke-width:1;"/><line style="stroke:#A80036;stroke-width:1.5;" x1="185.4521" x2="185.4521" y1="385.543" y2="405.543"/><polygon fill="#A80036" points="181.4521,395.543,185.4521,405.543,189.4521,395.543,185.4521,399.543" style="stroke:#A80036;stroke-width:1;"/><line style="stroke:#A80036;stroke-width:1.5;" x1="185.4521" x2="185.4521" y1="439.5117" y2="459.5117"/><polygon fill="#A80036" points="181.4521,449.5117,185.4521,459.5117,189.4521,449.5117,185.4521,453.5117" style="stroke:#A80036;stroke-width:1;"/><line style="stroke:#A80036;stroke-width:1.5;" x1="185.4521" x2="185.4521" y1="493.4805" y2="513.4805"/><polygon fill="#A80036" points="181.4521,503.4805,185.4521,513.4805,189.4521,503.4805,185.4521,507.4805" style="stroke:#A80036;stroke-width:1;"/><line style="stroke:#A80036;stroke-width:1.5;" x1="185.4521" x2="185.4521" y1="664.8203" y2="684.8203"/><polygon fill="#A80036" points="181.4521,674.8203,185.4521,684.8203,189.4521,674.8203,185.4521,678.8203" style="stroke:#A80036;stroke-width:1;"/><line style="stroke:#A80036;stroke-width:1.5;" x1="185.4521" x2="185.4521" y1="718.7891" y2="738.7891"/><polygon fill="#A80036" points="181.4521,728.7891,185.4521,738.7891,189.4521,728.7891,185.4521,732.7891" style="stroke:#A80036;stroke-width:1;"/><line style="stroke:#A80036;stroke-width:1.5;" x1="185.4521" x2="185.4521" y1="606.4492" y2="630.8516"/><polygon fill="#A80036" points="181.4521,620.8516,185.4521,630.8516,189.4521,620.8516,185.4521,624.8516" style="stroke:#A80036;stroke-width:1;"/><line style="stroke:#A80036;stroke-width:1.5;" x1="305.5427" x2="329.999" y1="594.4492" y2="594.4492"/><polygon fill="#A80036" points="325.999,682.8203,329.999,692.8203,333.999,682.8203,329.999,686.8203" style="stroke:#A80036;stroke-width:1.5;"/><line style="stroke:#A80036;stroke-width:1.5;" x1="329.999" x2="329.999" y1="594.4492" y2="782.7891"/><line style="stroke:#A80036;stroke-width:1.5;" x1="329.999" x2="185.4521" y1="782.7891" y2="782.7891"/><line style="stroke:#A80036;stroke-width:1.5;" x1="185.4521" x2="185.4521" y1="782.7891" y2="802.7891"/><polygon fill="#A80036" points="181.4521,792.7891,185.4521,802.7891,189.4521,792.7891,185.4521,796.7891" style="stroke:#A80036;stroke-width:1;"/><line style="stroke:#A80036;stroke-width:1.5;" x1="185.4521" x2="185.4521" y1="547.4492" y2="582.4492"/><polygon fill="#A80036" points="181.4521,572.4492,185.4521,582.4492,189.4521,572.4492,185.4521,576.4492" style="stroke:#A80036;stroke-width:1;"/><line style="stroke:#A80036;stroke-width:1.5;" x1="185.4521" x2="185.4521" y1="327.1719" y2="351.5742"/><polygon fill="#A80036" points="181.4521,341.5742,185.4521,351.5742,189.4521,341.5742,185.4521,345.5742" style="stroke:#A80036;stroke-width:1;"/><line style="stroke:#A80036;stroke-width:1.5;" x1="250.0029" x2="351.999" y1="315.1719" y2="315.1719"/><polygon fill="#A80036" points="347.999,553.8828,351.999,563.8828,355.999,553.8828,351.999,557.8828" style="stroke:#A80036;stroke-width:1.5;"/><line style="stroke:#A80036;stroke-width:1.5;" x1="351.999" x2="351.999" y1="315.1719" y2="814.7891"/><line style="stroke:#A80036;stroke-width:1.5;" x1="351.999" x2="197.4521" y1="814.7891" y2="814.7891"/><polygon fill="#A80036" points="207.4521,810.7891,197.4521,814.7891,207.4521,818.7891,203.4521,814.7891" style="stroke:#A80036;stroke-width:1;"/><line style="stroke:#A80036;stroke-width:1.5;" x1="185.4521" x2="185.4521" y1="283.1719" y2="303.1719"/><polygon fill="#A80036" points="181.4521,293.1719,185.4521,303.1719,189.4521,293.1719,185.4521,297.1719" style="stroke:#A80036;stroke-width:1;"/><line style="stroke:#A80036;stroke-width:1.5;" x1="185.4521" x2="185.4521" y1="826.7891" y2="846.7891"/><polygon fill="#A80036" points="181.4521,836.7891,185.4521,846.7891,189.4521,836.7891,185.4521,840.7891" style="stroke:#A80036;stroke-width:1;"/><line style="stroke:#A80036;stroke-width:1.5;" x1="185.4521" x2="185.4521" y1="880.7578" y2="900.7578"/><polygon fill="#A80036" points="181.4521,890.7578,185.4521,900.7578,189.4521,890.7578,185.4521,894.7578" style="stroke:#A80036;stroke-width:1;"/><!--SRC=[RL7DJiCm3BxdANpS99vWFQ1f8C41QMAyW9UwnT0aLUnMy3Wy02TkN93eY-5ktJHWKHGbykVlnv5dZf2Ja7FAsX0imvOfAi4wTxH5WTb6iUPOpvqJnQpEBLOf15QW20r2ne0Ga6DXXKoO8NRK8_IKXOUF2DW58yHO9eZ3Pw2SOBryMDt0p8ZdrdKRsRFrjPCYYGvloXx5YjTFv3izgNQHxSae5r1rqNEAs90zs4pN6VseMJZ75So-lmuXw8Kr2Shb7FJHVCysmxi50bidyicJ92Z9jhGDKzqH84pvYptwdceMpOOFf5YYqSAhZQ8VAM9Ihipuw8ga-Ci_UOaWb7ikKmOvSE-X_yAQ5_JKwZ7M23iVxHVlvFbtNDYjnHrcRnB7__4f941BlxKuq696-_jK5WVycVbSdSxd52oQsjsLOicLsv_kl6I5JSCb5cvi-W40]--></g></svg>